<svg width="169" height="154" viewBox="0 0 169 154" fill="none" xmlns="http://www.w3.org/2000/svg">
<path fill-rule="evenodd" clip-rule="evenodd" d="M57.2552 148.812L57.194 133.557L57.189 132.376L57.0835 104.079C57.0749 101.841 58.5235 99.9249 60.5314 99.234L60.6919 99.1821C61.1604 99.0381 61.6577 98.9596 62.1723 98.9586L106.44 98.8915C109.25 98.8874 111.557 101.184 111.567 103.996L111.733 148.51C111.744 151.323 109.454 153.627 106.645 153.631L62.376 153.698C59.6401 153.702 57.381 151.523 57.2552 148.812Z" fill="#0DA69E"/>
<path fill-rule="evenodd" clip-rule="evenodd" d="M50 127H118L111.479 150.239L104.974 150.207L64.9341 150.64L57.5224 150.317L50 127Z" fill="#0DA69E"/>
<path fill-rule="evenodd" clip-rule="evenodd" d="M146.03 7.51794L153.636 20.7378L154.225 21.7618L168.324 46.2888C169.439 48.2283 169.129 50.6112 167.728 52.2071L167.614 52.3316C167.278 52.6891 166.885 53.0041 166.439 53.2599L128.02 75.272C125.581 76.6693 122.441 75.8186 121.039 73.3807L98.8593 34.7972C97.4576 32.3598 98.3066 29.2232 100.745 27.8259L139.164 5.81344C141.538 4.45267 144.579 5.22495 146.03 7.51794Z" fill="#0DA69E"/>
<path fill-rule="evenodd" clip-rule="evenodd" d="M33.8901 88.1244C33.8901 88.1244 81.4716 66.9101 81.4719 66.9101C81.4719 66.9105 75.7993 15.2751 75.7998 15.2745C75.8012 15.2723 40.2319 7.81321 28.452 5.35313C26.1155 4.8653 26.2265 8.50272 26.2251 8.50544C26.2251 8.50544 4.10578 49.726 4.10544 49.726C4.10544 49.726 -0.270439 50.6083 1.2676 52.2974C9.24064 61.0536 33.8901 88.1239 33.8901 88.1244Z" fill="#0DA69E"/>
<path fill-rule="evenodd" clip-rule="evenodd" d="M22.9695 7.60693L15.3644 20.8268L14.7751 21.8508L0.676236 46.3778C-0.439261 48.3173 -0.129384 50.7002 1.27235 52.2961L1.38604 52.4206C1.72196 52.7781 2.11505 53.093 2.56142 53.3489L40.9803 75.361C43.4187 76.7583 46.5592 75.9076 47.9609 73.4697L70.141 34.8862C71.5424 32.4488 70.6934 29.3122 68.2554 27.9149L29.836 5.90243C27.4618 4.54166 24.4209 5.31394 22.9695 7.60693Z" fill="#0DA69E"/>
<path fill-rule="evenodd" clip-rule="evenodd" d="M135.091 88.0504C135.091 88.0504 87.5093 66.836 87.5088 66.836C87.5088 66.8365 93.1816 15.201 93.1811 15.2005C93.1806 15.2005 129.048 7.68957 140.676 5.2547C142.925 4.78407 142.63 7.67424 142.63 7.67424C142.63 7.67424 163.759 49.2196 163.76 49.2196C163.76 49.2196 169.279 50.504 167.782 52.1476C159.883 60.822 135.091 88.0499 135.091 88.0504Z" fill="#0DA69E"/>
<path fill-rule="evenodd" clip-rule="evenodd" d="M7.02905 69.5217L6.36621 71.9903L24.7773 104.058L43.1104 135.985L45.6975 136.83L47.6554 138.66L84.4171 138.684L121.21 138.66L123.79 137.267L125.683 136L144.011 103.98L162.397 72.0494L162.291 69.3962L162.436 66.8189L143.966 34.6506L125.627 2.56083L123.141 1.57392L121.242 0.000244141L84.3266 0.0249371L47.6311 0.000244141L45.4619 1.47497L43.1514 2.60051L24.7322 34.7286L6.37846 66.79L7.02905 69.5217Z" fill="#FFC15C"/>
<path d="M84.3719 117.184C110.763 117.184 132.158 95.77 132.158 69.3544C132.158 42.9387 110.763 21.5247 84.3719 21.5247C57.9804 21.5247 36.5859 42.9387 36.5859 69.3544C36.5859 95.77 57.9804 117.184 84.3719 117.184Z" fill="white"/>
<path d="M84.3717 106.049C104.619 106.049 121.033 89.6204 121.033 69.3544C121.033 49.0884 104.619 32.6595 84.3717 32.6595C64.1243 32.6595 47.7104 49.0884 47.7104 69.3544C47.7104 89.6204 64.1243 106.049 84.3717 106.049Z" fill="#40B6FF"/>
<path d="M84.3719 117.184C110.763 117.184 132.158 95.77 132.158 69.3544C132.158 42.9387 110.763 21.5247 84.3719 21.5247C57.9804 21.5247 36.5859 42.9387 36.5859 69.3544C36.5859 95.77 57.9804 117.184 84.3719 117.184Z" fill="white"/>
<path d="M84.3717 106.049C104.619 106.049 121.033 89.6204 121.033 69.3544C121.033 49.0884 104.619 32.6595 84.3717 32.6595C64.1243 32.6595 47.7104 49.0884 47.7104 69.3544C47.7104 89.6204 64.1243 106.049 84.3717 106.049Z" fill="#40B6FF"/>
<path d="M88.4809 82.6469H71.219V108.94H67.4961V52.8348C67.4961 51.0282 68.0718 49.5602 69.2225 48.4311C70.3732 47.3025 71.8283 46.7369 73.5885 46.7369H88.4809C93.896 46.7369 98.3522 48.3968 101.85 51.7171C105.348 55.0368 107.096 59.3615 107.096 64.6915C107.096 69.9767 105.348 74.2907 101.85 77.6329C98.3522 80.9753 93.896 82.6469 88.4809 82.6469ZM71.219 52.699V79.259H88.4809C92.8135 79.259 96.3556 77.9042 99.1083 75.1936C101.861 72.4836 103.238 68.9825 103.238 64.6915C103.238 60.4009 101.861 56.9002 99.1083 54.1901C96.3556 51.4796 92.8135 50.1248 88.4809 50.1248H73.5885C72.9118 50.1248 72.3476 50.373 71.8963 50.8699C71.445 51.3667 71.219 51.9765 71.219 52.699Z" fill="white"/>
<path d="M84.3719 117.184C110.763 117.184 132.158 95.77 132.158 69.3544C132.158 42.9387 110.763 21.5247 84.3719 21.5247C57.9804 21.5247 36.5859 42.9387 36.5859 69.3544C36.5859 95.77 57.9804 117.184 84.3719 117.184Z" fill="white"/>
<path d="M84.3717 106.049C104.619 106.049 121.033 89.6204 121.033 69.3544C121.033 49.0884 104.619 32.6595 84.3717 32.6595C64.1243 32.6595 47.7104 49.0884 47.7104 69.3544C47.7104 89.6204 64.1243 106.049 84.3717 106.049Z" fill="#40B6FF"/>
<path d="M84.3719 117.184C110.763 117.184 132.158 95.77 132.158 69.3544C132.158 42.9387 110.763 21.5247 84.3719 21.5247C57.9804 21.5247 36.5859 42.9387 36.5859 69.3544C36.5859 95.77 57.9804 117.184 84.3719 117.184Z" fill="white"/>
<path fill-rule="evenodd" clip-rule="evenodd" d="M84.3713 108.228C105.949 108.228 123.44 90.7207 123.44 69.1232C123.44 47.5277 105.949 30.0203 84.3713 30.0203C62.7945 30.0203 45.3032 47.5277 45.3032 69.1232C45.3032 83.5857 53.1473 96.2131 64.8082 102.979C70.6932 106.391 77.5851 108.228 84.3713 108.228Z" fill="#98CF88"/>
<path d="M76.5314 84.9101V93.976V113.149H68.0344V48.8839C67.9631 46.9368 68.4794 44.5382 71.8444 44.5382H83.3731C88.7472 44.5382 92.706 44.8293 95.2311 45.3921C97.7736 45.9557 99.9743 46.8954 101.834 48.1933C104.172 49.85 105.997 52.1382 107.311 55.0413C108.625 57.9441 109.291 61.1552 109.291 64.6902C109.291 68.2423 108.625 71.4528 107.311 74.3561C105.997 77.2592 104.172 79.5475 101.834 81.2041C99.9743 82.5364 97.7736 83.4949 95.2658 84.0559C92.7394 84.6204 88.7806 84.9101 83.3731 84.9101H83.2329V82.2922V79.4115V76.9894C84.2555 76.9615 85.2597 76.8857 86.1776 76.8491C96.8033 76.4185 100.681 73.5551 100.775 64.6044C100.912 51.6047 88.9191 52.5308 80.933 52.5308H76.5314V67.6407V77.0201V84.9101Z" fill="white"/>
</svg>
