<svg width="1027" height="1027" viewBox="0 0 1027 1027" fill="none" xmlns="http://www.w3.org/2000/svg">
<g clip-path="url(#clip0_119_2)">
<path d="M990.393 970.836L993.402 971.337L995.909 973.845V977.355L993.903 979.862L990.393 980.364L987.886 978.859L986.883 977.355V973.845L988.889 971.337L990.393 970.836Z" fill="#153243" fill-opacity="0.03"/>
<path d="M939.244 970.836L942.252 971.337L944.258 973.343L944.76 976.854L943.255 979.361L941.25 980.364L937.739 979.862L935.733 977.856L935.232 974.848L936.736 972.34L939.244 970.836Z" fill="#153243" fill-opacity="0.03"/>
<path d="M887.593 970.836L891.103 971.337L893.109 973.845V977.355L891.103 979.862L887.593 980.364L885.085 978.859L884.083 977.355V973.845L886.59 971.337L887.593 970.836Z" fill="#153243" fill-opacity="0.03"/>
<path d="M733.643 970.836L736.652 971.337L739.159 973.845V977.355L737.153 979.862L733.643 980.364L731.136 978.859L730.133 977.355V973.845L732.139 971.337L733.643 970.836Z" fill="#153243" fill-opacity="0.03"/>
<path d="M682.494 970.836L685.502 971.337L687.508 973.343L688.01 976.854L686.505 979.361L684.5 980.364L680.989 979.862L678.983 977.856L678.482 974.848L679.986 972.34L682.494 970.836Z" fill="#153243" fill-opacity="0.03"/>
<path d="M630.843 970.836L634.353 971.337L636.359 973.845V977.355L634.353 979.862L630.843 980.364L628.335 978.859L627.333 977.355V973.845L629.84 971.337L630.843 970.836Z" fill="#153243" fill-opacity="0.03"/>
<path d="M476.893 970.836L479.902 971.337L482.409 973.845V977.355L480.403 979.862L476.893 980.364L474.386 978.859L473.383 977.355V973.845L475.389 971.337L476.893 970.836Z" fill="#153243" fill-opacity="0.03"/>
<path d="M425.744 970.836L428.752 971.337L430.758 973.343L431.26 976.854L429.755 979.361L427.75 980.364L424.239 979.862L422.233 977.856L421.732 974.848L423.236 972.34L425.744 970.836Z" fill="#153243" fill-opacity="0.03"/>
<path d="M374.093 970.836L377.603 971.337L379.609 973.845V977.355L377.603 979.862L374.093 980.364L371.585 978.859L370.583 977.355V973.845L373.09 971.337L374.093 970.836Z" fill="#153243" fill-opacity="0.03"/>
<path d="M220.143 970.836L223.152 971.337L225.659 973.845V977.355L223.653 979.862L220.143 980.364L217.636 978.859L216.633 977.355V973.845L218.639 971.337L220.143 970.836Z" fill="#153243" fill-opacity="0.03"/>
<path d="M168.994 970.836L172.002 971.337L174.008 973.343L174.51 976.854L173.005 979.361L171 980.364L167.489 979.862L165.483 977.856L164.982 974.848L166.486 972.34L168.994 970.836Z" fill="#153243" fill-opacity="0.03"/>
<path d="M117.343 970.836L120.853 971.337L122.859 973.845V977.355L120.853 979.862L117.343 980.364L114.835 978.859L113.833 977.355V973.845L116.34 971.337L117.343 970.836Z" fill="#153243" fill-opacity="0.03"/>
<path d="M809.866 919.687H813.376L815.883 921.692L816.385 925.203L814.88 927.71L813.376 928.713H809.866L807.358 926.707L806.857 923.197L808.863 920.188L809.866 919.687Z" fill="#153243" fill-opacity="0.03"/>
<path d="M553.116 919.687H556.626L559.133 921.692L559.635 925.203L558.13 927.71L556.626 928.713H553.116L550.608 926.707L550.107 923.197L552.113 920.188L553.116 919.687Z" fill="#153243" fill-opacity="0.03"/>
<path d="M296.366 919.687H299.876L302.383 921.692L302.885 925.203L301.38 927.71L299.876 928.713H296.366L293.858 926.707L293.357 923.197L295.363 920.188L296.366 919.687Z" fill="#153243" fill-opacity="0.03"/>
<path d="M39.6157 919.687H43.126L45.6333 921.692L46.1348 925.203L44.6304 927.71L43.126 928.713H39.6157L37.1084 926.707L36.6069 923.197L38.6128 920.188L39.6157 919.687Z" fill="#153243" fill-opacity="0.03"/>
<path d="M1015.47 816.886H1018.48L1021.48 819.394V823.405L1018.98 825.913L1016.47 826.414L1013.46 824.91L1012.46 823.405V819.895L1014.46 817.388L1015.47 816.886Z" fill="#153243" fill-opacity="0.03"/>
<path d="M964.317 816.886L968.329 817.388L970.334 819.895V822.904L968.83 825.411L965.32 826.414L962.812 825.411L961.308 823.405L960.807 821.399L962.311 817.889L964.317 816.886Z" fill="#153243" fill-opacity="0.03"/>
<path d="M810.367 816.886L813.877 817.388L815.883 819.394L816.385 822.904L813.877 825.913L810.869 826.414L808.361 824.91L806.857 822.402L807.358 819.394L809.364 817.388L810.367 816.886Z" fill="#153243" fill-opacity="0.03"/>
<path d="M707.567 816.886L711.579 817.388L713.584 819.895V822.904L712.08 825.411L708.57 826.414L706.062 825.411L704.558 823.405L704.057 821.399L705.561 817.889L707.567 816.886Z" fill="#153243" fill-opacity="0.03"/>
<path d="M553.617 816.886L557.127 817.388L559.133 819.394L559.635 822.904L557.127 825.913L554.119 826.414L551.611 824.91L550.107 822.402L550.608 819.394L552.614 817.388L553.617 816.886Z" fill="#153243" fill-opacity="0.03"/>
<path d="M450.817 816.886L454.829 817.388L456.834 819.895V822.904L455.33 825.411L451.82 826.414L449.312 825.411L447.808 823.405L447.307 821.399L448.811 817.889L450.817 816.886Z" fill="#153243" fill-opacity="0.03"/>
<path d="M296.867 816.886L300.377 817.388L302.383 819.394L302.885 822.904L300.377 825.913L297.369 826.414L294.861 824.91L293.357 822.402L293.858 819.394L295.864 817.388L296.867 816.886Z" fill="#153243" fill-opacity="0.03"/>
<path d="M194.067 816.886L198.079 817.388L200.084 819.895V822.904L198.58 825.411L195.07 826.414L192.562 825.411L191.058 823.405L190.557 821.399L192.061 817.889L194.067 816.886Z" fill="#153243" fill-opacity="0.03"/>
<path d="M40.1172 816.886L43.6274 817.388L45.6333 819.394L46.1348 822.904L43.6274 825.913L40.6187 826.414L38.1113 824.91L36.6069 822.402L37.1084 819.394L39.1143 817.388L40.1172 816.886Z" fill="#153243" fill-opacity="0.03"/>
<path d="M938.241 765.737H941.751L944.258 767.743L944.76 771.253L943.255 773.76L941.751 774.763H938.241L935.733 772.256L935.232 769.247L936.736 766.74L938.241 765.737Z" fill="#153243" fill-opacity="0.03"/>
<path d="M681.491 765.737H685.001L687.508 767.743L688.01 771.253L686.505 773.76L685.001 774.763H681.491L678.983 772.256L678.482 769.247L679.986 766.74L681.491 765.737Z" fill="#153243" fill-opacity="0.03"/>
<path d="M424.741 765.737H428.251L430.758 767.743L431.26 771.253L429.755 773.76L428.251 774.763H424.741L422.233 772.256L421.732 769.247L423.236 766.74L424.741 765.737Z" fill="#153243" fill-opacity="0.03"/>
<path d="M167.991 765.737H171.501L174.008 767.743L174.51 771.253L173.005 773.76L171.501 774.763H167.991L165.483 772.256L164.982 769.247L166.486 766.74L167.991 765.737Z" fill="#153243" fill-opacity="0.03"/>
<path d="M1015.97 714.086L1019.48 714.587L1021.48 717.095V720.605L1019.48 723.112L1015.97 723.614L1013.46 722.109L1012.46 720.605V717.095L1014.96 714.587L1015.97 714.086Z" fill="#153243" fill-opacity="0.03"/>
<path d="M862.018 714.086L865.027 714.587L867.534 717.095V720.605L865.528 723.112L862.018 723.614L859.511 722.109L858.508 720.605V717.095L860.514 714.587L862.018 714.086Z" fill="#153243" fill-opacity="0.03"/>
<path d="M810.869 714.086L813.877 714.587L815.883 716.593L816.385 720.104L814.88 722.611L812.875 723.614L809.364 723.112L807.358 721.106L806.857 718.098L808.361 715.59L810.869 714.086Z" fill="#153243" fill-opacity="0.03"/>
<path d="M759.218 714.086L762.728 714.587L764.734 717.095V720.605L762.728 723.112L759.218 723.614L756.71 722.109L755.708 720.605V717.095L758.215 714.587L759.218 714.086Z" fill="#153243" fill-opacity="0.03"/>
<path d="M605.268 714.086L608.277 714.587L610.784 717.095V720.605L608.778 723.112L605.268 723.614L602.761 722.109L601.758 720.605V717.095L603.764 714.587L605.268 714.086Z" fill="#153243" fill-opacity="0.03"/>
<path d="M554.119 714.086L557.127 714.587L559.133 716.593L559.635 720.104L558.13 722.611L556.125 723.614L552.614 723.112L550.608 721.106L550.107 718.098L551.611 715.59L554.119 714.086Z" fill="#153243" fill-opacity="0.03"/>
<path d="M501.465 714.086L504.975 714.587L506.981 717.095V720.605L504.975 723.112L501.465 723.614L498.958 722.109L497.955 720.605V717.095L500.462 714.587L501.465 714.086Z" fill="#153243" fill-opacity="0.03"/>
<path d="M348.518 714.086L351.527 714.587L354.034 717.095V720.605L352.028 723.112L348.518 723.614L346.011 722.109L345.008 720.605V717.095L347.014 714.587L348.518 714.086Z" fill="#153243" fill-opacity="0.03"/>
<path d="M297.369 714.086L300.377 714.587L302.383 716.593L302.885 720.104L301.38 722.611L299.375 723.614L295.864 723.112L293.858 721.106L293.357 718.098L294.861 715.59L297.369 714.086Z" fill="#153243" fill-opacity="0.03"/>
<path d="M245.718 714.086L249.228 714.587L251.234 717.095V720.605L249.228 723.112L245.718 723.614L243.21 722.109L242.208 720.605V717.095L244.715 714.587L245.718 714.086Z" fill="#153243" fill-opacity="0.03"/>
<path d="M91.7681 714.086L94.7769 714.587L97.2842 717.095V720.605L95.2783 723.112L91.7681 723.614L89.2607 722.109L88.2578 720.605V717.095L90.2637 714.587L91.7681 714.086Z" fill="#153243" fill-opacity="0.03"/>
<path d="M40.6187 714.086L43.6274 714.587L45.6333 716.593L46.1348 720.104L44.6304 722.611L42.6245 723.614L39.1143 723.112L37.1084 721.106L36.6069 718.098L38.1113 715.59L40.6187 714.086Z" fill="#153243" fill-opacity="0.03"/>
<path d="M938.241 662.937H941.751L944.258 664.942L944.76 668.453L943.255 670.96L941.751 671.963H938.241L935.733 669.957L935.232 666.447L937.238 663.438L938.241 662.937Z" fill="#153243" fill-opacity="0.03"/>
<path d="M681.491 662.937H685.001L687.508 664.942L688.01 668.453L686.505 670.96L685.001 671.963H681.491L678.983 669.957L678.482 666.447L680.488 663.438L681.491 662.937Z" fill="#153243" fill-opacity="0.03"/>
<path d="M424.741 662.937H428.251L430.758 664.942L431.26 668.453L429.755 670.96L428.251 671.963H424.741L422.233 669.957L421.732 666.447L423.738 663.438L424.741 662.937Z" fill="#153243" fill-opacity="0.03"/>
<path d="M167.991 662.937H171.501L174.008 664.942L174.51 668.453L173.005 670.96L171.501 671.963H167.991L165.483 669.957L164.982 666.447L166.988 663.438L167.991 662.937Z" fill="#153243" fill-opacity="0.03"/>
<path d="M887.091 560.136H890.1L893.109 562.644V566.655L890.602 569.163L888.094 569.664L885.085 568.16L884.083 566.655V563.145L886.088 560.638L887.091 560.136Z" fill="#153243" fill-opacity="0.03"/>
<path d="M835.942 560.136L839.954 560.638L841.959 563.145V566.154L840.455 568.661L836.945 569.664L834.438 568.661L832.933 566.655L832.432 564.649L833.936 561.139L835.942 560.136Z" fill="#153243" fill-opacity="0.03"/>
<path d="M579.192 560.136L583.204 560.638L585.209 563.145V566.154L583.705 568.661L580.195 569.664L577.688 568.661L576.183 566.655L575.682 564.649L577.186 561.139L579.192 560.136Z" fill="#153243" fill-opacity="0.03"/>
<path d="M322.442 560.136L326.454 560.638L328.459 563.145V566.154L326.955 568.661L323.445 569.664L320.938 568.661L319.433 566.655L318.932 564.649L320.436 561.139L322.442 560.136Z" fill="#153243" fill-opacity="0.03"/>
<path d="M65.6919 560.136L69.7036 560.638L71.7095 563.145V566.154L70.2051 568.661L66.6948 569.664L64.1875 568.661L62.6831 566.655L62.1816 564.649L63.686 561.139L65.6919 560.136Z" fill="#153243" fill-opacity="0.03"/>
<path d="M809.866 508.987H813.376L815.883 510.993L816.385 514.503L814.88 517.01L813.376 518.013H809.866L807.358 515.506L806.857 512.497L808.361 509.99L809.866 508.987Z" fill="#153243" fill-opacity="0.03"/>
<path d="M553.116 508.987H556.626L559.133 510.993L559.635 514.503L558.13 517.01L556.626 518.013H553.116L550.608 515.506L550.107 512.497L551.611 509.99L553.116 508.987Z" fill="#153243" fill-opacity="0.03"/>
<path d="M296.366 508.987H299.876L302.383 510.993L302.885 514.503L301.38 517.01L299.876 518.013H296.366L293.858 515.506L293.357 512.497L294.861 509.99L296.366 508.987Z" fill="#153243" fill-opacity="0.03"/>
<path d="M39.6157 508.987H43.126L45.6333 510.993L46.1348 514.503L44.6304 517.01L43.126 518.013H39.6157L37.1084 515.506L36.6069 512.497L38.1113 509.99L39.6157 508.987Z" fill="#153243" fill-opacity="0.03"/>
<path d="M990.393 457.336L993.402 457.837L995.909 460.345V463.855L993.903 466.362L990.393 466.864L987.886 465.359L986.883 463.855V460.345L988.889 457.837L990.393 457.336Z" fill="#153243" fill-opacity="0.03"/>
<path d="M939.244 457.336L942.252 457.837L944.258 459.843L944.76 463.354L943.255 465.861L941.25 466.864L937.739 466.362L935.733 464.356L935.232 461.348L936.736 458.84L939.244 457.336Z" fill="#153243" fill-opacity="0.03"/>
<path d="M887.593 457.336L891.103 457.837L893.109 460.345V463.855L891.103 466.362L887.593 466.864L885.085 465.359L884.083 463.855V460.345L886.59 457.837L887.593 457.336Z" fill="#153243" fill-opacity="0.03"/>
<path d="M733.643 457.336L736.652 457.837L739.159 460.345V463.855L737.153 466.362L733.643 466.864L731.136 465.359L730.133 463.855V460.345L732.139 457.837L733.643 457.336Z" fill="#153243" fill-opacity="0.03"/>
<path d="M682.494 457.336L685.502 457.837L687.508 459.843L688.01 463.354L686.505 465.861L684.5 466.864L680.989 466.362L678.983 464.356L678.482 461.348L679.986 458.84L682.494 457.336Z" fill="#153243" fill-opacity="0.03"/>
<path d="M630.843 457.336L634.353 457.837L636.359 460.345V463.855L634.353 466.362L630.843 466.864L628.335 465.359L627.333 463.855V460.345L629.84 457.837L630.843 457.336Z" fill="#153243" fill-opacity="0.03"/>
<path d="M476.893 457.336L479.902 457.837L482.409 460.345V463.855L480.403 466.362L476.893 466.864L474.386 465.359L473.383 463.855V460.345L475.389 457.837L476.893 457.336Z" fill="#153243" fill-opacity="0.03"/>
<path d="M425.744 457.336L428.752 457.837L430.758 459.843L431.26 463.354L429.755 465.861L427.75 466.864L424.239 466.362L422.233 464.356L421.732 461.348L423.236 458.84L425.744 457.336Z" fill="#153243" fill-opacity="0.03"/>
<path d="M374.093 457.336L377.603 457.837L379.609 460.345V463.855L377.603 466.362L374.093 466.864L371.585 465.359L370.583 463.855V460.345L373.09 457.837L374.093 457.336Z" fill="#153243" fill-opacity="0.03"/>
<path d="M220.143 457.336L223.152 457.837L225.659 460.345V463.855L223.653 466.362L220.143 466.864L217.636 465.359L216.633 463.855V460.345L218.639 457.837L220.143 457.336Z" fill="#153243" fill-opacity="0.03"/>
<path d="M168.994 457.336L172.002 457.837L174.008 459.843L174.51 463.354L173.005 465.861L171 466.864L167.489 466.362L165.483 464.356L164.982 461.348L166.486 458.84L168.994 457.336Z" fill="#153243" fill-opacity="0.03"/>
<path d="M117.343 457.336L120.853 457.837L122.859 460.345V463.855L120.853 466.362L117.343 466.864L114.835 465.359L113.833 463.855V460.345L116.34 457.837L117.343 457.336Z" fill="#153243" fill-opacity="0.03"/>
<path d="M809.866 406.187H813.376L815.883 408.192L816.385 411.703L814.88 414.21L813.376 415.213H809.866L807.358 413.207L806.857 409.697L808.863 406.688L809.866 406.187Z" fill="#153243" fill-opacity="0.03"/>
<path d="M553.116 406.187H556.626L559.133 408.192L559.635 411.703L558.13 414.21L556.626 415.213H553.116L550.608 413.207L550.107 409.697L552.113 406.688L553.116 406.187Z" fill="#153243" fill-opacity="0.03"/>
<path d="M296.366 406.187H299.876L302.383 408.192L302.885 411.703L301.38 414.21L299.876 415.213H296.366L293.858 413.207L293.357 409.697L295.363 406.688L296.366 406.187Z" fill="#153243" fill-opacity="0.03"/>
<path d="M39.6157 406.187H43.126L45.6333 408.192L46.1348 411.703L44.6304 414.21L43.126 415.213H39.6157L37.1084 413.207L36.6069 409.697L38.6128 406.688L39.6157 406.187Z" fill="#153243" fill-opacity="0.03"/>
<path d="M1015.47 303.386H1018.48L1021.48 305.894V309.905L1018.98 312.413L1016.47 312.914L1013.46 311.41L1012.46 309.905V306.395L1014.46 303.888L1015.47 303.386Z" fill="#153243" fill-opacity="0.03"/>
<path d="M964.317 303.386L968.329 303.888L970.334 306.395V309.404L968.83 311.911L965.32 312.914L962.812 311.911L961.308 309.905L960.807 307.899L962.311 304.389L964.317 303.386Z" fill="#153243" fill-opacity="0.03"/>
<path d="M810.367 303.386L813.877 303.888L815.883 305.894L816.385 309.404L813.877 312.413L810.869 312.914L808.361 311.41L806.857 308.902L807.358 305.894L809.364 303.888L810.367 303.386Z" fill="#153243" fill-opacity="0.03"/>
<path d="M758.716 303.386H761.725L764.734 305.894V309.905L762.227 312.413L759.719 312.914L756.71 311.41L755.708 309.905V306.395L757.713 303.888L758.716 303.386Z" fill="#153243" fill-opacity="0.03"/>
<path d="M707.567 303.386L711.579 303.888L713.584 306.395V309.404L712.08 311.911L708.57 312.914L706.062 311.911L704.558 309.905L704.057 307.899L705.561 304.389L707.567 303.386Z" fill="#153243" fill-opacity="0.03"/>
<path d="M553.617 303.386L557.127 303.888L559.133 305.894L559.635 309.404L557.127 312.413L554.119 312.914L551.611 311.41L550.107 308.902L550.608 305.894L552.614 303.888L553.617 303.386Z" fill="#153243" fill-opacity="0.03"/>
<path d="M501.465 303.386H504.474L507.482 305.894V309.905L504.975 312.413L502.468 312.914L499.459 311.41L498.456 309.905V306.395L500.462 303.888L501.465 303.386Z" fill="#153243" fill-opacity="0.03"/>
<path d="M450.817 303.386L454.829 303.888L456.834 306.395V309.404L455.33 311.911L451.82 312.914L449.312 311.911L447.808 309.905L447.307 307.899L448.811 304.389L450.817 303.386Z" fill="#153243" fill-opacity="0.03"/>
<path d="M296.867 303.386L300.377 303.888L302.383 305.894L302.885 309.404L300.377 312.413L297.369 312.914L294.861 311.41L293.357 308.902L293.858 305.894L295.864 303.888L296.867 303.386Z" fill="#153243" fill-opacity="0.03"/>
<path d="M245.216 303.386H248.225L251.234 305.894V309.905L248.727 312.413L246.219 312.914L243.21 311.41L242.208 309.905V306.395L244.213 303.888L245.216 303.386Z" fill="#153243" fill-opacity="0.03"/>
<path d="M194.067 303.386L198.079 303.888L200.084 306.395V309.404L198.58 311.911L195.07 312.914L192.562 311.911L191.058 309.905L190.557 307.899L192.061 304.389L194.067 303.386Z" fill="#153243" fill-opacity="0.03"/>
<path d="M40.1172 303.386L43.6274 303.888L45.6333 305.894L46.1348 309.404L43.6274 312.413L40.6187 312.914L38.1113 311.41L36.6069 308.902L37.1084 305.894L39.1143 303.888L40.1172 303.386Z" fill="#153243" fill-opacity="0.03"/>
<path d="M938.241 252.237H941.751L944.258 254.243L944.76 257.753L943.255 260.26L941.751 261.263H938.241L935.733 258.756L935.232 255.747L936.736 253.24L938.241 252.237Z" fill="#153243" fill-opacity="0.03"/>
<path d="M681.491 252.237H685.001L687.508 254.243L688.01 257.753L686.505 260.26L685.001 261.263H681.491L678.983 258.756L678.482 255.747L679.986 253.24L681.491 252.237Z" fill="#153243" fill-opacity="0.03"/>
<path d="M424.741 252.237H428.251L430.758 254.243L431.26 257.753L429.755 260.26L428.251 261.263H424.741L422.233 258.756L421.732 255.747L423.236 253.24L424.741 252.237Z" fill="#153243" fill-opacity="0.03"/>
<path d="M167.991 252.237H171.501L174.008 254.243L174.51 257.753L173.005 260.26L171.501 261.263H167.991L165.483 258.756L164.982 255.747L166.486 253.24L167.991 252.237Z" fill="#153243" fill-opacity="0.03"/>
<path d="M1015.97 200.586L1019.48 201.087L1021.48 203.595V207.105L1019.48 209.612L1015.97 210.114L1013.46 208.609L1012.46 207.105V203.595L1014.96 201.087L1015.97 200.586Z" fill="#153243" fill-opacity="0.03"/>
<path d="M862.018 200.586L865.027 201.087L867.534 203.595V207.105L865.528 209.612L862.018 210.114L859.511 208.609L858.508 207.105V203.595L860.514 201.087L862.018 200.586Z" fill="#153243" fill-opacity="0.03"/>
<path d="M810.869 200.586L813.877 201.087L815.883 203.093L816.385 206.604L814.88 209.111L812.875 210.114L809.364 209.612L807.358 207.606L806.857 204.598L808.361 202.09L810.869 200.586Z" fill="#153243" fill-opacity="0.03"/>
<path d="M759.218 200.586L762.728 201.087L764.734 203.595V207.105L762.728 209.612L759.218 210.114L756.71 208.609L755.708 207.105V203.595L758.215 201.087L759.218 200.586Z" fill="#153243" fill-opacity="0.03"/>
<path d="M605.268 200.586L608.277 201.087L610.784 203.595V207.105L608.778 209.612L605.268 210.114L602.761 208.609L601.758 207.105V203.595L603.764 201.087L605.268 200.586Z" fill="#153243" fill-opacity="0.03"/>
<path d="M554.119 200.586L557.127 201.087L559.133 203.093L559.635 206.604L558.13 209.111L556.125 210.114L552.614 209.612L550.608 207.606L550.107 204.598L551.611 202.09L554.119 200.586Z" fill="#153243" fill-opacity="0.03"/>
<path d="M501.465 200.586L504.975 201.087L506.981 203.595V207.105L504.975 209.612L501.465 210.114L498.958 208.609L497.955 207.105V203.595L500.462 201.087L501.465 200.586Z" fill="#153243" fill-opacity="0.03"/>
<path d="M348.518 200.586L351.527 201.087L354.034 203.595V207.105L352.028 209.612L348.518 210.114L346.011 208.609L345.008 207.105V203.595L347.014 201.087L348.518 200.586Z" fill="#153243" fill-opacity="0.03"/>
<path d="M297.369 200.586L300.377 201.087L302.383 203.093L302.885 206.604L301.38 209.111L299.375 210.114L295.864 209.612L293.858 207.606L293.357 204.598L294.861 202.09L297.369 200.586Z" fill="#153243" fill-opacity="0.03"/>
<path d="M245.718 200.586L249.228 201.087L251.234 203.595V207.105L249.228 209.612L245.718 210.114L243.21 208.609L242.208 207.105V203.595L244.715 201.087L245.718 200.586Z" fill="#153243" fill-opacity="0.03"/>
<path d="M91.7681 200.586L94.7769 201.087L97.2842 203.595V207.105L95.2783 209.612L91.7681 210.114L89.2607 208.609L88.2578 207.105V203.595L90.2637 201.087L91.7681 200.586Z" fill="#153243" fill-opacity="0.03"/>
<path d="M40.6187 200.586L43.6274 201.087L45.6333 203.093L46.1348 206.604L44.6304 209.111L42.6245 210.114L39.1143 209.612L37.1084 207.606L36.6069 204.598L38.1113 202.09L40.6187 200.586Z" fill="#153243" fill-opacity="0.03"/>
<path d="M938.241 149.437H941.751L944.258 151.442L944.76 154.953L943.255 157.46L941.751 158.463H938.241L935.733 156.457L935.232 152.947L937.238 149.938L938.241 149.437Z" fill="#153243" fill-opacity="0.03"/>
<path d="M681.491 149.437H685.001L687.508 151.442L688.01 154.953L686.505 157.46L685.001 158.463H681.491L678.983 156.457L678.482 152.947L680.488 149.938L681.491 149.437Z" fill="#153243" fill-opacity="0.03"/>
<path d="M424.741 149.437H428.251L430.758 151.442L431.26 154.953L429.755 157.46L428.251 158.463H424.741L422.233 156.457L421.732 152.947L423.738 149.938L424.741 149.437Z" fill="#153243" fill-opacity="0.03"/>
<path d="M167.991 149.437H171.501L174.008 151.442L174.51 154.953L173.005 157.46L171.501 158.463H167.991L165.483 156.457L164.982 152.947L166.988 149.938L167.991 149.437Z" fill="#153243" fill-opacity="0.03"/>
<path d="M887.091 46.6362H890.1L893.109 49.1436V53.1553L890.602 55.6626L888.094 56.1641L885.085 54.6597L884.083 53.1553V49.645L886.088 47.1377L887.091 46.6362Z" fill="#153243" fill-opacity="0.03"/>
<path d="M835.942 46.6362L839.954 47.1377L841.959 49.645V52.6538L840.455 55.1611L836.945 56.1641L834.438 55.1611L832.933 53.1553L832.432 51.1494L833.936 47.6392L835.942 46.6362Z" fill="#153243" fill-opacity="0.03"/>
<path d="M630.341 46.6362H633.35L636.359 49.1436V53.1553L633.852 55.6626L631.344 56.1641L628.335 54.6597L627.333 53.1553V49.645L629.338 47.1377L630.341 46.6362Z" fill="#153243" fill-opacity="0.03"/>
<path d="M579.192 46.6362L583.204 47.1377L585.209 49.645V52.6538L583.705 55.1611L580.195 56.1641L577.688 55.1611L576.183 53.1553L575.682 51.1494L577.186 47.6392L579.192 46.6362Z" fill="#153243" fill-opacity="0.03"/>
<path d="M373.591 46.6362H376.6L379.609 49.1436V53.1553L377.102 55.6626L374.594 56.1641L371.585 54.6597L370.583 53.1553V49.645L372.588 47.1377L373.591 46.6362Z" fill="#153243" fill-opacity="0.03"/>
<path d="M322.442 46.6362L326.454 47.1377L328.459 49.645V52.6538L326.955 55.1611L323.445 56.1641L320.938 55.1611L319.433 53.1553L318.932 51.1494L320.436 47.6392L322.442 46.6362Z" fill="#153243" fill-opacity="0.03"/>
<path d="M116.841 46.6362H119.85L122.859 49.1436V53.1553L120.352 55.6626L117.844 56.1641L114.835 54.6597L113.833 53.1553V49.645L115.838 47.1377L116.841 46.6362Z" fill="#153243" fill-opacity="0.03"/>
<path d="M65.6919 46.6362L69.7036 47.1377L71.7095 49.645V52.6538L70.2051 55.1611L66.6948 56.1641L64.1875 55.1611L62.6831 53.1553L62.1816 51.1494L63.686 47.6392L65.6919 46.6362Z" fill="#153243" fill-opacity="0.03"/>
<path d="M963.815 919.687H967.326L969.833 921.692L970.334 922.695V925.704L967.827 928.713H963.815L961.308 926.206L960.807 923.698L962.311 920.689L963.815 919.687Z" fill="#153243" fill-opacity="0.03"/>
<path d="M912.666 919.687H916.176L918.684 922.194L919.185 924.701L917.681 927.71L916.176 928.713H912.666L910.159 926.707L909.657 925.704V922.695L911.663 920.188L912.666 919.687Z" fill="#153243" fill-opacity="0.03"/>
<path d="M707.065 919.687H710.576L713.083 921.692L713.584 922.695V925.704L711.077 928.713H707.065L704.558 926.206L704.057 923.698L705.561 920.689L707.065 919.687Z" fill="#153243" fill-opacity="0.03"/>
<path d="M655.916 919.687H659.426L661.934 922.194L662.435 924.701L660.931 927.71L659.426 928.713H655.916L653.409 926.707L652.907 925.704V922.695L654.913 920.188L655.916 919.687Z" fill="#153243" fill-opacity="0.03"/>
<path d="M450.315 919.687H453.826L456.333 921.692L456.834 922.695V925.704L454.327 928.713H450.315L447.808 926.206L447.307 923.698L448.811 920.689L450.315 919.687Z" fill="#153243" fill-opacity="0.03"/>
<path d="M399.166 919.687H402.676L405.184 922.194L405.685 924.701L404.181 927.71L402.676 928.713H399.166L396.659 926.707L396.157 925.704V922.695L398.163 920.188L399.166 919.687Z" fill="#153243" fill-opacity="0.03"/>
<path d="M193.565 919.687H197.076L199.583 921.692L200.084 922.695V925.704L197.577 928.713H193.565L191.058 926.206L190.557 923.698L192.061 920.689L193.565 919.687Z" fill="#153243" fill-opacity="0.03"/>
<path d="M142.416 919.687H145.926L148.434 922.194L148.935 924.701L147.431 927.71L145.926 928.713H142.416L139.909 926.707L139.407 925.704V922.695L141.413 920.188L142.416 919.687Z" fill="#153243" fill-opacity="0.03"/>
<path d="M861.517 816.886H864.525L867.033 818.892L867.534 819.895V823.405L865.027 825.913L862.52 826.414L859.511 824.91L858.508 823.405V819.895L860.514 817.388L861.517 816.886Z" fill="#153243" fill-opacity="0.03"/>
<path d="M758.716 816.886H761.725L764.734 819.394V823.405L762.227 825.913L759.719 826.414L756.71 824.91L755.708 823.405V819.895L757.713 817.388L758.716 816.886Z" fill="#153243" fill-opacity="0.03"/>
<path d="M604.767 816.886H607.775L610.283 818.892L610.784 819.895V823.405L608.277 825.913L605.77 826.414L602.761 824.91L601.758 823.405V819.895L603.764 817.388L604.767 816.886Z" fill="#153243" fill-opacity="0.03"/>
<path d="M501.465 816.886H504.474L507.482 819.394V823.405L504.975 825.913L502.468 826.414L499.459 824.91L498.456 823.405V819.895L500.462 817.388L501.465 816.886Z" fill="#153243" fill-opacity="0.03"/>
<path d="M348.017 816.886H351.025L353.533 818.892L354.034 819.895V823.405L351.527 825.913L349.02 826.414L346.011 824.91L345.008 823.405V819.895L347.014 817.388L348.017 816.886Z" fill="#153243" fill-opacity="0.03"/>
<path d="M245.216 816.886H248.225L251.234 819.394V823.405L248.727 825.913L246.219 826.414L243.21 824.91L242.208 823.405V819.895L244.213 817.388L245.216 816.886Z" fill="#153243" fill-opacity="0.03"/>
<path d="M91.2666 816.886H94.2754L96.7827 818.892L97.2842 819.895V823.405L94.7769 825.913L92.2695 826.414L89.2607 824.91L88.2578 823.405V819.895L90.2637 817.388L91.2666 816.886Z" fill="#153243" fill-opacity="0.03"/>
<path d="M835.44 765.737H839.452L841.959 768.746V771.754L839.954 774.262L838.951 774.763H835.44L832.933 772.256L832.432 769.749L833.936 766.74L835.44 765.737Z" fill="#153243" fill-opacity="0.03"/>
<path d="M784.291 765.737H787.801L790.309 768.244L790.81 770.751L789.306 773.76L787.801 774.763H784.291L781.784 772.757L781.282 771.754V768.746L783.288 766.238L784.291 765.737Z" fill="#153243" fill-opacity="0.03"/>
<path d="M578.69 765.737H582.702L585.209 768.746V771.754L583.204 774.262L582.201 774.763H578.69L576.183 772.256L575.682 769.749L577.186 766.74L578.69 765.737Z" fill="#153243" fill-opacity="0.03"/>
<path d="M527.541 765.737H531.051L533.559 768.244L534.06 770.751L532.556 773.76L531.051 774.763H527.541L525.034 772.757L524.532 771.754V768.746L526.538 766.238L527.541 765.737Z" fill="#153243" fill-opacity="0.03"/>
<path d="M321.94 765.737H325.952L328.459 768.746V771.754L326.454 774.262L325.451 774.763H321.94L319.433 772.256L318.932 769.749L320.436 766.74L321.94 765.737Z" fill="#153243" fill-opacity="0.03"/>
<path d="M270.791 765.737H274.301L276.809 768.244L277.31 770.751L275.806 773.76L274.301 774.763H270.791L268.284 772.757L267.782 771.754V768.746L269.788 766.238L270.791 765.737Z" fill="#153243" fill-opacity="0.03"/>
<path d="M65.1904 765.737H69.2021L71.7095 768.746V771.754L69.7036 774.262L68.7007 774.763H65.1904L62.6831 772.256L62.1816 769.749L63.686 766.74L65.1904 765.737Z" fill="#153243" fill-opacity="0.03"/>
<path d="M14.041 765.737H17.5513L20.0586 768.244L20.5601 770.751L19.0557 773.76L17.5513 774.763H14.041L11.5337 772.757L11.0322 771.754V768.746L13.0381 766.238L14.041 765.737Z" fill="#153243" fill-opacity="0.03"/>
<path d="M835.44 662.937H838.951L841.458 664.942L841.959 665.945V668.954L839.452 671.963H835.44L832.933 669.456L832.432 666.948L833.936 663.939L835.44 662.937Z" fill="#153243" fill-opacity="0.03"/>
<path d="M784.291 662.937H787.801L790.309 665.444L790.81 667.951L789.306 670.96L787.801 671.963H784.291L781.784 669.957L781.282 668.954V665.945L783.288 663.438L784.291 662.937Z" fill="#153243" fill-opacity="0.03"/>
<path d="M578.69 662.937H582.201L584.708 664.942L585.209 665.945V668.954L582.702 671.963H578.69L576.183 669.456L575.682 666.948L577.186 663.939L578.69 662.937Z" fill="#153243" fill-opacity="0.03"/>
<path d="M527.541 662.937H531.051L533.559 665.444L534.06 667.951L532.556 670.96L531.051 671.963H527.541L525.034 669.957L524.532 668.954V665.945L526.538 663.438L527.541 662.937Z" fill="#153243" fill-opacity="0.03"/>
<path d="M321.94 662.937H325.451L327.958 664.942L328.459 665.945V668.954L325.952 671.963H321.94L319.433 669.456L318.932 666.948L320.436 663.939L321.94 662.937Z" fill="#153243" fill-opacity="0.03"/>
<path d="M270.791 662.937H274.301L276.809 665.444L277.31 667.951L275.806 670.96L274.301 671.963H270.791L268.284 669.957L267.782 668.954V665.945L269.788 663.438L270.791 662.937Z" fill="#153243" fill-opacity="0.03"/>
<path d="M65.1904 662.937H68.7007L71.208 664.942L71.7095 665.945V668.954L69.2021 671.963H65.1904L62.6831 669.456L62.1816 666.948L63.686 663.939L65.1904 662.937Z" fill="#153243" fill-opacity="0.03"/>
<path d="M14.041 662.937H17.5513L20.0586 665.444L20.5601 667.951L19.0557 670.96L17.5513 671.963H14.041L11.5337 669.957L11.0322 668.954V665.945L13.0381 663.438L14.041 662.937Z" fill="#153243" fill-opacity="0.03"/>
<path d="M989.892 560.136H992.9L995.408 562.142L995.909 563.145V566.655L993.402 569.163L990.895 569.664L987.886 568.16L986.883 566.655V563.145L988.889 560.638L989.892 560.136Z" fill="#153243" fill-opacity="0.03"/>
<path d="M733.142 560.136H736.15L738.658 562.142L739.159 563.145V566.655L736.652 569.163L734.145 569.664L731.136 568.16L730.133 566.655V563.145L732.139 560.638L733.142 560.136Z" fill="#153243" fill-opacity="0.03"/>
<path d="M630.341 560.136H633.35L636.359 562.644V566.655L633.852 569.163L631.344 569.664L628.335 568.16L627.333 566.655V563.145L629.338 560.638L630.341 560.136Z" fill="#153243" fill-opacity="0.03"/>
<path d="M476.392 560.136H479.4L481.908 562.142L482.409 563.145V566.655L479.902 569.163L477.395 569.664L474.386 568.16L473.383 566.655V563.145L475.389 560.638L476.392 560.136Z" fill="#153243" fill-opacity="0.03"/>
<path d="M373.591 560.136H376.6L379.609 562.644V566.655L377.102 569.163L374.594 569.664L371.585 568.16L370.583 566.655V563.145L372.588 560.638L373.591 560.136Z" fill="#153243" fill-opacity="0.03"/>
<path d="M219.642 560.136H222.65L225.158 562.142L225.659 563.145V566.655L223.152 569.163L220.645 569.664L217.636 568.16L216.633 566.655V563.145L218.639 560.638L219.642 560.136Z" fill="#153243" fill-opacity="0.03"/>
<path d="M116.841 560.136H119.85L122.859 562.644V566.655L120.352 569.163L117.844 569.664L114.835 568.16L113.833 566.655V563.145L115.838 560.638L116.841 560.136Z" fill="#153243" fill-opacity="0.03"/>
<path d="M963.815 508.987H967.827L970.334 511.996V515.004L968.329 517.512L967.326 518.013H963.815L961.308 515.506L960.807 512.999L962.311 509.99L963.815 508.987Z" fill="#153243" fill-opacity="0.03"/>
<path d="M912.666 508.987H916.176L918.684 511.494L919.185 514.001L917.681 517.01L916.176 518.013H912.666L910.159 516.007L909.657 515.004V511.996L911.663 509.488L912.666 508.987Z" fill="#153243" fill-opacity="0.03"/>
<path d="M707.065 508.987H711.077L713.584 511.996V515.004L711.579 517.512L710.576 518.013H707.065L704.558 515.506L704.057 512.999L705.561 509.99L707.065 508.987Z" fill="#153243" fill-opacity="0.03"/>
<path d="M655.916 508.987H659.426L661.934 511.494L662.435 514.001L660.931 517.01L659.426 518.013H655.916L653.409 516.007L652.907 515.004V511.996L654.913 509.488L655.916 508.987Z" fill="#153243" fill-opacity="0.03"/>
<path d="M450.315 508.987H454.327L456.834 511.996V515.004L454.829 517.512L453.826 518.013H450.315L447.808 515.506L447.307 512.999L448.811 509.99L450.315 508.987Z" fill="#153243" fill-opacity="0.03"/>
<path d="M399.166 508.987H402.676L405.184 511.494L405.685 514.001L404.181 517.01L402.676 518.013H399.166L396.659 516.007L396.157 515.004V511.996L398.163 509.488L399.166 508.987Z" fill="#153243" fill-opacity="0.03"/>
<path d="M193.565 508.987H197.577L200.084 511.996V515.004L198.079 517.512L197.076 518.013H193.565L191.058 515.506L190.557 512.999L192.061 509.99L193.565 508.987Z" fill="#153243" fill-opacity="0.03"/>
<path d="M142.416 508.987H145.926L148.434 511.494L148.935 514.001L147.431 517.01L145.926 518.013H142.416L139.909 516.007L139.407 515.004V511.996L141.413 509.488L142.416 508.987Z" fill="#153243" fill-opacity="0.03"/>
<path d="M963.815 406.187H967.326L969.833 408.192L970.334 409.195V412.204L967.827 415.213H963.815L961.308 412.706L960.807 410.198L962.311 407.189L963.815 406.187Z" fill="#153243" fill-opacity="0.03"/>
<path d="M912.666 406.187H916.176L918.684 408.694L919.185 411.201L917.681 414.21L916.176 415.213H912.666L910.159 413.207L909.657 412.204V409.195L911.663 406.688L912.666 406.187Z" fill="#153243" fill-opacity="0.03"/>
<path d="M707.065 406.187H710.576L713.083 408.192L713.584 409.195V412.204L711.077 415.213H707.065L704.558 412.706L704.057 410.198L705.561 407.189L707.065 406.187Z" fill="#153243" fill-opacity="0.03"/>
<path d="M655.916 406.187H659.426L661.934 408.694L662.435 411.201L660.931 414.21L659.426 415.213H655.916L653.409 413.207L652.907 412.204V409.195L654.913 406.688L655.916 406.187Z" fill="#153243" fill-opacity="0.03"/>
<path d="M450.315 406.187H453.826L456.333 408.192L456.834 409.195V412.204L454.327 415.213H450.315L447.808 412.706L447.307 410.198L448.811 407.189L450.315 406.187Z" fill="#153243" fill-opacity="0.03"/>
<path d="M399.166 406.187H402.676L405.184 408.694L405.685 411.201L404.181 414.21L402.676 415.213H399.166L396.659 413.207L396.157 412.204V409.195L398.163 406.688L399.166 406.187Z" fill="#153243" fill-opacity="0.03"/>
<path d="M193.565 406.187H197.076L199.583 408.192L200.084 409.195V412.204L197.577 415.213H193.565L191.058 412.706L190.557 410.198L192.061 407.189L193.565 406.187Z" fill="#153243" fill-opacity="0.03"/>
<path d="M142.416 406.187H145.926L148.434 408.694L148.935 411.201L147.431 414.21L145.926 415.213H142.416L139.909 413.207L139.407 412.204V409.195L141.413 406.688L142.416 406.187Z" fill="#153243" fill-opacity="0.03"/>
<path d="M861.517 303.386H864.525L867.033 305.392L867.534 306.395V309.905L865.027 312.413L862.52 312.914L859.511 311.41L858.508 309.905V306.395L860.514 303.888L861.517 303.386Z" fill="#153243" fill-opacity="0.03"/>
<path d="M604.767 303.386H607.775L610.283 305.392L610.784 306.395V309.905L608.277 312.413L605.77 312.914L602.761 311.41L601.758 309.905V306.395L603.764 303.888L604.767 303.386Z" fill="#153243" fill-opacity="0.03"/>
<path d="M348.017 303.386H351.025L353.533 305.392L354.034 306.395V309.905L351.527 312.413L349.02 312.914L346.011 311.41L345.008 309.905V306.395L347.014 303.888L348.017 303.386Z" fill="#153243" fill-opacity="0.03"/>
<path d="M91.2666 303.386H94.2754L96.7827 305.392L97.2842 306.395V309.905L94.7769 312.413L92.2695 312.914L89.2607 311.41L88.2578 309.905V306.395L90.2637 303.888L91.2666 303.386Z" fill="#153243" fill-opacity="0.03"/>
<path d="M835.44 252.237H839.452L841.959 255.246V258.254L839.954 260.762L838.951 261.263H835.44L832.933 258.756L832.432 256.249L833.936 253.24L835.44 252.237Z" fill="#153243" fill-opacity="0.03"/>
<path d="M784.291 252.237H787.801L790.309 254.744L790.81 257.251L789.306 260.26L787.801 261.263H784.291L781.784 259.257L781.282 258.254V255.246L783.288 252.738L784.291 252.237Z" fill="#153243" fill-opacity="0.03"/>
<path d="M578.69 252.237H582.702L585.209 255.246V258.254L583.204 260.762L582.201 261.263H578.69L576.183 258.756L575.682 256.249L577.186 253.24L578.69 252.237Z" fill="#153243" fill-opacity="0.03"/>
<path d="M527.541 252.237H531.051L533.559 254.744L534.06 257.251L532.556 260.26L531.051 261.263H527.541L525.034 259.257L524.532 258.254V255.246L526.538 252.738L527.541 252.237Z" fill="#153243" fill-opacity="0.03"/>
<path d="M321.94 252.237H325.952L328.459 255.246V258.254L326.454 260.762L325.451 261.263H321.94L319.433 258.756L318.932 256.249L320.436 253.24L321.94 252.237Z" fill="#153243" fill-opacity="0.03"/>
<path d="M270.791 252.237H274.301L276.809 254.744L277.31 257.251L275.806 260.26L274.301 261.263H270.791L268.284 259.257L267.782 258.254V255.246L269.788 252.738L270.791 252.237Z" fill="#153243" fill-opacity="0.03"/>
<path d="M65.1904 252.237H69.2021L71.7095 255.246V258.254L69.7036 260.762L68.7007 261.263H65.1904L62.6831 258.756L62.1816 256.249L63.686 253.24L65.1904 252.237Z" fill="#153243" fill-opacity="0.03"/>
<path d="M14.041 252.237H17.5513L20.0586 254.744L20.5601 257.251L19.0557 260.26L17.5513 261.263H14.041L11.5337 259.257L11.0322 258.254V255.246L13.0381 252.738L14.041 252.237Z" fill="#153243" fill-opacity="0.03"/>
<path d="M835.44 149.437H838.951L841.458 151.442L841.959 152.445V155.454L839.452 158.463H835.44L832.933 155.956L832.432 153.448L833.936 150.439L835.44 149.437Z" fill="#153243" fill-opacity="0.03"/>
<path d="M784.291 149.437H787.801L790.309 151.944L790.81 154.451L789.306 157.46L787.801 158.463H784.291L781.784 156.457L781.282 155.454V152.445L783.288 149.938L784.291 149.437Z" fill="#153243" fill-opacity="0.03"/>
<path d="M578.69 149.437H582.201L584.708 151.442L585.209 152.445V155.454L582.702 158.463H578.69L576.183 155.956L575.682 153.448L577.186 150.439L578.69 149.437Z" fill="#153243" fill-opacity="0.03"/>
<path d="M527.541 149.437H531.051L533.559 151.944L534.06 154.451L532.556 157.46L531.051 158.463H527.541L525.034 156.457L524.532 155.454V152.445L526.538 149.938L527.541 149.437Z" fill="#153243" fill-opacity="0.03"/>
<path d="M321.94 149.437H325.451L327.958 151.442L328.459 152.445V155.454L325.952 158.463H321.94L319.433 155.956L318.932 153.448L320.436 150.439L321.94 149.437Z" fill="#153243" fill-opacity="0.03"/>
<path d="M270.791 149.437H274.301L276.809 151.944L277.31 154.451L275.806 157.46L274.301 158.463H270.791L268.284 156.457L267.782 155.454V152.445L269.788 149.938L270.791 149.437Z" fill="#153243" fill-opacity="0.03"/>
<path d="M65.1904 149.437H68.7007L71.208 151.442L71.7095 152.445V155.454L69.2021 158.463H65.1904L62.6831 155.956L62.1816 153.448L63.686 150.439L65.1904 149.437Z" fill="#153243" fill-opacity="0.03"/>
<path d="M14.041 149.437H17.5513L20.0586 151.944L20.5601 154.451L19.0557 157.46L17.5513 158.463H14.041L11.5337 156.457L11.0322 155.454V152.445L13.0381 149.938L14.041 149.437Z" fill="#153243" fill-opacity="0.03"/>
<path d="M989.892 46.6362H992.9L995.408 48.6421L995.909 49.645V53.1553L993.402 55.6626L990.895 56.1641L987.886 54.6597L986.883 53.1553V49.645L988.889 47.1377L989.892 46.6362Z" fill="#153243" fill-opacity="0.03"/>
<path d="M733.142 46.6362H736.15L738.658 48.6421L739.159 49.645V53.1553L736.652 55.6626L734.145 56.1641L731.136 54.6597L730.133 53.1553V49.645L732.139 47.1377L733.142 46.6362Z" fill="#153243" fill-opacity="0.03"/>
<path d="M476.392 46.6362H479.4L481.908 48.6421L482.409 49.645V53.1553L479.902 55.6626L477.395 56.1641L474.386 54.6597L473.383 53.1553V49.645L475.389 47.1377L476.392 46.6362Z" fill="#153243" fill-opacity="0.03"/>
<path d="M219.642 46.6362H222.65L225.158 48.6421L225.659 49.645V53.1553L223.152 55.6626L220.645 56.1641L217.636 54.6597L216.633 53.1553V49.645L218.639 47.1377L219.642 46.6362Z" fill="#153243" fill-opacity="0.03"/>
<path d="M836.443 970.836L839.452 971.337L841.458 973.343L841.959 976.854L840.455 979.361L838.449 980.364L834.939 979.862L832.933 977.856L832.432 975.349L833.435 972.842L834.939 971.337L836.443 970.836Z" fill="#153243" fill-opacity="0.03"/>
<path d="M579.693 970.836L582.702 971.337L584.708 973.343L585.209 976.854L583.705 979.361L581.699 980.364L578.189 979.862L576.183 977.856L575.682 975.349L576.685 972.842L578.189 971.337L579.693 970.836Z" fill="#153243" fill-opacity="0.03"/>
<path d="M322.943 970.836L325.952 971.337L327.958 973.343L328.459 976.854L326.955 979.361L324.949 980.364L321.439 979.862L319.433 977.856L318.932 975.349L319.935 972.842L321.439 971.337L322.943 970.836Z" fill="#153243" fill-opacity="0.03"/>
<path d="M66.1934 970.836L69.2021 971.337L71.208 973.343L71.7095 976.854L70.2051 979.361L68.1992 980.364L64.689 979.862L62.6831 977.856L62.1816 975.349L63.1846 972.842L64.689 971.337L66.1934 970.836Z" fill="#153243" fill-opacity="0.03"/>
<path d="M783.79 868.537H787.801L790.309 870.543L790.81 873.552L789.306 876.561L787.3 877.563H784.291L781.784 875.558L781.282 871.546L783.79 868.537Z" fill="#153243" fill-opacity="0.03"/>
<path d="M527.04 868.537H531.051L533.559 870.543L534.06 873.552L532.556 876.561L530.55 877.563H527.541L525.034 875.558L524.532 871.546L527.04 868.537Z" fill="#153243" fill-opacity="0.03"/>
<path d="M270.29 868.537H274.301L276.809 870.543L277.31 873.552L275.806 876.561L273.8 877.563H270.791L268.284 875.558L267.782 871.546L270.29 868.537Z" fill="#153243" fill-opacity="0.03"/>
<path d="M13.5396 868.537H17.5513L20.0586 870.543L20.5601 873.552L19.0557 876.561L17.0498 877.563H14.041L11.5337 875.558L11.0322 871.546L13.5396 868.537Z" fill="#153243" fill-opacity="0.03"/>
<path d="M913.167 816.886L916.678 817.388L918.684 819.394L919.185 821.901L918.182 824.408L916.678 825.913L913.669 826.414L911.162 824.91L909.657 822.904L910.159 818.892L911.663 817.388L913.167 816.886Z" fill="#153243" fill-opacity="0.03"/>
<path d="M656.417 816.886L659.928 817.388L661.934 819.394L662.435 821.901L661.432 824.408L659.928 825.913L656.919 826.414L654.412 824.91L652.907 822.904L653.409 818.892L654.913 817.388L656.417 816.886Z" fill="#153243" fill-opacity="0.03"/>
<path d="M399.667 816.886L403.178 817.388L405.184 819.394L405.685 821.901L404.682 824.408L403.178 825.913L400.169 826.414L397.662 824.91L396.157 822.904L396.659 818.892L398.163 817.388L399.667 816.886Z" fill="#153243" fill-opacity="0.03"/>
<path d="M142.917 816.886L146.428 817.388L148.434 819.394L148.935 821.901L147.932 824.408L146.428 825.913L143.419 826.414L140.912 824.91L139.407 822.904L139.909 818.892L141.413 817.388L142.917 816.886Z" fill="#153243" fill-opacity="0.03"/>
<path d="M964.818 714.086L967.827 714.587L969.833 716.593L970.334 720.104L968.83 722.611L966.824 723.614L963.314 723.112L961.308 721.106L960.807 718.599L961.81 716.092L963.314 714.587L964.818 714.086Z" fill="#153243" fill-opacity="0.03"/>
<path d="M708.068 714.086L711.077 714.587L713.083 716.593L713.584 720.104L712.08 722.611L710.074 723.614L706.564 723.112L704.558 721.106L704.057 718.599L705.06 716.092L706.564 714.587L708.068 714.086Z" fill="#153243" fill-opacity="0.03"/>
<path d="M451.318 714.086L454.327 714.587L456.333 716.593L456.834 720.104L455.33 722.611L453.324 723.614L449.814 723.112L447.808 721.106L447.307 718.599L448.31 716.092L449.814 714.587L451.318 714.086Z" fill="#153243" fill-opacity="0.03"/>
<path d="M194.568 714.086L197.577 714.587L199.583 716.593L200.084 720.104L198.58 722.611L196.574 723.614L193.064 723.112L191.058 721.106L190.557 718.599L191.56 716.092L193.064 714.587L194.568 714.086Z" fill="#153243" fill-opacity="0.03"/>
<path d="M912.165 611.787H916.176L918.684 613.793L919.185 616.802L917.681 619.811L915.675 620.813H912.666L910.159 618.808L909.657 614.796L912.165 611.787Z" fill="#153243" fill-opacity="0.03"/>
<path d="M655.415 611.787H659.426L661.934 613.793L662.435 616.802L660.931 619.811L658.925 620.813H655.916L653.409 618.808L652.907 614.796L655.415 611.787Z" fill="#153243" fill-opacity="0.03"/>
<path d="M398.665 611.787H402.676L405.184 613.793L405.685 616.802L404.181 619.811L402.175 620.813H399.166L396.659 618.808L396.157 614.796L398.665 611.787Z" fill="#153243" fill-opacity="0.03"/>
<path d="M141.915 611.787H145.926L148.434 613.793L148.935 616.802L147.431 619.811L145.425 620.813H142.416L139.909 618.808L139.407 614.796L141.915 611.787Z" fill="#153243" fill-opacity="0.03"/>
<path d="M938.742 560.136L942.252 560.638L944.258 562.644L944.76 566.154L942.252 569.163L939.745 569.664L937.238 568.661L935.733 567.157L935.232 564.148L936.736 561.139L938.742 560.136Z" fill="#153243" fill-opacity="0.03"/>
<path d="M784.792 560.136L788.303 560.638L790.309 562.644L790.81 565.151L789.807 567.658L788.303 569.163L785.294 569.664L782.787 568.16L781.282 566.154L781.784 562.142L783.288 560.638L784.792 560.136Z" fill="#153243" fill-opacity="0.03"/>
<path d="M681.992 560.136L685.502 560.638L687.508 562.644L688.01 566.154L685.502 569.163L682.995 569.664L680.488 568.661L678.983 567.157L678.482 564.148L679.986 561.139L681.992 560.136Z" fill="#153243" fill-opacity="0.03"/>
<path d="M528.042 560.136L531.553 560.638L533.559 562.644L534.06 565.151L533.057 567.658L531.553 569.163L528.544 569.664L526.037 568.16L524.532 566.154L525.034 562.142L526.538 560.638L528.042 560.136Z" fill="#153243" fill-opacity="0.03"/>
<path d="M425.242 560.136L428.752 560.638L430.758 562.644L431.26 566.154L428.752 569.163L426.245 569.664L423.738 568.661L422.233 567.157L421.732 564.148L423.236 561.139L425.242 560.136Z" fill="#153243" fill-opacity="0.03"/>
<path d="M271.292 560.136L274.803 560.638L276.809 562.644L277.31 565.151L276.307 567.658L274.803 569.163L271.794 569.664L269.287 568.16L267.782 566.154L268.284 562.142L269.788 560.638L271.292 560.136Z" fill="#153243" fill-opacity="0.03"/>
<path d="M168.492 560.136L172.002 560.638L174.008 562.644L174.51 566.154L172.002 569.163L169.495 569.664L166.988 568.661L165.483 567.157L164.982 564.148L166.486 561.139L168.492 560.136Z" fill="#153243" fill-opacity="0.03"/>
<path d="M14.5425 560.136L18.0527 560.638L20.0586 562.644L20.5601 565.151L19.5571 567.658L18.0527 569.163L15.0439 569.664L12.5366 568.16L11.0322 566.154L11.5337 562.142L13.0381 560.638L14.5425 560.136Z" fill="#153243" fill-opacity="0.03"/>
<path d="M836.443 457.336L839.452 457.837L841.458 459.843L841.959 463.354L840.455 465.861L838.449 466.864L834.939 466.362L832.933 464.356L832.432 461.849L833.435 459.342L834.939 457.837L836.443 457.336Z" fill="#153243" fill-opacity="0.03"/>
<path d="M579.693 457.336L582.702 457.837L584.708 459.843L585.209 463.354L583.705 465.861L581.699 466.864L578.189 466.362L576.183 464.356L575.682 461.849L576.685 459.342L578.189 457.837L579.693 457.336Z" fill="#153243" fill-opacity="0.03"/>
<path d="M322.943 457.336L325.952 457.837L327.958 459.843L328.459 463.354L326.955 465.861L324.949 466.864L321.439 466.362L319.433 464.356L318.932 461.849L319.935 459.342L321.439 457.837L322.943 457.336Z" fill="#153243" fill-opacity="0.03"/>
<path d="M66.1934 457.336L69.2021 457.837L71.208 459.843L71.7095 463.354L70.2051 465.861L68.1992 466.864L64.689 466.362L62.6831 464.356L62.1816 461.849L63.1846 459.342L64.689 457.837L66.1934 457.336Z" fill="#153243" fill-opacity="0.03"/>
<path d="M783.79 355.037H787.801L790.309 357.043L790.81 360.052L789.306 363.061L787.3 364.063H784.291L781.784 362.058L781.282 358.046L783.79 355.037Z" fill="#153243" fill-opacity="0.03"/>
<path d="M527.04 355.037H531.051L533.559 357.043L534.06 360.052L532.556 363.061L530.55 364.063H527.541L525.034 362.058L524.532 358.046L527.04 355.037Z" fill="#153243" fill-opacity="0.03"/>
<path d="M270.29 355.037H274.301L276.809 357.043L277.31 360.052L275.806 363.061L273.8 364.063H270.791L268.284 362.058L267.782 358.046L270.29 355.037Z" fill="#153243" fill-opacity="0.03"/>
<path d="M13.5396 355.037H17.5513L20.0586 357.043L20.5601 360.052L19.0557 363.061L17.0498 364.063H14.041L11.5337 362.058L11.0322 358.046L13.5396 355.037Z" fill="#153243" fill-opacity="0.03"/>
<path d="M913.167 303.386L916.678 303.888L918.684 305.894L919.185 308.401L918.182 310.908L916.678 312.413L913.669 312.914L911.162 311.41L909.657 309.404L910.159 305.392L911.663 303.888L913.167 303.386Z" fill="#153243" fill-opacity="0.03"/>
<path d="M656.417 303.386L659.928 303.888L661.934 305.894L662.435 308.401L661.432 310.908L659.928 312.413L656.919 312.914L654.412 311.41L652.907 309.404L653.409 305.392L654.913 303.888L656.417 303.386Z" fill="#153243" fill-opacity="0.03"/>
<path d="M399.667 303.386L403.178 303.888L405.184 305.894L405.685 308.401L404.682 310.908L403.178 312.413L400.169 312.914L397.662 311.41L396.157 309.404L396.659 305.392L398.163 303.888L399.667 303.386Z" fill="#153243" fill-opacity="0.03"/>
<path d="M142.917 303.386L146.428 303.888L148.434 305.894L148.935 308.401L147.932 310.908L146.428 312.413L143.419 312.914L140.912 311.41L139.407 309.404L139.909 305.392L141.413 303.888L142.917 303.386Z" fill="#153243" fill-opacity="0.03"/>
<path d="M964.818 200.586L967.827 201.087L969.833 203.093L970.334 206.604L968.83 209.111L966.824 210.114L963.314 209.612L961.308 207.606L960.807 205.099L961.81 202.592L963.314 201.087L964.818 200.586Z" fill="#153243" fill-opacity="0.03"/>
<path d="M708.068 200.586L711.077 201.087L713.083 203.093L713.584 206.604L712.08 209.111L710.074 210.114L706.564 209.612L704.558 207.606L704.057 205.099L705.06 202.592L706.564 201.087L708.068 200.586Z" fill="#153243" fill-opacity="0.03"/>
<path d="M451.318 200.586L454.327 201.087L456.333 203.093L456.834 206.604L455.33 209.111L453.324 210.114L449.814 209.612L447.808 207.606L447.307 205.099L448.31 202.592L449.814 201.087L451.318 200.586Z" fill="#153243" fill-opacity="0.03"/>
<path d="M194.568 200.586L197.577 201.087L199.583 203.093L200.084 206.604L198.58 209.111L196.574 210.114L193.064 209.612L191.058 207.606L190.557 205.099L191.56 202.592L193.064 201.087L194.568 200.586Z" fill="#153243" fill-opacity="0.03"/>
<path d="M912.165 98.2871H916.176L918.684 100.293L919.185 103.302L917.681 106.311L915.675 107.313H912.666L910.159 105.308L909.657 101.296L912.165 98.2871Z" fill="#153243" fill-opacity="0.03"/>
<path d="M655.415 98.2871H659.426L661.934 100.293L662.435 103.302L660.931 106.311L658.925 107.313H655.916L653.409 105.308L652.907 101.296L655.415 98.2871Z" fill="#153243" fill-opacity="0.03"/>
<path d="M398.665 98.2871H402.676L405.184 100.293L405.685 103.302L404.181 106.311L402.175 107.313H399.166L396.659 105.308L396.157 101.296L398.665 98.2871Z" fill="#153243" fill-opacity="0.03"/>
<path d="M141.915 98.2871H145.926L148.434 100.293L148.935 103.302L147.431 106.311L145.425 107.313H142.416L139.909 105.308L139.407 101.296L141.915 98.2871Z" fill="#153243" fill-opacity="0.03"/>
<path d="M938.742 46.6362L942.252 47.1377L944.258 49.1436L944.76 52.6538L942.252 55.6626L939.745 56.1641L937.238 55.1611L935.733 53.6567L935.232 50.6479L936.736 47.6392L938.742 46.6362Z" fill="#153243" fill-opacity="0.03"/>
<path d="M784.792 46.6362L788.303 47.1377L790.309 49.1436L790.81 51.6509L789.807 54.1582L788.303 55.6626L785.294 56.1641L782.787 54.6597L781.282 52.6538L781.784 48.6421L783.288 47.1377L784.792 46.6362Z" fill="#153243" fill-opacity="0.03"/>
<path d="M681.992 46.6362L685.502 47.1377L687.508 49.1436L688.01 52.6538L685.502 55.6626L682.995 56.1641L680.488 55.1611L678.983 53.6567L678.482 50.6479L679.986 47.6392L681.992 46.6362Z" fill="#153243" fill-opacity="0.03"/>
<path d="M528.042 46.6362L531.553 47.1377L533.559 49.1436L534.06 51.6509L533.057 54.1582L531.553 55.6626L528.544 56.1641L526.037 54.6597L524.532 52.6538L525.034 48.6421L526.538 47.1377L528.042 46.6362Z" fill="#153243" fill-opacity="0.03"/>
<path d="M425.242 46.6362L428.752 47.1377L430.758 49.1436L431.26 52.6538L428.752 55.6626L426.245 56.1641L423.738 55.1611L422.233 53.6567L421.732 50.6479L423.236 47.6392L425.242 46.6362Z" fill="#153243" fill-opacity="0.03"/>
<path d="M271.292 46.6362L274.803 47.1377L276.809 49.1436L277.31 51.6509L276.307 54.1582L274.803 55.6626L271.794 56.1641L269.287 54.6597L267.782 52.6538L268.284 48.6421L269.788 47.1377L271.292 46.6362Z" fill="#153243" fill-opacity="0.03"/>
<path d="M168.492 46.6362L172.002 47.1377L174.008 49.1436L174.51 52.6538L172.002 55.6626L169.495 56.1641L166.988 55.1611L165.483 53.6567L164.982 50.6479L166.486 47.6392L168.492 46.6362Z" fill="#153243" fill-opacity="0.03"/>
<path d="M14.5425 46.6362L18.0527 47.1377L20.0586 49.1436L20.5601 51.6509L19.5571 54.1582L18.0527 55.6626L15.0439 56.1641L12.5366 54.6597L11.0322 52.6538L11.5337 48.6421L13.0381 47.1377L14.5425 46.6362Z" fill="#153243" fill-opacity="0.03"/>
<path d="M784.792 970.836L788.303 971.337L790.309 973.343V977.856L788.303 979.862L784.792 980.364L782.285 978.859L781.282 976.854L781.784 973.343L783.79 971.337L784.792 970.836Z" fill="#153243" fill-opacity="0.03"/>
<path d="M528.042 970.836L531.553 971.337L533.559 973.343V977.856L531.553 979.862L528.042 980.364L525.535 978.859L524.532 976.854L525.034 973.343L527.04 971.337L528.042 970.836Z" fill="#153243" fill-opacity="0.03"/>
<path d="M271.292 970.836L274.803 971.337L276.809 973.343V977.856L274.803 979.862L271.292 980.364L268.785 978.859L267.782 976.854L268.284 973.343L270.29 971.337L271.292 970.836Z" fill="#153243" fill-opacity="0.03"/>
<path d="M14.5425 970.836L18.0527 971.337L20.0586 973.343V977.856L18.0527 979.862L14.5425 980.364L12.0352 978.859L11.0322 976.854L11.5337 973.343L13.5396 971.337L14.5425 970.836Z" fill="#153243" fill-opacity="0.03"/>
<path d="M861.517 919.687H864.525L867.033 921.692L867.534 922.695V926.206L865.027 928.713H861.015L858.508 926.206V922.194L860.514 920.188L861.517 919.687Z" fill="#153243" fill-opacity="0.03"/>
<path d="M604.767 919.687H607.775L610.283 921.692L610.784 922.695V926.206L608.277 928.713H604.265L601.758 926.206V922.194L603.764 920.188L604.767 919.687Z" fill="#153243" fill-opacity="0.03"/>
<path d="M348.017 919.687H351.025L353.533 921.692L354.034 922.695V926.206L351.527 928.713H347.515L345.008 926.206V922.194L347.014 920.188L348.017 919.687Z" fill="#153243" fill-opacity="0.03"/>
<path d="M91.2666 919.687H94.2754L96.7827 921.692L97.2842 922.695V926.206L94.7769 928.713H90.7651L88.2578 926.206V922.194L90.2637 920.188L91.2666 919.687Z" fill="#153243" fill-opacity="0.03"/>
<path d="M989.39 868.537H993.402L995.909 871.044V874.555L993.903 877.062L992.9 877.563H989.892L987.384 875.558L986.883 874.555V871.044L989.39 868.537Z" fill="#153243" fill-opacity="0.03"/>
<path d="M937.739 868.537H942.252L944.258 870.543L944.76 874.053L943.255 876.561L941.25 877.563L937.739 877.062L935.733 875.056L935.232 872.047L936.736 869.54L937.739 868.537Z" fill="#153243" fill-opacity="0.03"/>
<path d="M886.59 868.537H890.602L893.109 871.044V875.056L890.1 877.563H887.091L884.584 875.558L884.083 874.555V871.044L886.59 868.537Z" fill="#153243" fill-opacity="0.03"/>
<path d="M732.64 868.537H736.652L739.159 871.044V874.555L737.153 877.062L736.15 877.563H733.142L730.634 875.558L730.133 874.555V871.044L732.64 868.537Z" fill="#153243" fill-opacity="0.03"/>
<path d="M680.989 868.537H685.502L687.508 870.543L688.01 874.053L686.505 876.561L684.5 877.563L680.989 877.062L678.983 875.056L678.482 872.047L679.986 869.54L680.989 868.537Z" fill="#153243" fill-opacity="0.03"/>
<path d="M629.84 868.537H633.852L636.359 871.044V875.056L633.35 877.563H630.341L627.834 875.558L627.333 874.555V871.044L629.84 868.537Z" fill="#153243" fill-opacity="0.03"/>
<path d="M475.89 868.537H479.902L482.409 871.044V874.555L480.403 877.062L479.4 877.563H476.392L473.884 875.558L473.383 874.555V871.044L475.89 868.537Z" fill="#153243" fill-opacity="0.03"/>
<path d="M424.239 868.537H428.752L430.758 870.543L431.26 874.053L429.755 876.561L427.75 877.563L424.239 877.062L422.233 875.056L421.732 872.047L423.236 869.54L424.239 868.537Z" fill="#153243" fill-opacity="0.03"/>
<path d="M373.09 868.537H377.102L379.609 871.044V875.056L376.6 877.563H373.591L371.084 875.558L370.583 874.555V871.044L373.09 868.537Z" fill="#153243" fill-opacity="0.03"/>
<path d="M219.14 868.537H223.152L225.659 871.044V874.555L223.653 877.062L222.65 877.563H219.642L217.134 875.558L216.633 874.555V871.044L219.14 868.537Z" fill="#153243" fill-opacity="0.03"/>
<path d="M167.489 868.537H172.002L174.008 870.543L174.51 874.053L173.005 876.561L171 877.563L167.489 877.062L165.483 875.056L164.982 872.047L166.486 869.54L167.489 868.537Z" fill="#153243" fill-opacity="0.03"/>
<path d="M116.34 868.537H120.352L122.859 871.044V875.056L119.85 877.563H116.841L114.334 875.558L113.833 874.555V871.044L116.34 868.537Z" fill="#153243" fill-opacity="0.03"/>
<path d="M886.59 765.737H890.602L893.109 768.244V772.256L890.602 774.763H887.091L884.584 772.757L884.083 771.754V768.746L885.085 766.74L886.59 765.737Z" fill="#153243" fill-opacity="0.03"/>
<path d="M629.84 765.737H633.852L636.359 768.244V772.256L633.852 774.763H630.341L627.834 772.757L627.333 771.754V768.746L628.335 766.74L629.84 765.737Z" fill="#153243" fill-opacity="0.03"/>
<path d="M373.09 765.737H377.102L379.609 768.244V772.256L377.102 774.763H373.591L371.084 772.757L370.583 771.754V768.746L371.585 766.74L373.09 765.737Z" fill="#153243" fill-opacity="0.03"/>
<path d="M116.34 765.737H120.352L122.859 768.244V772.256L120.352 774.763H116.841L114.334 772.757L113.833 771.754V768.746L114.835 766.74L116.34 765.737Z" fill="#153243" fill-opacity="0.03"/>
<path d="M913.167 714.086L916.678 714.587L918.684 716.593V721.106L916.678 723.112L913.167 723.614L910.66 722.109L909.657 720.104L910.159 716.593L912.165 714.587L913.167 714.086Z" fill="#153243" fill-opacity="0.03"/>
<path d="M656.417 714.086L659.928 714.587L661.934 716.593V721.106L659.928 723.112L656.417 723.614L653.91 722.109L652.907 720.104L653.409 716.593L655.415 714.587L656.417 714.086Z" fill="#153243" fill-opacity="0.03"/>
<path d="M399.667 714.086L403.178 714.587L405.184 716.593V721.106L403.178 723.112L399.667 723.614L397.16 722.109L396.157 720.104L396.659 716.593L398.665 714.587L399.667 714.086Z" fill="#153243" fill-opacity="0.03"/>
<path d="M142.917 714.086L146.428 714.587L148.434 716.593V721.106L146.428 723.112L142.917 723.614L140.41 722.109L139.407 720.104L139.909 716.593L141.915 714.587L142.917 714.086Z" fill="#153243" fill-opacity="0.03"/>
<path d="M989.892 662.937H992.9L995.408 664.942L995.909 665.945V669.456L993.402 671.963H989.39L986.883 669.456V665.444L988.889 663.438L989.892 662.937Z" fill="#153243" fill-opacity="0.03"/>
<path d="M733.142 662.937H736.15L738.658 664.942L739.159 665.945V669.456L736.652 671.963H732.64L730.133 669.456V665.444L732.139 663.438L733.142 662.937Z" fill="#153243" fill-opacity="0.03"/>
<path d="M476.392 662.937H479.4L481.908 664.942L482.409 665.945V669.456L479.902 671.963H475.89L473.383 669.456V665.444L475.389 663.438L476.392 662.937Z" fill="#153243" fill-opacity="0.03"/>
<path d="M219.642 662.937H222.65L225.158 664.942L225.659 665.945V669.456L223.152 671.963H219.14L216.633 669.456V665.444L218.639 663.438L219.642 662.937Z" fill="#153243" fill-opacity="0.03"/>
<path d="M1014.96 611.787H1018.98L1021.48 614.294V618.306L1018.48 620.813H1015.47L1012.96 618.808L1012.46 617.805V614.294L1014.96 611.787Z" fill="#153243" fill-opacity="0.03"/>
<path d="M861.015 611.787H865.027L867.534 614.294V617.805L865.528 620.312L864.525 620.813H861.517L859.009 618.808L858.508 617.805V614.294L861.015 611.787Z" fill="#153243" fill-opacity="0.03"/>
<path d="M809.364 611.787H813.877L815.883 613.793L816.385 617.303L814.88 619.811L812.875 620.813L809.364 620.312L807.358 618.306L806.857 615.297L808.361 612.79L809.364 611.787Z" fill="#153243" fill-opacity="0.03"/>
<path d="M758.215 611.787H762.227L764.734 614.294V618.306L761.725 620.813H758.716L756.209 618.808L755.708 617.805V614.294L758.215 611.787Z" fill="#153243" fill-opacity="0.03"/>
<path d="M604.265 611.787H608.277L610.784 614.294V617.805L608.778 620.312L607.775 620.813H604.767L602.259 618.808L601.758 617.805V614.294L604.265 611.787Z" fill="#153243" fill-opacity="0.03"/>
<path d="M552.614 611.787H557.127L559.133 613.793L559.635 617.303L558.13 619.811L556.125 620.813L552.614 620.312L550.608 618.306L550.107 615.297L551.611 612.79L552.614 611.787Z" fill="#153243" fill-opacity="0.03"/>
<path d="M501.465 611.787H505.477L507.984 614.294V618.306L504.975 620.813H501.966L499.459 618.808L498.958 617.805V614.294L501.465 611.787Z" fill="#153243" fill-opacity="0.03"/>
<path d="M347.515 611.787H351.527L354.034 614.294V617.805L352.028 620.312L351.025 620.813H348.017L345.509 618.808L345.008 617.805V614.294L347.515 611.787Z" fill="#153243" fill-opacity="0.03"/>
<path d="M295.864 611.787H300.377L302.383 613.793L302.885 617.303L301.38 619.811L299.375 620.813L295.864 620.312L293.858 618.306L293.357 615.297L294.861 612.79L295.864 611.787Z" fill="#153243" fill-opacity="0.03"/>
<path d="M244.715 611.787H248.727L251.234 614.294V618.306L248.225 620.813H245.216L242.709 618.808L242.208 617.805V614.294L244.715 611.787Z" fill="#153243" fill-opacity="0.03"/>
<path d="M90.7651 611.787H94.7769L97.2842 614.294V617.805L95.2783 620.312L94.2754 620.813H91.2666L88.7593 618.808L88.2578 617.805V614.294L90.7651 611.787Z" fill="#153243" fill-opacity="0.03"/>
<path d="M39.1143 611.787H43.6274L45.6333 613.793L46.1348 617.303L44.6304 619.811L42.6245 620.813L39.1143 620.312L37.1084 618.306L36.6069 615.297L38.1113 612.79L39.1143 611.787Z" fill="#153243" fill-opacity="0.03"/>
<path d="M1014.96 508.987H1018.98L1021.48 511.494V515.506L1018.98 518.013H1015.47L1012.96 516.007L1012.46 515.004V511.996L1013.46 509.99L1014.96 508.987Z" fill="#153243" fill-opacity="0.03"/>
<path d="M758.215 508.987H762.227L764.734 511.494V515.506L762.227 518.013H758.716L756.209 516.007L755.708 515.004V511.996L756.71 509.99L758.215 508.987Z" fill="#153243" fill-opacity="0.03"/>
<path d="M501.465 508.987H505.477L507.984 511.494V515.506L505.477 518.013H501.966L499.459 516.007L498.958 515.004V511.996L499.96 509.99L501.465 508.987Z" fill="#153243" fill-opacity="0.03"/>
<path d="M244.715 508.987H248.727L251.234 511.494V515.506L248.727 518.013H245.216L242.709 516.007L242.208 515.004V511.996L243.21 509.99L244.715 508.987Z" fill="#153243" fill-opacity="0.03"/>
<path d="M784.792 457.336L788.303 457.837L790.309 459.843V464.356L788.303 466.362L784.792 466.864L782.285 465.359L781.282 463.354L781.784 459.843L783.79 457.837L784.792 457.336Z" fill="#153243" fill-opacity="0.03"/>
<path d="M528.042 457.336L531.553 457.837L533.559 459.843V464.356L531.553 466.362L528.042 466.864L525.535 465.359L524.532 463.354L525.034 459.843L527.04 457.837L528.042 457.336Z" fill="#153243" fill-opacity="0.03"/>
<path d="M271.292 457.336L274.803 457.837L276.809 459.843V464.356L274.803 466.362L271.292 466.864L268.785 465.359L267.782 463.354L268.284 459.843L270.29 457.837L271.292 457.336Z" fill="#153243" fill-opacity="0.03"/>
<path d="M14.5425 457.336L18.0527 457.837L20.0586 459.843V464.356L18.0527 466.362L14.5425 466.864L12.0352 465.359L11.0322 463.354L11.5337 459.843L13.5396 457.837L14.5425 457.336Z" fill="#153243" fill-opacity="0.03"/>
<path d="M861.517 406.187H864.525L867.033 408.192L867.534 409.195V412.706L865.027 415.213H861.015L858.508 412.706V408.694L860.514 406.688L861.517 406.187Z" fill="#153243" fill-opacity="0.03"/>
<path d="M604.767 406.187H607.775L610.283 408.192L610.784 409.195V412.706L608.277 415.213H604.265L601.758 412.706V408.694L603.764 406.688L604.767 406.187Z" fill="#153243" fill-opacity="0.03"/>
<path d="M348.017 406.187H351.025L353.533 408.192L354.034 409.195V412.706L351.527 415.213H347.515L345.008 412.706V408.694L347.014 406.688L348.017 406.187Z" fill="#153243" fill-opacity="0.03"/>
<path d="M91.2666 406.187H94.2754L96.7827 408.192L97.2842 409.195V412.706L94.7769 415.213H90.7651L88.2578 412.706V408.694L90.2637 406.688L91.2666 406.187Z" fill="#153243" fill-opacity="0.03"/>
<path d="M989.39 355.037H993.402L995.909 357.544V361.055L993.903 363.562L992.9 364.063H989.892L987.384 362.058L986.883 361.055V357.544L989.39 355.037Z" fill="#153243" fill-opacity="0.03"/>
<path d="M937.739 355.037H942.252L944.258 357.043L944.76 360.553L943.255 363.061L941.25 364.063L937.739 363.562L935.733 361.556L935.232 358.547L936.736 356.04L937.739 355.037Z" fill="#153243" fill-opacity="0.03"/>
<path d="M886.59 355.037H890.602L893.109 357.544V361.556L890.1 364.063H887.091L884.584 362.058L884.083 361.055V357.544L886.59 355.037Z" fill="#153243" fill-opacity="0.03"/>
<path d="M732.64 355.037H736.652L739.159 357.544V361.055L737.153 363.562L736.15 364.063H733.142L730.634 362.058L730.133 361.055V357.544L732.64 355.037Z" fill="#153243" fill-opacity="0.03"/>
<path d="M680.989 355.037H685.502L687.508 357.043L688.01 360.553L686.505 363.061L684.5 364.063L680.989 363.562L678.983 361.556L678.482 358.547L679.986 356.04L680.989 355.037Z" fill="#153243" fill-opacity="0.03"/>
<path d="M629.84 355.037H633.852L636.359 357.544V361.556L633.35 364.063H630.341L627.834 362.058L627.333 361.055V357.544L629.84 355.037Z" fill="#153243" fill-opacity="0.03"/>
<path d="M475.89 355.037H479.902L482.409 357.544V361.055L480.403 363.562L479.4 364.063H476.392L473.884 362.058L473.383 361.055V357.544L475.89 355.037Z" fill="#153243" fill-opacity="0.03"/>
<path d="M424.239 355.037H428.752L430.758 357.043L431.26 360.553L429.755 363.061L427.75 364.063L424.239 363.562L422.233 361.556L421.732 358.547L423.236 356.04L424.239 355.037Z" fill="#153243" fill-opacity="0.03"/>
<path d="M373.09 355.037H377.102L379.609 357.544V361.556L376.6 364.063H373.591L371.084 362.058L370.583 361.055V357.544L373.09 355.037Z" fill="#153243" fill-opacity="0.03"/>
<path d="M219.14 355.037H223.152L225.659 357.544V361.055L223.653 363.562L222.65 364.063H219.642L217.134 362.058L216.633 361.055V357.544L219.14 355.037Z" fill="#153243" fill-opacity="0.03"/>
<path d="M167.489 355.037H172.002L174.008 357.043L174.51 360.553L173.005 363.061L171 364.063L167.489 363.562L165.483 361.556L164.982 358.547L166.486 356.04L167.489 355.037Z" fill="#153243" fill-opacity="0.03"/>
<path d="M116.34 355.037H120.352L122.859 357.544V361.556L119.85 364.063H116.841L114.334 362.058L113.833 361.055V357.544L116.34 355.037Z" fill="#153243" fill-opacity="0.03"/>
<path d="M886.59 252.237H890.602L893.109 254.744V258.756L890.602 261.263H887.091L884.584 259.257L884.083 258.254V255.246L885.085 253.24L886.59 252.237Z" fill="#153243" fill-opacity="0.03"/>
<path d="M629.84 252.237H633.852L636.359 254.744V258.756L633.852 261.263H630.341L627.834 259.257L627.333 258.254V255.246L628.335 253.24L629.84 252.237Z" fill="#153243" fill-opacity="0.03"/>
<path d="M373.09 252.237H377.102L379.609 254.744V258.756L377.102 261.263H373.591L371.084 259.257L370.583 258.254V255.246L371.585 253.24L373.09 252.237Z" fill="#153243" fill-opacity="0.03"/>
<path d="M116.34 252.237H120.352L122.859 254.744V258.756L120.352 261.263H116.841L114.334 259.257L113.833 258.254V255.246L114.835 253.24L116.34 252.237Z" fill="#153243" fill-opacity="0.03"/>
<path d="M913.167 200.586L916.678 201.087L918.684 203.093V207.606L916.678 209.612L913.167 210.114L910.66 208.609L909.657 206.604L910.159 203.093L912.165 201.087L913.167 200.586Z" fill="#153243" fill-opacity="0.03"/>
<path d="M656.417 200.586L659.928 201.087L661.934 203.093V207.606L659.928 209.612L656.417 210.114L653.91 208.609L652.907 206.604L653.409 203.093L655.415 201.087L656.417 200.586Z" fill="#153243" fill-opacity="0.03"/>
<path d="M399.667 200.586L403.178 201.087L405.184 203.093V207.606L403.178 209.612L399.667 210.114L397.16 208.609L396.157 206.604L396.659 203.093L398.665 201.087L399.667 200.586Z" fill="#153243" fill-opacity="0.03"/>
<path d="M142.917 200.586L146.428 201.087L148.434 203.093V207.606L146.428 209.612L142.917 210.114L140.41 208.609L139.407 206.604L139.909 203.093L141.915 201.087L142.917 200.586Z" fill="#153243" fill-opacity="0.03"/>
<path d="M989.892 149.437H992.9L995.408 151.442L995.909 152.445V155.956L993.402 158.463H989.39L986.883 155.956V151.944L988.889 149.938L989.892 149.437Z" fill="#153243" fill-opacity="0.03"/>
<path d="M733.142 149.437H736.15L738.658 151.442L739.159 152.445V155.956L736.652 158.463H732.64L730.133 155.956V151.944L732.139 149.938L733.142 149.437Z" fill="#153243" fill-opacity="0.03"/>
<path d="M476.392 149.437H479.4L481.908 151.442L482.409 152.445V155.956L479.902 158.463H475.89L473.383 155.956V151.944L475.389 149.938L476.392 149.437Z" fill="#153243" fill-opacity="0.03"/>
<path d="M219.642 149.437H222.65L225.158 151.442L225.659 152.445V155.956L223.152 158.463H219.14L216.633 155.956V151.944L218.639 149.938L219.642 149.437Z" fill="#153243" fill-opacity="0.03"/>
<path d="M1014.96 98.2871H1018.98L1021.48 100.794V104.806L1018.48 107.313H1015.47L1012.96 105.308L1012.46 104.305V100.794L1014.96 98.2871Z" fill="#153243" fill-opacity="0.03"/>
<path d="M861.015 98.2871H865.027L867.534 100.794V104.305L865.528 106.812L864.525 107.313H861.517L859.009 105.308L858.508 104.305V100.794L861.015 98.2871Z" fill="#153243" fill-opacity="0.03"/>
<path d="M809.364 98.2871H813.877L815.883 100.293L816.385 103.803L814.88 106.311L812.875 107.313L809.364 106.812L807.358 104.806L806.857 101.797L808.361 99.29L809.364 98.2871Z" fill="#153243" fill-opacity="0.03"/>
<path d="M758.215 98.2871H762.227L764.734 100.794V104.806L761.725 107.313H758.716L756.209 105.308L755.708 104.305V100.794L758.215 98.2871Z" fill="#153243" fill-opacity="0.03"/>
<path d="M604.265 98.2871H608.277L610.784 100.794V104.305L608.778 106.812L607.775 107.313H604.767L602.259 105.308L601.758 104.305V100.794L604.265 98.2871Z" fill="#153243" fill-opacity="0.03"/>
<path d="M552.614 98.2871H557.127L559.133 100.293L559.635 103.803L558.13 106.311L556.125 107.313L552.614 106.812L550.608 104.806L550.107 101.797L551.611 99.29L552.614 98.2871Z" fill="#153243" fill-opacity="0.03"/>
<path d="M501.465 98.2871H505.477L507.984 100.794V104.806L504.975 107.313H501.966L499.459 105.308L498.958 104.305V100.794L501.465 98.2871Z" fill="#153243" fill-opacity="0.03"/>
<path d="M347.515 98.2871H351.527L354.034 100.794V104.305L352.028 106.812L351.025 107.313H348.017L345.509 105.308L345.008 104.305V100.794L347.515 98.2871Z" fill="#153243" fill-opacity="0.03"/>
<path d="M295.864 98.2871H300.377L302.383 100.293L302.885 103.803L301.38 106.311L299.375 107.313L295.864 106.812L293.858 104.806L293.357 101.797L294.861 99.29L295.864 98.2871Z" fill="#153243" fill-opacity="0.03"/>
<path d="M244.715 98.2871H248.727L251.234 100.794V104.806L248.225 107.313H245.216L242.709 105.308L242.208 104.305V100.794L244.715 98.2871Z" fill="#153243" fill-opacity="0.03"/>
<path d="M90.7651 98.2871H94.7769L97.2842 100.794V104.305L95.2783 106.812L94.2754 107.313H91.2666L88.7593 105.308L88.2578 104.305V100.794L90.7651 98.2871Z" fill="#153243" fill-opacity="0.03"/>
<path d="M39.1143 98.2871H43.6274L45.6333 100.293L46.1348 103.803L44.6304 106.311L42.6245 107.313L39.1143 106.812L37.1084 104.806L36.6069 101.797L38.1113 99.29L39.1143 98.2871Z" fill="#153243" fill-opacity="0.03"/>
<path d="M1015.47 919.687H1018.48L1020.48 920.689L1021.48 922.194V926.206L1018.98 928.713H1014.96L1012.96 926.707L1012.46 925.704V922.695L1014.46 920.188L1015.47 919.687Z" fill="#153243" fill-opacity="0.03"/>
<path d="M835.44 868.537H839.452L841.458 870.543L841.959 871.546V874.555L839.954 877.062L838.951 877.563H835.942L832.933 875.056L832.432 872.549L833.936 869.54L835.44 868.537Z" fill="#153243" fill-opacity="0.03"/>
<path d="M578.69 868.537H582.702L584.708 870.543L585.209 871.546V874.555L583.204 877.062L582.201 877.563H579.192L576.183 875.056L575.682 872.549L577.186 869.54L578.69 868.537Z" fill="#153243" fill-opacity="0.03"/>
<path d="M321.94 868.537H325.952L327.958 870.543L328.459 871.546V874.555L326.454 877.062L325.451 877.563H322.442L319.433 875.056L318.932 872.549L320.436 869.54L321.94 868.537Z" fill="#153243" fill-opacity="0.03"/>
<path d="M65.1904 868.537H69.2021L71.208 870.543L71.7095 871.546V874.555L69.7036 877.062L68.7007 877.563H65.6919L62.6831 875.056L62.1816 872.549L63.686 869.54L65.1904 868.537Z" fill="#153243" fill-opacity="0.03"/>
<path d="M887.091 662.937H890.1L892.106 663.939L893.109 665.444V669.456L890.602 671.963H886.59L884.584 669.957L884.083 668.954V665.945L886.088 663.438L887.091 662.937Z" fill="#153243" fill-opacity="0.03"/>
<path d="M963.815 611.787H967.827L969.833 613.793L970.334 614.796V617.805L968.329 620.312L967.326 620.813H964.317L961.308 618.306L960.807 615.799L962.311 612.79L963.815 611.787Z" fill="#153243" fill-opacity="0.03"/>
<path d="M707.065 611.787H711.077L713.083 613.793L713.584 614.796V617.805L711.579 620.312L710.576 620.813H707.567L704.558 618.306L704.057 615.799L705.561 612.79L707.065 611.787Z" fill="#153243" fill-opacity="0.03"/>
<path d="M450.315 611.787H454.327L456.333 613.793L456.834 614.796V617.805L454.829 620.312L453.826 620.813H450.817L447.808 618.306L447.307 615.799L448.811 612.79L450.315 611.787Z" fill="#153243" fill-opacity="0.03"/>
<path d="M193.565 611.787H197.577L199.583 613.793L200.084 614.796V617.805L198.079 620.312L197.076 620.813H194.067L191.058 618.306L190.557 615.799L192.061 612.79L193.565 611.787Z" fill="#153243" fill-opacity="0.03"/>
<path d="M861.015 508.987H865.027L867.534 511.494V515.004L865.528 517.512L864.525 518.013H861.517L858.508 515.506V511.494L861.015 508.987Z" fill="#153243" fill-opacity="0.03"/>
<path d="M604.265 508.987H608.277L610.784 511.494V515.004L608.778 517.512L607.775 518.013H604.767L601.758 515.506V511.494L604.265 508.987Z" fill="#153243" fill-opacity="0.03"/>
<path d="M347.515 508.987H351.527L354.034 511.494V515.004L352.028 517.512L351.025 518.013H348.017L345.008 515.506V511.494L347.515 508.987Z" fill="#153243" fill-opacity="0.03"/>
<path d="M90.7651 508.987H94.7769L97.2842 511.494V515.004L95.2783 517.512L94.2754 518.013H91.2666L88.2578 515.506V511.494L90.7651 508.987Z" fill="#153243" fill-opacity="0.03"/>
<path d="M1015.47 406.187H1018.48L1020.48 407.189L1021.48 408.694V412.706L1018.98 415.213H1014.96L1012.96 413.207L1012.46 412.204V409.195L1014.46 406.688L1015.47 406.187Z" fill="#153243" fill-opacity="0.03"/>
<path d="M758.716 406.187H761.725L763.731 407.189L764.734 408.694V412.706L762.227 415.213H758.215L756.209 413.207L755.708 412.204V409.195L757.713 406.688L758.716 406.187Z" fill="#153243" fill-opacity="0.03"/>
<path d="M501.465 406.187H504.474L506.479 407.189L507.482 408.694V412.706L504.975 415.213H500.963L498.958 413.207L498.456 412.204V409.195L500.462 406.688L501.465 406.187Z" fill="#153243" fill-opacity="0.03"/>
<path d="M245.216 406.187H248.225L250.231 407.189L251.234 408.694V412.706L248.727 415.213H244.715L242.709 413.207L242.208 412.204V409.195L244.213 406.688L245.216 406.187Z" fill="#153243" fill-opacity="0.03"/>
<path d="M835.44 355.037H839.452L841.458 357.043L841.959 358.046V361.055L839.954 363.562L838.951 364.063H835.942L832.933 361.556L832.432 359.049L833.936 356.04L835.44 355.037Z" fill="#153243" fill-opacity="0.03"/>
<path d="M578.69 355.037H582.702L584.708 357.043L585.209 358.046V361.055L583.204 363.562L582.201 364.063H579.192L576.183 361.556L575.682 359.049L577.186 356.04L578.69 355.037Z" fill="#153243" fill-opacity="0.03"/>
<path d="M321.94 355.037H325.952L327.958 357.043L328.459 358.046V361.055L326.454 363.562L325.451 364.063H322.442L319.433 361.556L318.932 359.049L320.436 356.04L321.94 355.037Z" fill="#153243" fill-opacity="0.03"/>
<path d="M65.1904 355.037H69.2021L71.208 357.043L71.7095 358.046V361.055L69.7036 363.562L68.7007 364.063H65.6919L62.6831 361.556L62.1816 359.049L63.686 356.04L65.1904 355.037Z" fill="#153243" fill-opacity="0.03"/>
<path d="M963.815 98.2871H967.827L969.833 100.293L970.334 101.296V104.305L968.329 106.812L967.326 107.313H964.317L961.308 104.806L960.807 102.299L962.311 99.29L963.815 98.2871Z" fill="#153243" fill-opacity="0.03"/>
<path d="M707.065 98.2871H711.077L713.083 100.293L713.584 101.296V104.305L711.579 106.812L710.576 107.313H707.567L704.558 104.806L704.057 102.299L705.561 99.29L707.065 98.2871Z" fill="#153243" fill-opacity="0.03"/>
<path d="M450.315 98.2871H454.327L456.333 100.293L456.834 101.296V104.305L454.829 106.812L453.826 107.313H450.817L447.808 104.806L447.307 102.299L448.811 99.29L450.315 98.2871Z" fill="#153243" fill-opacity="0.03"/>
<path d="M193.565 98.2871H197.577L199.583 100.293L200.084 101.296V104.305L198.079 106.812L197.076 107.313H194.067L191.058 104.806L190.557 102.299L192.061 99.29L193.565 98.2871Z" fill="#153243" fill-opacity="0.03"/>
<path d="M758.716 919.687H761.725L763.731 920.689L764.734 922.194V926.206L762.227 928.713H758.215L755.708 925.704V922.695L757.713 920.188L758.716 919.687Z" fill="#153243" fill-opacity="0.03"/>
<path d="M501.465 919.687H504.474L506.479 920.689L507.482 922.194V926.206L504.975 928.713H500.963L498.456 925.704V922.695L500.462 920.188L501.465 919.687Z" fill="#153243" fill-opacity="0.03"/>
<path d="M245.216 919.687H248.225L250.231 920.689L251.234 922.194V926.206L248.727 928.713H244.715L242.208 925.704V922.695L244.213 920.188L245.216 919.687Z" fill="#153243" fill-opacity="0.03"/>
<path d="M989.39 765.737H993.402L995.408 767.743L995.909 768.746V771.754L993.903 774.262L992.9 774.763H989.892L986.883 772.256V768.244L989.39 765.737Z" fill="#153243" fill-opacity="0.03"/>
<path d="M732.64 765.737H736.652L738.658 767.743L739.159 768.746V771.754L737.153 774.262L736.15 774.763H733.142L730.133 772.256V768.244L732.64 765.737Z" fill="#153243" fill-opacity="0.03"/>
<path d="M475.89 765.737H479.902L481.908 767.743L482.409 768.746V771.754L480.403 774.262L479.4 774.763H476.392L473.383 772.256V768.244L475.89 765.737Z" fill="#153243" fill-opacity="0.03"/>
<path d="M219.14 765.737H223.152L225.158 767.743L225.659 768.746V771.754L223.653 774.262L222.65 774.763H219.642L216.633 772.256V768.244L219.14 765.737Z" fill="#153243" fill-opacity="0.03"/>
<path d="M630.341 662.937H633.35L635.356 663.939L636.359 665.444V669.456L633.852 671.963H629.84L627.333 668.954V665.945L629.338 663.438L630.341 662.937Z" fill="#153243" fill-opacity="0.03"/>
<path d="M373.591 662.937H376.6L378.606 663.939L379.609 665.444V669.456L377.102 671.963H373.09L370.583 668.954V665.945L372.588 663.438L373.591 662.937Z" fill="#153243" fill-opacity="0.03"/>
<path d="M116.841 662.937H119.85L121.856 663.939L122.859 665.444V669.456L120.352 671.963H116.34L113.833 668.954V665.945L115.838 663.438L116.841 662.937Z" fill="#153243" fill-opacity="0.03"/>
<path d="M989.39 252.237H993.402L995.408 254.243L995.909 255.246V258.254L993.903 260.762L992.9 261.263H989.892L986.883 258.756V254.744L989.39 252.237Z" fill="#153243" fill-opacity="0.03"/>
<path d="M732.64 252.237H736.652L738.658 254.243L739.159 255.246V258.254L737.153 260.762L736.15 261.263H733.142L730.133 258.756V254.744L732.64 252.237Z" fill="#153243" fill-opacity="0.03"/>
<path d="M475.89 252.237H479.902L481.908 254.243L482.409 255.246V258.254L480.403 260.762L479.4 261.263H476.392L473.383 258.756V254.744L475.89 252.237Z" fill="#153243" fill-opacity="0.03"/>
<path d="M219.14 252.237H223.152L225.158 254.243L225.659 255.246V258.254L223.653 260.762L222.65 261.263H219.642L216.633 258.756V254.744L219.14 252.237Z" fill="#153243" fill-opacity="0.03"/>
<path d="M887.091 149.437H890.1L892.106 150.439L893.109 151.944V155.956L890.602 158.463H886.59L884.083 155.454V152.445L886.088 149.938L887.091 149.437Z" fill="#153243" fill-opacity="0.03"/>
<path d="M630.341 149.437H633.35L635.356 150.439L636.359 151.944V155.956L633.852 158.463H629.84L627.333 155.454V152.445L629.338 149.938L630.341 149.437Z" fill="#153243" fill-opacity="0.03"/>
<path d="M373.591 149.437H376.6L378.606 150.439L379.609 151.944V155.956L377.102 158.463H373.09L370.583 155.454V152.445L372.588 149.938L373.591 149.437Z" fill="#153243" fill-opacity="0.03"/>
<path d="M116.841 149.437H119.85L121.856 150.439L122.859 151.944V155.956L120.352 158.463H116.34L113.833 155.454V152.445L115.838 149.938L116.841 149.437Z" fill="#153243" fill-opacity="0.03"/>
<path d="M861.015 1022.49H865.027L867.534 1024.99V1027H858.508L859.009 1023.99L861.015 1022.49Z" fill="#153243" fill-opacity="0.03"/>
<path d="M604.265 1022.49H608.277L610.784 1024.99V1027H601.758L602.259 1023.99L604.265 1022.49Z" fill="#153243" fill-opacity="0.03"/>
<path d="M347.515 1022.49H351.527L354.034 1024.99V1027H345.008L345.509 1023.99L347.515 1022.49Z" fill="#153243" fill-opacity="0.03"/>
<path d="M90.7651 1022.49H94.7769L97.2842 1024.99V1027H88.2578L88.7593 1023.99L90.7651 1022.49Z" fill="#153243" fill-opacity="0.03"/>
<path d="M1014.96 1022.49H1018.98L1021.48 1024.99V1027H1012.46L1012.96 1024.49L1014.96 1022.49Z" fill="#153243" fill-opacity="0.03"/>
<path d="M963.815 1022.49H967.827L970.334 1025.5V1027H960.807L962.311 1023.49L963.815 1022.49Z" fill="#153243" fill-opacity="0.03"/>
<path d="M809.866 1022.49H813.376L815.883 1024.49L816.385 1027H806.857L807.86 1023.99L809.866 1022.49Z" fill="#153243" fill-opacity="0.03"/>
<path d="M758.215 1022.49H762.227L764.734 1024.99V1027H755.708L756.209 1024.49L758.215 1022.49Z" fill="#153243" fill-opacity="0.03"/>
<path d="M707.065 1022.49H711.077L713.584 1025.5V1027H704.057L705.561 1023.49L707.065 1022.49Z" fill="#153243" fill-opacity="0.03"/>
<path d="M553.116 1022.49H556.626L559.133 1024.49L559.635 1027H550.107L551.11 1023.99L553.116 1022.49Z" fill="#153243" fill-opacity="0.03"/>
<path d="M501.465 1022.49H505.477L507.984 1024.99V1027H498.958L499.459 1024.49L501.465 1022.49Z" fill="#153243" fill-opacity="0.03"/>
<path d="M450.315 1022.49H454.327L456.834 1025.5V1027H447.307L448.811 1023.49L450.315 1022.49Z" fill="#153243" fill-opacity="0.03"/>
<path d="M296.366 1022.49H299.876L302.383 1024.49L302.885 1027H293.357L294.36 1023.99L296.366 1022.49Z" fill="#153243" fill-opacity="0.03"/>
<path d="M244.715 1022.49H248.727L251.234 1024.99V1027H242.208L242.709 1024.49L244.715 1022.49Z" fill="#153243" fill-opacity="0.03"/>
<path d="M193.565 1022.49H197.577L200.084 1025.5V1027H190.557L192.061 1023.49L193.565 1022.49Z" fill="#153243" fill-opacity="0.03"/>
<path d="M39.6157 1022.49H43.126L45.6333 1024.49L46.1348 1027H36.6069L37.6099 1023.99L39.6157 1022.49Z" fill="#153243" fill-opacity="0.03"/>
<path d="M912.666 1022.49H916.176L918.684 1024.99L919.185 1027H909.657L910.159 1024.49L912.666 1022.49Z" fill="#153243" fill-opacity="0.03"/>
<path d="M655.916 1022.49H659.426L661.934 1024.99L662.435 1027H652.907L653.409 1024.49L655.916 1022.49Z" fill="#153243" fill-opacity="0.03"/>
<path d="M399.166 1022.49H402.676L405.184 1024.99L405.685 1027H396.157L396.659 1024.49L399.166 1022.49Z" fill="#153243" fill-opacity="0.03"/>
<path d="M142.416 1022.49H145.926L148.434 1024.99L148.935 1027H139.407L139.909 1024.49L142.416 1022.49Z" fill="#153243" fill-opacity="0.03"/>
<path d="M909.657 0H919.185L917.681 3.51025L916.176 4.51318H912.666L910.159 2.50732L909.657 0Z" fill="#153243" fill-opacity="0.03"/>
<path d="M806.857 0H816.385L815.382 3.00879L813.376 4.51318H809.866L807.358 2.00586L806.857 0Z" fill="#153243" fill-opacity="0.03"/>
<path d="M652.907 0H662.435L660.931 3.51025L659.426 4.51318H655.916L653.409 2.50732L652.907 0Z" fill="#153243" fill-opacity="0.03"/>
<path d="M550.107 0H559.635L558.632 3.00879L556.626 4.51318H553.116L550.608 2.00586L550.107 0Z" fill="#153243" fill-opacity="0.03"/>
<path d="M396.157 0H405.685L404.181 3.51025L402.676 4.51318H399.166L396.659 2.50732L396.157 0Z" fill="#153243" fill-opacity="0.03"/>
<path d="M293.357 0H302.885L301.882 3.00879L299.876 4.51318H296.366L293.858 2.00586L293.357 0Z" fill="#153243" fill-opacity="0.03"/>
<path d="M139.407 0H148.935L147.431 3.51025L145.926 4.51318H142.416L139.909 2.50732L139.407 0Z" fill="#153243" fill-opacity="0.03"/>
<path d="M36.6069 0H46.1348L45.1318 3.00879L43.126 4.51318H39.6157L37.1084 2.00586L36.6069 0Z" fill="#153243" fill-opacity="0.03"/>
<path d="M961.308 0H970.334L969.833 2.50732L967.326 4.51318H963.815L961.308 2.00586V0Z" fill="#153243" fill-opacity="0.03"/>
<path d="M704.558 0H713.584L713.083 2.50732L710.576 4.51318H707.065L704.558 2.00586V0Z" fill="#153243" fill-opacity="0.03"/>
<path d="M447.808 0H456.834L456.333 2.50732L453.826 4.51318H450.315L447.808 2.00586V0Z" fill="#153243" fill-opacity="0.03"/>
<path d="M191.058 0H200.084L199.583 2.50732L197.076 4.51318H193.565L191.058 2.00586V0Z" fill="#153243" fill-opacity="0.03"/>
<path d="M1012.46 0H1021.48L1020.98 3.00879L1018.98 4.51318H1015.47L1012.96 2.50732L1012.46 0Z" fill="#153243" fill-opacity="0.03"/>
<path d="M755.708 0H764.734L764.232 3.00879L762.227 4.51318H758.716L756.209 2.50732L755.708 0Z" fill="#153243" fill-opacity="0.03"/>
<path d="M498.958 0H507.984L507.482 3.00879L505.477 4.51318H501.966L499.459 2.50732L498.958 0Z" fill="#153243" fill-opacity="0.03"/>
<path d="M242.208 0H251.234L250.732 3.00879L248.727 4.51318H245.216L242.709 2.50732L242.208 0Z" fill="#153243" fill-opacity="0.03"/>
<path d="M858.508 0H867.534L867.033 2.50732L864.525 4.51318H861.517L858.508 2.00586V0Z" fill="#153243" fill-opacity="0.03"/>
<path d="M601.758 0H610.784L610.283 2.50732L607.775 4.51318H604.767L601.758 2.00586V0Z" fill="#153243" fill-opacity="0.03"/>
<path d="M345.008 0H354.034L353.533 2.50732L351.025 4.51318H348.017L345.008 2.00586V0Z" fill="#153243" fill-opacity="0.03"/>
<path d="M88.2578 0H97.2842L96.7827 2.50732L94.2754 4.51318H91.2666L88.2578 2.00586V0Z" fill="#153243" fill-opacity="0.03"/>
</g>
<defs>
<clipPath id="clip0_119_2">
<rect width="1027" height="1027" fill="white"/>
</clipPath>
</defs>
</svg>
