<svg width="621" height="543" viewBox="0 0 621 543" fill="none" xmlns="http://www.w3.org/2000/svg">
<rect x="103" y="121" width="415" height="352" fill="#0C9A8E"/>
<rect x="148" width="305" height="393" fill="#D9D9D9"/>
<rect x="167" y="117" width="266" height="9" rx="4.5" fill="#C9C9C9"/>
<rect x="167" y="130" width="266" height="9" rx="4.5" fill="#C9C9C9"/>
<rect x="276" y="495" width="266" height="9" rx="4.5" fill="#C9C9C9"/>
<rect x="79" y="514" width="266" height="9" rx="4.5" fill="#C9C9C9"/>
<rect x="219" y="534" width="149" height="9" rx="4.5" fill="#C9C9C9"/>
<rect x="167" y="143" width="266" height="9" rx="4.5" fill="#C9C9C9"/>
<rect x="167" y="156" width="266" height="9" rx="4.5" fill="#C9C9C9"/>
<rect x="167" y="169" width="266" height="9" rx="4.5" fill="#C9C9C9"/>
<rect x="167" y="182" width="266" height="9" rx="4.5" fill="#C9C9C9"/>
<rect x="167" y="195" width="266" height="9" rx="4.5" fill="#C9C9C9"/>
<rect x="167" y="208" width="266" height="9" rx="4.5" fill="#C9C9C9"/>
<rect x="167" y="221" width="266" height="9" rx="4.5" fill="#C9C9C9"/>
<rect x="167" y="234" width="266" height="9" rx="4.5" fill="#C9C9C9"/>
<rect x="167" y="247" width="266" height="9" rx="4.5" fill="#C9C9C9"/>
<rect x="167" y="260" width="266" height="9" rx="4.5" fill="#C9C9C9"/>
<rect x="167" y="273" width="266" height="9" rx="4.5" fill="#C9C9C9"/>
<rect x="167" y="286" width="266" height="9" rx="4.5" fill="#C9C9C9"/>
<rect x="167" y="299" width="266" height="9" rx="4.5" fill="#C9C9C9"/>
<rect x="167" y="312" width="266" height="9" rx="4.5" fill="#C9C9C9"/>
<path d="M412 297L103 472.803L103 121.197L412 297Z" fill="#06B7A7"/>
<path d="M209 297L518 121.197L518 472.803L209 297Z" fill="#06B7A7"/>
<path d="M311 354L517.114 472.5L104.886 472.5L311 354Z" fill="#0C9A8E"/>
<rect x="167" y="20" width="85" height="85" rx="8" fill="#C9C9C9"/>
<rect x="258" y="20" width="175" height="15" rx="7.5" fill="#C9C9C9"/>
<rect x="258" y="43" width="175" height="16" rx="8" fill="#C9C9C9"/>
<rect x="258" y="66" width="175" height="16" rx="8" fill="#C9C9C9"/>
<rect x="258" y="90" width="175" height="15" rx="7.5" fill="#C9C9C9"/>
</svg>
