<svg width="126" height="153" viewBox="0 0 126 153" fill="none" xmlns="http://www.w3.org/2000/svg">
<path fill-rule="evenodd" clip-rule="evenodd" d="M58.1165 67.2304C55.744 59.7353 51.7789 46.9552 55.2266 38.8077C57.8931 32.506 66.9163 24.1571 76.175 29.9794C89.3886 38.2891 82.1051 65.5531 58.1165 67.2304ZM44.0313 13.848C42.8305 16.1558 38.8216 18.9296 36.1718 27.8795C34.3663 33.9774 33.7748 40.5251 34.649 47.0727C35.4461 53.0444 37.944 59.3214 41.1891 62.3904C49.8589 70.5908 54.7368 67.4153 56.7694 69.0117C58.4154 70.3043 61.8283 84.9061 57.3261 95.2416C56.5483 97.0275 54.1891 100.96 54.0334 102.181C55.9152 102.779 56.7437 99.957 58.454 96.3694C63.9407 84.8623 59.7919 77.4881 58.6013 68.7135C69.2815 67.4693 77.0768 61.8556 80.9467 55.1137C86.3567 45.6879 84.8332 34.2684 77.4521 29.1188C67.8121 22.3935 57.791 30.3275 54.4049 37.1382C52.0836 41.8063 52.0548 47.2466 52.9003 52.796C53.6959 58.0212 55.6586 62.6145 56.4281 67.2909C33.8386 66.5577 32.9081 39.1489 38.6496 25.2248C40.663 20.3432 44.732 14.5934 47.911 12.5728C51.1674 8.92066 58.1512 5.45899 64.1909 3.70226C78.2519 -0.387565 93.9732 1.11102 106.676 8.03927C116.161 13.2123 120.834 22.8191 117.364 33.3307C116.043 37.3325 114.431 38.4252 112.472 41.2689C109.905 44.9936 109.812 60.7153 112.198 63.7102C113.815 65.7394 124.654 74.4909 124.091 76.8807C123.392 79.851 118.551 80.9773 117.093 82.6883C113.797 86.5586 117.644 89.1116 117.17 92.9981C116.372 93.968 115.194 94.6456 114.457 95.8921C113.517 97.4829 113.996 99.13 113.843 101.128C110.794 103.698 109.483 102.524 107.58 107.411C106.172 111.025 106.486 114.449 105.364 117.597C99.8477 133.075 73.9137 102.903 75.2483 129.804C75.4391 133.651 75.7797 137.503 76.1633 141.327L77.087 149.679C77.4022 151.832 77.0114 151.382 78.1891 151.966C79.4953 150.425 78.1105 145.679 77.8686 143.468C77.3807 139 76.2415 128.262 76.8372 124.226C78.7621 111.189 98.3128 131.383 105.783 120.153C107.429 117.679 107.27 115.199 107.852 111.926C109.969 100.008 115.381 106.333 115.381 99.4195C115.38 94.0356 118.434 95.9764 118.778 92.5151C119.073 89.5448 116.162 87.6085 117.704 84.5966C118.939 82.183 129.313 78.992 124.418 73.7467C111.768 60.1903 113.106 66.1034 112.229 55.4791C110.757 37.6413 115.976 44.3306 119.252 32.1931C122.316 20.8386 116.25 11.1468 105.776 5.93141C88.8746 -2.48484 65.2715 -2.41264 49.5592 9.17501C47.5047 10.6902 45.712 12.7312 44.0313 13.848Z" fill="#08FFFF"/>
<path fill-rule="evenodd" clip-rule="evenodd" d="M44.631 76.7836C50.0804 76.6612 54.3562 79.339 54.9624 83.9009C52.4777 83.9285 50.105 83.1892 48.4964 82.0346C47.0844 81.0205 45.0234 78.8454 44.631 76.7836ZM56.3661 85.2434C57.5325 78.0555 46.048 73.031 43.3842 75.8051C41.5058 77.7614 46.2903 82.3033 47.1652 82.9288C49.5123 84.6069 52.6546 85.6788 56.3661 85.2434Z" fill="#08FFFF"/>
<path fill-rule="evenodd" clip-rule="evenodd" d="M64.2173 93.5722C68.7327 90.7958 74.7501 92.6625 76.4286 96.0815C72.1026 97.7978 66.1944 96.6877 64.2173 93.5722ZM62.3691 93.426C64.1134 97.8408 73.9398 100.687 78.137 96.4209C77.6418 91.4451 66.5221 88.2253 62.3691 93.426Z" fill="#08FFFF"/>
<path fill-rule="evenodd" clip-rule="evenodd" d="M40.1738 92.0672C44.3419 89.409 50.5426 90.9012 52.3239 94.5186C47.7578 96.355 42.4075 95.2987 40.1738 92.0672ZM38.3975 92.1424C39.2845 94.2207 42.3471 95.9461 45.0143 96.6238C48.6105 97.538 51.7128 96.5656 54.211 95.2144C53.1475 88.8228 40.559 87.1617 38.3975 92.1424Z" fill="#08FFFF"/>
<path fill-rule="evenodd" clip-rule="evenodd" d="M65.5621 82.8438C67.509 79.147 72.9454 77.8091 77.5681 79.9347C76.3247 82.902 69.5113 85.1002 65.5621 82.8438ZM63.7124 83.6507C66.1419 85.1417 69.5015 85.8356 72.9787 84.8042C75.8564 83.9508 79.2372 82.0849 79.3634 79.3591C73.8547 75.507 64.8073 78.0113 63.7124 83.6507Z" fill="#08FFFF"/>
<path fill-rule="evenodd" clip-rule="evenodd" d="M62.3691 93.426C66.5221 88.2254 77.6418 91.4452 78.137 96.4209C73.9398 100.687 64.1134 97.8409 62.3691 93.426ZM38.3975 92.1425C40.559 87.1618 53.1475 88.8229 54.211 95.2145C51.7128 96.5657 48.6105 97.5382 45.0143 96.6239C42.3471 95.9462 39.2845 94.2209 38.3975 92.1425ZM63.7124 83.6507C64.8073 78.0112 73.8547 75.5069 79.3634 79.359C79.2371 82.0848 75.8564 83.9507 72.9786 84.8042C69.5015 85.8356 66.1419 85.1417 63.7124 83.6507ZM47.1652 82.9288C46.2903 82.3033 41.5058 77.7614 43.3842 75.8051C46.048 73.0309 57.5325 78.0554 56.3661 85.2433C52.6546 85.6787 49.5123 84.6069 47.1652 82.9288ZM47.9109 12.5729C44.732 14.5934 40.6629 20.3432 38.6496 25.2249C32.9081 39.149 33.8386 66.5578 56.4281 67.291C55.6586 62.6146 53.6959 58.0213 52.9003 52.7961C52.0548 47.2466 52.0835 41.8064 54.4049 37.1383C57.791 30.3276 67.812 22.3936 77.4521 29.1189C84.8331 34.2685 86.3567 45.688 80.9466 55.1137C77.0768 61.8556 69.2815 67.4694 58.6013 68.7136C59.7919 77.4881 63.9407 84.8624 58.4539 96.3695C56.7437 99.957 55.9152 102.779 54.0334 102.181C54.1891 100.961 56.5483 97.0275 57.3261 95.2417C61.8283 84.9062 58.4154 70.3044 56.7694 69.0118C54.7367 67.4153 49.8589 70.5909 41.189 62.3905C37.9439 59.3215 35.4461 53.0444 34.649 47.0728C33.7747 40.5251 34.3662 33.9775 36.1717 27.8796C38.8216 18.9296 42.8305 16.1558 44.0312 13.8481C34.5246 15.8006 26.769 22.5474 22.5877 27.5719C7.73455 45.4207 18.5992 61.2313 16.8942 69.8157C15.2437 78.1258 -7.86016 75.4616 2.79886 102.904C6.39584 112.163 11.8157 116.587 23.8247 117.039C26.4961 117.14 29.5356 117.128 32.1643 116.662C34.1096 116.317 37.4492 114.717 39.0162 115.079C43.4027 116.09 39.5359 124.369 38.6394 127.928C33.328 149.007 31.013 149.024 40.7332 150.964C45.7248 151.96 51.2634 152.384 56.4084 152.691C76.5715 153.892 71.1527 151.847 71.2419 133.218C71.2574 130.03 70.8939 118.203 71.7216 116.043C75.0695 107.303 91.9156 121.849 98.5056 115.02C101.869 111.536 100.032 105.112 103.078 102.055C104.824 100.302 107.217 101.001 107.181 97.7948C107.113 91.7665 108.727 94.8449 109.722 91.9671C110.591 89.4572 108.175 88.05 108.733 85.0204C109.226 82.3403 111.179 81.9007 113.324 80.6289C119.911 76.7228 114.1 73.3503 111.389 70.4994C105.475 64.2787 104.319 65.4352 104.193 60.0588C104.062 54.5154 103.202 49.497 105.491 44.5681C107.351 40.5618 110.121 37.3715 110.621 32.2098C111.162 26.6157 108.991 21.7995 106.328 18.6609C96.1498 6.66624 65.4256 8.66939 47.9109 12.5729Z" fill="white"/>
<path fill-rule="evenodd" clip-rule="evenodd" d="M58.1165 67.2304C82.1052 65.553 89.3887 38.289 76.1751 29.9794C66.9164 24.157 57.8932 32.506 55.2267 38.8076C51.779 46.9551 55.7441 59.7352 58.1165 67.2304Z" fill="white"/>
<path fill-rule="evenodd" clip-rule="evenodd" d="M54.9625 83.9008C54.3562 79.3389 50.0804 76.6611 44.6311 76.7836C45.0234 78.8453 47.0844 81.0204 48.4964 82.0345C50.105 83.1891 52.4778 83.9284 54.9625 83.9008Z" fill="white"/>
<path fill-rule="evenodd" clip-rule="evenodd" d="M65.562 82.8436C69.5112 85.1 76.3246 82.9018 77.568 79.9345C72.9453 77.8089 67.5088 79.1469 65.562 82.8436Z" fill="white"/>
<path fill-rule="evenodd" clip-rule="evenodd" d="M40.1738 92.0672C42.4075 95.2987 47.7578 96.3551 52.3239 94.5186C50.5426 90.9012 44.3419 89.4091 40.1738 92.0672Z" fill="white"/>
<path fill-rule="evenodd" clip-rule="evenodd" d="M64.2173 93.5723C66.1944 96.6878 72.1025 97.7979 76.4286 96.0816C74.7501 92.6626 68.7327 90.7959 64.2173 93.5723Z" fill="white"/>
</svg>
