<svg width="122" height="153" viewBox="0 0 122 153" fill="none" xmlns="http://www.w3.org/2000/svg">
<mask id="mask0_263_18" style="mask-type:luminance" maskUnits="userSpaceOnUse" x="0" y="1" width="122" height="152">
<path d="M0 1H122V153H0V1Z" fill="white"/>
</mask>
<g mask="url(#mask0_263_18)">
<path fill-rule="evenodd" clip-rule="evenodd" d="M20.6107 46.1853C25.6137 45.5282 43.3539 44.9568 46.1798 43.7825C45.8368 42.3188 46.1762 42.5576 44.2974 42.5821C39.0206 42.6514 27.5149 44.444 20.9387 44.3895L23.3564 31.4486C25.431 31.8801 42.8642 36.7367 44.3808 36.5259C45.5483 36.3636 44.6785 36.6722 45.4085 36.1084C44.1965 33.9848 29.3813 31.8501 24.1228 29.8768C25.3806 22.71 32.2072 15.8613 37.4159 13.1796C43.414 10.0916 54.5771 8.06622 62.4863 8.58709L62.9107 22.7897C56.4166 23.9421 53.071 27.9099 51.7712 34.3066L48.6151 34.7477C48.9865 36.6978 48.2553 35.1793 49.5927 35.8889C51.8249 37.0732 51.2271 34.3944 51.2707 43.7304C49.2309 43.7312 48.8487 43.1999 48.1267 44.7269C49.3844 45.6809 49.4116 45.3459 51.2311 45.3467C51.7003 48.4419 48.2865 97.9228 47.8133 105.488C47.613 108.694 46.0348 123.695 47.1959 125.552C48.4913 124.929 47.8302 126.449 48.3266 124.032L51.871 65.1896C52.1931 59.7657 52.2292 50.2609 53.24 45.3431L73.8362 45.3944L74.9508 56.1961C72.3705 55.7978 68.0192 55.3018 65.3291 55.6896C62.9583 56.0318 63.8875 55.777 63.4692 56.9734C65.0534 57.838 71.969 57.0551 75.1712 58.0616L75.9922 66.1844C72.7491 65.553 60.4802 63.282 59.0979 67.0034C60.7739 67.8993 65.0875 66.5482 67.6229 66.5546C70.9738 66.5626 73.1594 67.2931 76.2057 67.9418L77.0644 76.4565C70.9297 75.4159 62.5396 73.6822 56.1942 75.9712C54.6312 76.535 54.9501 76.3919 54.5571 77.3852C56.0864 78.3112 59.4713 76.2565 66.2691 76.5029C69.3202 76.6135 74.9865 77.13 77.2988 78.5804L80.0514 104.453C80.2742 106.581 79.9544 111.214 81.6769 112.433C82.7323 111.174 82.3039 109.641 82.1172 107.777L75.5987 45.4537C76.7487 45.3271 77.7699 45.3375 78.6702 44.7269C78.1486 43.7641 78.2451 43.7324 75.668 43.7316L75.9742 36.7255C77.9439 36.3512 78.3069 36.9058 79.6928 36.0159C78.9692 34.3655 77.9238 34.9289 75.6452 34.9172C74.5489 28.244 70.9505 24.3776 64.6303 22.7721L64.1027 8.40601C79.4115 8.71452 86.9894 7.70764 97.0667 16.1907C103.656 21.7379 109.835 29.8259 113.659 40.424C118.708 54.4171 113.817 68.6461 105.837 79.3104C104.158 81.5554 102.771 83.0439 101.135 85.0504C98.5191 88.259 94.6326 90.859 92.7082 97.0273C89.8402 106.219 93.3986 123.859 96.4921 131.978C99.1742 139.016 94.8935 141.393 90.0618 143.835C85.3623 146.211 80.8872 148.066 75.4012 149.605C70.6396 150.94 53.327 153.219 48.1459 151.719C45.229 150.874 44.9049 148.565 44.1076 145.357C42.5694 139.172 39.9698 118.381 37.9677 113.394C37.2601 111.632 37.8651 112.559 36.6727 111.8C32.6864 110.011 18.1107 116.185 13.8597 109.35C11.7777 106.002 12.8247 101.312 13.5287 97.676C14.2347 94.0271 13.0647 94.5436 12.1227 92.4557C10.8627 89.6618 12.5517 89.4121 13.0077 87.3639C11.7717 85.7292 10.0477 86.1659 10.7627 83.1504C11.2517 81.0894 12.4177 80.1105 12.0517 77.5847C10.4057 74.6097 -3.30627 76.8607 10.2547 63.5861C14.7127 59.2223 19.0497 55.3302 20.6107 46.1853Z" fill="white"/>
<path fill-rule="evenodd" clip-rule="evenodd" d="M74.002 34.8685L53.8061 34.4294C53.2452 32.3194 55.5214 28.9125 56.4986 27.7177C61.0138 22.1973 71.8255 23.3284 74.002 34.8685Z" fill="white"/>
<path fill-rule="evenodd" clip-rule="evenodd" d="M74.3516 36.4974L73.991 43.6818L65.0881 43.7091C66.4407 40.5598 64.5556 38.1189 61.815 37.6177C60.0368 39.8266 59.8329 40.8559 61.2885 43.7279L53.0099 43.6598L52.9021 36.2422L74.3516 36.4974Z" fill="white"/>
<path fill-rule="evenodd" clip-rule="evenodd" d="M52.9023 36.2423L53.0101 43.6599L61.2888 43.728C59.8331 40.856 60.0371 39.8267 61.8152 37.6178C64.5558 38.119 66.441 40.5599 65.0883 43.7092L73.9912 43.6819L74.3518 36.4975L52.9023 36.2423ZM74.0016 34.8684C71.8252 23.3282 61.0135 22.1971 56.4983 27.7176C55.5211 28.9124 53.2449 32.3193 53.8058 34.4292L74.0016 34.8684ZM64.1019 8.40602L64.6296 22.7721C70.9497 24.3776 74.5481 28.2441 75.6444 34.9172C77.923 34.9289 78.9684 34.3655 79.692 36.0159C78.3061 36.9058 77.9431 36.3512 75.9734 36.7255L75.6672 43.7316C78.2444 43.7324 78.1478 43.7641 78.6695 44.7269C77.7691 45.3375 76.7479 45.3271 75.5979 45.4537L82.1164 107.777C82.3032 109.641 82.7315 111.174 81.6761 112.433C79.9536 111.214 80.2734 106.581 80.0506 104.453L77.298 78.5804C74.9857 77.13 69.3194 76.6135 66.2683 76.5029C59.4705 76.2565 56.0856 78.3112 54.5563 77.3852C54.9493 76.392 54.6304 76.535 56.1934 75.9712C62.5388 73.6822 70.9289 75.4159 77.0636 76.4565L76.2049 67.9418C73.1586 67.2931 70.973 66.5627 67.6222 66.5546C65.0867 66.5482 60.7731 67.8993 59.0971 67.0034C60.4794 63.282 72.7483 65.553 75.9914 66.1845L75.1704 58.0616C71.9683 57.0551 65.0526 57.838 63.4684 56.9734C63.8867 55.777 62.9575 56.0318 65.3283 55.6896C68.0184 55.3018 72.3697 55.7978 74.9501 56.1961L73.8354 45.3944L53.2393 45.3431C52.2284 50.261 52.1923 59.7657 51.8702 65.1896L48.3258 124.032C47.8294 126.449 48.4905 124.929 47.1951 125.552C46.034 123.695 47.6122 108.694 47.8125 105.488C48.2857 97.9228 51.6995 48.4419 51.2303 45.3467C49.4109 45.3459 49.3836 45.6809 48.1259 44.7269C48.8479 43.1999 49.2301 43.7312 51.2699 43.7304C51.2263 34.3944 51.8241 37.0733 49.5919 35.8889C48.2545 35.1793 48.9857 36.6978 48.6143 34.7477L51.7704 34.3066C53.0702 27.9099 56.4158 23.9421 62.9099 22.7897L62.4855 8.58711C62.9784 3.05624 63.5317 0.966352 69.4196 1.00041C73.702 1.02565 78.131 2.04174 82.0159 3.11634C102.595 8.80948 120.871 26.5873 121.935 49.7156C123.147 76.0786 107.062 84.7399 98.9835 98.7759C94.0613 107.328 104.874 130.886 103.606 134.031C101.861 133.303 102.284 133.056 101.214 129.501L97.0078 112.892C94.855 101.2 96.6788 98.412 102.114 91.4644C109.952 81.4444 120.036 71.9601 120.387 53.3453C120.808 30.9754 104.342 11.5809 83.8722 5.35129C80.2798 4.25786 76.2602 3.27341 72.2603 2.80061C65.9525 2.05416 64.646 2.29819 64.1019 8.40602Z" fill="#DBDBDB"/>
<path fill-rule="evenodd" clip-rule="evenodd" d="M24.1225 29.8768C29.3809 31.8501 44.1961 33.9849 45.4082 36.1084C44.6781 36.6722 45.548 36.3637 44.3804 36.5259C42.8639 36.7367 25.4307 31.8802 23.356 31.4486L2.66171 26.1898C0.503705 25.6766 0.632702 26.1117 0.000701904 24.769L24.1225 29.8768Z" fill="#DBDBDB"/>
<path fill-rule="evenodd" clip-rule="evenodd" d="M20.6105 46.1854C18.5735 46.2615 16.5735 46.4386 14.5155 46.6185C12.3485 46.8077 10.6785 47.4155 9.75549 46.0877C11.5125 44.1805 17.9355 45.0199 20.9385 44.3896C27.5148 44.4441 39.0205 42.6515 44.2973 42.5822C46.1761 42.5577 45.8367 42.3189 46.1797 43.7826C43.3538 44.957 25.6136 45.5283 20.6105 46.1854Z" fill="#DBDBDB"/>
</g>
</svg>
