<svg width="126" height="154" viewBox="0 0 126 154" fill="none" xmlns="http://www.w3.org/2000/svg">
<g clip-path="url(#clip0_263_2)">
<mask id="mask0_263_2" style="mask-type:luminance" maskUnits="userSpaceOnUse" x="0" y="0" width="126" height="154">
<path d="M126 0.5H0V153.5H126V0.5Z" fill="white"/>
</mask>
<g mask="url(#mask0_263_2)">
<path fill-rule="evenodd" clip-rule="evenodd" d="M58.1172 67.7304C55.7447 60.2353 51.7796 47.4552 55.2273 39.3077C57.8938 33.006 66.917 24.6571 76.1757 30.4794C89.3893 38.7891 82.1058 66.0531 58.1172 67.7304ZM44.032 14.348C42.8312 16.6558 38.8223 19.4296 36.1725 28.3795C34.367 34.4774 33.7755 41.0251 34.6497 47.5727C35.4468 53.5444 37.9447 59.8214 41.1898 62.8904C49.8596 71.0908 54.7375 67.9153 56.7701 69.5117C58.4161 70.8043 61.829 85.4061 57.3268 95.7416C56.549 97.5275 54.1898 101.46 54.0341 102.681C55.9159 103.279 56.7444 100.457 58.4547 96.8694C63.9414 85.3623 59.7926 77.9881 58.602 69.2135C69.2822 67.9693 77.0775 62.3556 80.9474 55.6137C86.3574 46.1879 84.8339 34.7684 77.4528 29.6188C67.8128 22.8935 57.7917 30.8275 54.4056 37.6382C52.0843 42.3063 52.0555 47.7466 52.901 53.296C53.6966 58.5212 55.6593 63.1145 56.4288 67.7909C33.8393 67.0577 32.9088 39.6489 38.6503 25.7248C40.6637 20.8432 44.7327 15.0934 47.9117 13.0728C51.1681 9.42066 58.1519 5.95899 64.1916 4.20226C78.2526 0.112429 93.9739 1.61102 106.677 8.53927C116.162 13.7123 120.835 23.3191 117.365 33.8307C116.044 37.8325 114.432 38.9252 112.473 41.7689C109.906 45.4936 109.813 61.2153 112.199 64.2102C113.816 66.2394 124.655 74.9909 124.092 77.3807C123.393 80.351 118.552 81.4773 117.094 83.1883C113.798 87.0586 117.645 89.6116 117.171 93.4981C116.373 94.468 115.195 95.1456 114.458 96.3921C113.518 97.9829 113.997 99.63 113.844 101.628C110.795 104.198 109.484 103.024 107.581 107.911C106.173 111.525 106.487 114.949 105.365 118.097C99.8484 133.575 73.9144 103.403 75.249 130.304C75.4398 134.151 75.7804 138.003 76.164 141.827L77.0877 150.179C77.4029 152.332 77.0121 151.882 78.1898 152.466C79.496 150.925 78.1112 146.179 77.8693 143.968C77.3814 139.5 76.2422 128.762 76.8379 124.726C78.7628 111.689 98.3135 131.883 105.784 120.653C107.43 118.179 107.271 115.699 107.853 112.426C109.97 100.508 115.382 106.833 115.382 99.9195C115.381 94.5356 118.435 96.4764 118.779 93.0151C119.074 90.0448 116.163 88.1085 117.705 85.0966C118.94 82.683 129.314 79.492 124.419 74.2467C111.769 60.6903 113.107 66.6034 112.23 55.9791C110.758 38.1413 115.977 44.8306 119.253 32.6931C122.317 21.3386 116.251 11.6468 105.777 6.43141C88.8753 -1.98484 65.2722 -1.91264 49.5599 9.67501C47.5054 11.1902 45.7127 13.2312 44.032 14.348Z" fill="#DBDBDB"/>
<path fill-rule="evenodd" clip-rule="evenodd" d="M44.6312 77.2836C50.0806 77.1612 54.3564 79.839 54.9626 84.4009C52.4779 84.4285 50.1052 83.6892 48.4966 82.5346C47.0846 81.5205 45.0236 79.3454 44.6312 77.2836ZM56.3663 85.7434C57.5327 78.5555 46.0482 73.531 43.3844 76.3051C41.506 78.2614 46.2905 82.8033 47.1654 83.4288C49.5125 85.1069 52.6548 86.1788 56.3663 85.7434Z" fill="#DBDBDB"/>
<path fill-rule="evenodd" clip-rule="evenodd" d="M64.217 94.0722C68.7324 91.2958 74.7498 93.1625 76.4283 96.5815C72.1023 98.2978 66.1941 97.1877 64.217 94.0722ZM62.3688 93.926C64.1131 98.3408 73.9395 101.187 78.1367 96.9209C77.6415 91.9451 66.5218 88.7253 62.3688 93.926Z" fill="#DBDBDB"/>
<path fill-rule="evenodd" clip-rule="evenodd" d="M40.1737 92.5672C44.3418 89.909 50.5425 91.4012 52.3238 95.0186C47.7577 96.855 42.4074 95.7987 40.1737 92.5672ZM38.3974 92.6424C39.2844 94.7207 42.347 96.4461 45.0142 97.1238C48.6104 98.038 51.7127 97.0656 54.2109 95.7144C53.1474 89.3228 40.5589 87.6617 38.3974 92.6424Z" fill="#DBDBDB"/>
<path fill-rule="evenodd" clip-rule="evenodd" d="M65.562 83.3438C67.5089 79.647 72.9453 78.3091 77.568 80.4347C76.3246 83.402 69.5112 85.6002 65.562 83.3438ZM63.7123 84.1507C66.1418 85.6417 69.5014 86.3356 72.9786 85.3042C75.8563 84.4508 79.2371 82.5849 79.3633 79.8591C73.8546 76.007 64.8072 78.5113 63.7123 84.1507Z" fill="#DBDBDB"/>
<path fill-rule="evenodd" clip-rule="evenodd" d="M62.3701 93.926C66.5231 88.7254 77.6428 91.9452 78.138 96.9209C73.9408 101.187 64.1144 98.3409 62.3701 93.926ZM38.3985 92.6425C40.56 87.6618 53.1485 89.3229 54.212 95.7145C51.7138 97.0657 48.6115 98.0382 45.0153 97.1239C42.3481 96.4462 39.2855 94.7209 38.3985 92.6425ZM63.7134 84.1507C64.8083 78.5112 73.8557 76.0069 79.3644 79.859C79.2381 82.5848 75.8574 84.4507 72.9796 85.3042C69.5025 86.3356 66.1429 85.6417 63.7134 84.1507ZM47.1662 83.4288C46.2913 82.8033 41.5068 78.2614 43.3852 76.3051C46.049 73.5309 57.5335 78.5554 56.3671 85.7433C52.6556 86.1787 49.5133 85.1069 47.1662 83.4288ZM47.9119 13.0729C44.733 15.0934 40.6639 20.8432 38.6506 25.7249C32.9091 39.649 33.8396 67.0578 56.4291 67.791C55.6596 63.1146 53.6969 58.5213 52.9013 53.2961C52.0558 47.7466 52.0845 42.3064 54.4059 37.6383C57.792 30.8276 67.813 22.8936 77.4531 29.6189C84.8341 34.7685 86.3577 46.188 80.9476 55.6137C77.0778 62.3556 69.2825 67.9694 58.6023 69.2136C59.7929 77.9881 63.9417 85.3624 58.4549 96.8695C56.7447 100.457 55.9162 103.279 54.0344 102.681C54.1901 101.461 56.5493 97.5275 57.3271 95.7417C61.8293 85.4062 58.4164 70.8044 56.7704 69.5118C54.7377 67.9153 49.8599 71.0909 41.19 62.8905C37.9449 59.8215 35.4471 53.5444 34.65 47.5728C33.7757 41.0251 34.3672 34.4775 36.1727 28.3796C38.8226 19.4296 42.8315 16.6558 44.0322 14.3481C34.5256 16.3006 26.77 23.0474 22.589 28.0719C7.73598 45.9207 18.6 61.7313 16.895 70.3157C15.245 78.6258 -7.85901 75.9616 2.79999 103.404C6.39699 112.663 11.817 117.087 23.826 117.539C26.4971 117.64 29.5366 117.628 32.1653 117.162C34.1106 116.817 37.4502 115.217 39.0172 115.579C43.4037 116.59 39.5369 124.869 38.6404 128.428C33.329 149.507 31.014 149.524 40.7342 151.464C45.7258 152.46 51.2644 152.884 56.4094 153.191C76.5725 154.392 71.1537 152.347 71.2429 133.718C71.2584 130.53 70.8949 118.703 71.7226 116.543C75.0705 107.803 91.9166 122.349 98.5066 115.52C101.87 112.036 100.033 105.612 103.079 102.555C104.825 100.802 107.218 101.501 107.182 98.2948C107.114 92.2665 108.728 95.3449 109.723 92.4671C110.592 89.9572 108.176 88.55 108.734 85.5204C109.227 82.8403 111.18 82.4007 113.325 81.1289C119.912 77.2228 114.101 73.8503 111.39 70.9994C105.476 64.7787 104.32 65.9352 104.194 60.5588C104.063 55.0154 103.203 49.997 105.492 45.0681C107.352 41.0618 110.122 37.8715 110.622 32.7098C111.163 27.1157 108.992 22.2995 106.329 19.1609C96.1508 7.16624 65.4266 9.16939 47.9119 13.0729Z" fill="white"/>
<path fill-rule="evenodd" clip-rule="evenodd" d="M58.117 67.7304C82.1057 66.053 89.3892 38.789 76.1756 30.4794C66.9169 24.657 57.8937 33.006 55.2272 39.3076C51.7795 47.4551 55.7446 60.2352 58.117 67.7304Z" fill="white"/>
<path fill-rule="evenodd" clip-rule="evenodd" d="M54.9629 84.4008C54.3566 79.8389 50.0808 77.1611 44.6315 77.2836C45.0238 79.3453 47.0848 81.5204 48.4968 82.5345C50.1054 83.6891 52.4782 84.4284 54.9629 84.4008Z" fill="white"/>
<path fill-rule="evenodd" clip-rule="evenodd" d="M65.5624 83.3436C69.5116 85.6 76.325 83.4018 77.5684 80.4345C72.9457 78.3089 67.5092 79.6469 65.5624 83.3436Z" fill="white"/>
<path fill-rule="evenodd" clip-rule="evenodd" d="M40.1741 92.5672C42.4078 95.7987 47.7581 96.8551 52.3242 95.0186C50.5429 91.4012 44.3422 89.9091 40.1741 92.5672Z" fill="white"/>
<path fill-rule="evenodd" clip-rule="evenodd" d="M64.2184 94.0723C66.1955 97.1878 72.1036 98.2979 76.4297 96.5816C74.7512 93.1626 68.7338 91.2959 64.2184 94.0723Z" fill="white"/>
</g>
</g>
<defs>
<clipPath id="clip0_263_2">
<rect width="126" height="154" fill="white"/>
</clipPath>
</defs>
</svg>
