<svg width="122" height="152" viewBox="0 0 122 152" fill="none" xmlns="http://www.w3.org/2000/svg">
<path fill-rule="evenodd" clip-rule="evenodd" d="M101.39 45.1853C96.387 44.5282 78.6468 43.9568 75.8209 42.7825C76.1639 41.3188 75.8245 41.5576 77.7033 41.5821C82.9801 41.6514 94.4858 43.444 101.062 43.3895L98.6443 30.4486C96.5697 30.8801 79.1365 35.7367 77.6199 35.5259C76.4524 35.3636 77.3222 35.6722 76.5922 35.1084C77.8042 32.9848 92.6194 30.8501 97.8779 28.8768C96.6201 21.71 89.7935 14.8613 84.5848 12.1796C78.5867 9.09162 67.4236 7.06622 59.5144 7.58709L59.09 21.7897C65.5841 22.9421 68.9297 26.9099 70.2295 33.3066L73.3856 33.7477C73.0142 35.6978 73.7454 34.1793 72.408 34.8889C70.1758 36.0732 70.7736 33.3944 70.73 42.7304C72.7698 42.7312 73.152 42.1999 73.874 43.7269C72.6163 44.6809 72.5891 44.3459 70.7696 44.3467C70.3004 47.4419 73.7142 96.9228 74.1874 104.488C74.3877 107.694 75.9659 122.695 74.8048 124.552C73.5094 123.929 74.1705 125.449 73.6741 123.032L70.1297 64.1896C69.8076 58.7657 69.7715 49.2609 68.7607 44.3431L48.1645 44.3944L47.0499 55.1961C49.6302 54.7978 53.9815 54.3018 56.6716 54.6896C59.0424 55.0318 58.1132 54.777 58.5315 55.9734C56.9473 56.838 50.0317 56.0551 46.8295 57.0616L46.0085 65.1844C49.2516 64.553 61.5205 62.282 62.9028 66.0034C61.2268 66.8993 56.9132 65.5482 54.3778 65.5546C51.0269 65.5626 48.8413 66.2931 45.795 66.9418L44.9363 75.4565C51.071 74.4159 59.4611 72.6822 65.8065 74.9712C67.3695 75.535 67.0506 75.3919 67.4436 76.3852C65.9143 77.3112 62.5294 75.2565 55.7316 75.5029C52.6805 75.6135 47.0142 76.13 44.7019 77.5804L41.9493 103.453C41.7265 105.581 42.0463 110.214 40.3238 111.433C39.2684 110.174 39.6968 108.641 39.8835 106.777L46.402 44.4537C45.252 44.3271 44.2308 44.3375 43.3305 43.7269C43.8521 42.7641 43.7556 42.7324 46.3327 42.7316L46.0265 35.7255C44.0568 35.3512 43.6938 35.9058 42.3079 35.0159C43.0315 33.3655 44.0769 33.9289 46.3555 33.9172C47.4518 27.244 51.0502 23.3776 57.3704 21.7721L57.898 7.40601C42.5892 7.71452 35.0113 6.70764 24.934 15.1907C18.345 20.7379 12.1654 28.8259 8.34139 39.424C3.29253 53.4171 8.18395 67.6461 16.1633 78.3104C17.8429 80.5554 19.2296 82.0439 20.8656 84.0504C23.4816 87.259 27.3681 89.859 29.2925 96.0273C32.1605 105.219 28.6021 122.859 25.5086 130.978C22.8265 138.016 27.1072 140.393 31.9389 142.835C36.6384 145.211 41.1135 147.066 46.5995 148.605C51.3611 149.94 68.6737 152.219 73.8548 150.719C76.7717 149.874 77.0958 147.565 77.8931 144.357C79.4313 138.172 82.0309 117.381 84.033 112.394C84.7406 110.632 84.1356 111.559 85.328 110.8C89.3143 109.011 103.89 115.185 108.141 108.35C110.223 105.002 109.176 100.312 108.472 96.676C107.766 93.0271 108.936 93.5436 109.878 91.4557C111.138 88.6618 109.449 88.4121 108.993 86.3639C110.229 84.7292 111.953 85.1659 111.238 82.1504C110.749 80.0894 109.583 79.1105 109.949 76.5847C111.595 73.6097 125.307 75.8607 111.746 62.5861C107.288 58.2223 102.951 54.3302 101.39 45.1853Z" fill="white"/>
<path fill-rule="evenodd" clip-rule="evenodd" d="M47.9985 33.8685L68.1944 33.4294C68.7553 31.3194 66.4791 27.9125 65.5019 26.7177C60.9867 21.1973 50.175 22.3284 47.9985 33.8685Z" fill="white"/>
<path fill-rule="evenodd" clip-rule="evenodd" d="M47.6482 35.4974L48.0088 42.6818L56.9117 42.7091C55.5591 39.5598 57.4442 37.1189 60.1848 36.6177C61.963 38.8266 62.1669 39.8559 60.7113 42.7279L68.9899 42.6598L69.0977 35.2422L47.6482 35.4974Z" fill="white"/>
<path fill-rule="evenodd" clip-rule="evenodd" d="M69.0977 35.2423L68.9899 42.6599L60.7112 42.728C62.1669 39.856 61.9629 38.8267 60.1848 36.6178C57.4442 37.119 55.559 39.5599 56.9117 42.7092L48.0088 42.6819L47.6482 35.4975L69.0977 35.2423ZM47.9984 33.8684C50.1748 22.3282 60.9865 21.1971 65.5017 26.7176C66.4789 27.9124 68.7551 31.3193 68.1942 33.4292L47.9984 33.8684ZM57.8981 7.40602L57.3704 21.7721C51.0503 23.3776 47.4519 27.2441 46.3556 33.9172C44.077 33.9289 43.0316 33.3655 42.308 35.0159C43.6939 35.9058 44.0569 35.3512 46.0266 35.7255L46.3328 42.7316C43.7556 42.7324 43.8522 42.7641 43.3305 43.7269C44.2309 44.3375 45.2521 44.3271 46.4021 44.4537L39.8836 106.777C39.6968 108.641 39.2685 110.174 40.3239 111.433C42.0464 110.214 41.7266 105.581 41.9494 103.453L44.702 77.5804C47.0143 76.13 52.6806 75.6135 55.7317 75.5029C62.5295 75.2565 65.9144 77.3112 67.4437 76.3852C67.0507 75.392 67.3696 75.535 65.8066 74.9712C59.4612 72.6822 51.0711 74.4159 44.9364 75.4565L45.7951 66.9418C48.8414 66.2931 51.027 65.5627 54.3778 65.5546C56.9133 65.5482 61.2269 66.8993 62.9029 66.0034C61.5206 62.282 49.2517 64.553 46.0086 65.1845L46.8296 57.0616C50.0317 56.0551 56.9474 56.838 58.5316 55.9734C58.1133 54.777 59.0425 55.0318 56.6717 54.6896C53.9816 54.3018 49.6303 54.7978 47.0499 55.1961L48.1646 44.3944L68.7607 44.3431C69.7716 49.261 69.8077 58.7657 70.1298 64.1896L73.6742 123.032C74.1706 125.449 73.5095 123.929 74.8049 124.552C75.966 122.695 74.3878 107.694 74.1875 104.488C73.7143 96.9228 70.3005 47.4419 70.7697 44.3467C72.5891 44.3459 72.6164 44.6809 73.8741 43.7269C73.1521 42.1999 72.7699 42.7312 70.7301 42.7304C70.7737 33.3944 70.1759 36.0733 72.4081 34.8889C73.7455 34.1793 73.0143 35.6978 73.3857 33.7477L70.2296 33.3066C68.9298 26.9099 65.5842 22.9421 59.0901 21.7897L59.5145 7.58711C59.0216 2.05624 58.4683 -0.0336482 52.5804 0.000408898C48.298 0.0256512 43.869 1.04174 39.9841 2.11634C19.4048 7.80948 1.12861 25.5873 0.0648292 48.7156C-1.1472 75.0786 14.9378 83.7399 23.0165 97.7759C27.9387 106.328 17.1258 129.886 18.3939 133.031C20.1389 132.303 19.7161 132.056 20.7859 128.501L24.9922 111.892C27.145 100.2 25.3212 97.412 19.8864 90.4644C12.0477 80.4444 1.96399 70.9601 1.6134 52.3453C1.1923 29.9754 17.6579 10.5809 38.1278 4.35129C41.7202 3.25786 45.7398 2.27341 49.7397 1.80061C56.0475 1.05416 57.354 1.29819 57.8981 7.40602Z" fill="#FF9D00"/>
<path fill-rule="evenodd" clip-rule="evenodd" d="M97.8782 28.8768C92.6198 30.8501 77.8046 32.9849 76.5925 35.1084C77.3226 35.6722 76.4527 35.3637 77.6203 35.5259C79.1368 35.7367 96.57 30.8802 98.6447 30.4486L119.339 25.1898C121.497 24.6766 121.368 25.1117 122 23.769L97.8782 28.8768Z" fill="#FF9D00"/>
<path fill-rule="evenodd" clip-rule="evenodd" d="M101.39 45.1854C103.427 45.2615 105.427 45.4386 107.485 45.6185C109.652 45.8077 111.322 46.4155 112.245 45.0877C110.488 43.1805 104.065 44.0199 101.062 43.3896C94.4857 43.4441 82.98 41.6515 77.7032 41.5822C75.8244 41.5577 76.1638 41.3189 75.8208 42.7826C78.6467 43.957 96.3869 44.5283 101.39 45.1854Z" fill="#FF9D00"/>
</svg>
