<svg width="122" height="153" viewBox="0 0 122 153" fill="none" xmlns="http://www.w3.org/2000/svg">
<g clip-path="url(#clip0_152_2)">
<path fill-rule="evenodd" clip-rule="evenodd" d="M101.39 45.6853C96.387 45.0282 78.6468 44.4568 75.8209 43.2825C76.1639 41.8188 75.8245 42.0576 77.7033 42.0821C82.9801 42.1514 94.4858 43.944 101.062 43.8895L98.6443 30.9486C96.5697 31.3801 79.1365 36.2367 77.6199 36.0259C76.4524 35.8636 77.3222 36.1722 76.5922 35.6084C77.8042 33.4848 92.6194 31.3501 97.8779 29.3768C96.6201 22.21 89.7935 15.3613 84.5848 12.6796C78.5867 9.59162 67.4236 7.56622 59.5144 8.08709L59.09 22.2897C65.5841 23.4421 68.9297 27.4099 70.2295 33.8066L73.3856 34.2477C73.0142 36.1978 73.7454 34.6793 72.408 35.3889C70.1758 36.5732 70.7736 33.8944 70.73 43.2304C72.7698 43.2312 73.152 42.6999 73.874 44.2269C72.6163 45.1809 72.5891 44.8459 70.7696 44.8467C70.3004 47.9419 73.7142 97.4228 74.1874 104.988C74.3877 108.194 75.9659 123.195 74.8048 125.052C73.5094 124.429 74.1705 125.949 73.6741 123.532L70.1297 64.6896C69.8076 59.2657 69.7715 49.7609 68.7607 44.8431L48.1645 44.8944L47.0499 55.6961C49.6302 55.2978 53.9815 54.8018 56.6716 55.1896C59.0424 55.5318 58.1132 55.277 58.5315 56.4734C56.9473 57.338 50.0317 56.5551 46.8295 57.5616L46.0085 65.6844C49.2516 65.053 61.5205 62.782 62.9028 66.5034C61.2268 67.3993 56.9132 66.0482 54.3778 66.0546C51.0269 66.0626 48.8413 66.7931 45.795 67.4418L44.9363 75.9565C51.071 74.9159 59.4611 73.1822 65.8065 75.4712C67.3695 76.035 67.0506 75.8919 67.4436 76.8852C65.9143 77.8112 62.5294 75.7565 55.7316 76.0029C52.6805 76.1135 47.0142 76.63 44.7019 78.0804L41.9493 103.953C41.7265 106.081 42.0463 110.714 40.3238 111.933C39.2684 110.674 39.6968 109.141 39.8835 107.277L46.402 44.9537C45.252 44.8271 44.2308 44.8375 43.3305 44.2269C43.8521 43.2641 43.7556 43.2324 46.3327 43.2316L46.0265 36.2255C44.0568 35.8512 43.6938 36.4058 42.3079 35.5159C43.0315 33.8655 44.0769 34.4289 46.3555 34.4172C47.4518 27.744 51.0502 23.8776 57.3704 22.2721L57.898 7.90601C42.5892 8.21452 35.0113 7.20764 24.934 15.6907C18.345 21.2379 12.1654 29.3259 8.34139 39.924C3.29253 53.9171 8.18395 68.1461 16.1633 78.8104C17.8429 81.0554 19.2296 82.5439 20.8656 84.5504C23.4816 87.759 27.3681 90.359 29.2925 96.5273C32.1605 105.719 28.6021 123.359 25.5086 131.478C22.8265 138.516 27.1072 140.893 31.9389 143.335C36.6384 145.711 41.1135 147.566 46.5995 149.105C51.3611 150.44 68.6737 152.719 73.8548 151.219C76.7717 150.374 77.0958 148.065 77.8931 144.857C79.4313 138.672 82.0309 117.881 84.033 112.894C84.7406 111.132 84.1356 112.059 85.328 111.3C89.3143 109.511 103.89 115.685 108.141 108.85C110.223 105.502 109.176 100.812 108.472 97.176C107.766 93.5271 108.936 94.0436 109.878 91.9557C111.138 89.1618 109.449 88.9121 108.993 86.8639C110.229 85.2292 111.953 85.6659 111.238 82.6504C110.749 80.5894 109.583 79.6105 109.949 77.0847C111.595 74.1097 125.307 76.3607 111.746 63.0861C107.288 58.7223 102.951 54.8302 101.39 45.6853Z" fill="white"/>
<path fill-rule="evenodd" clip-rule="evenodd" d="M47.9985 34.3685L68.1944 33.9294C68.7553 31.8194 66.4791 28.4125 65.5019 27.2177C60.9867 21.6973 50.175 22.8284 47.9985 34.3685Z" fill="white"/>
<path fill-rule="evenodd" clip-rule="evenodd" d="M47.6482 35.9974L48.0088 43.1818L56.9117 43.2091C55.5591 40.0598 57.4442 37.6189 60.1848 37.1177C61.963 39.3266 62.1669 40.3559 60.7113 43.2279L68.9899 43.1598L69.0977 35.7422L47.6482 35.9974Z" fill="white"/>
<path fill-rule="evenodd" clip-rule="evenodd" d="M69.0977 35.7423L68.9899 43.1599L60.7112 43.228C62.1669 40.356 61.9629 39.3267 60.1848 37.1178C57.4442 37.619 55.559 40.0599 56.9117 43.2092L48.0088 43.1819L47.6482 35.9975L69.0977 35.7423ZM47.9984 34.3684C50.1748 22.8282 60.9865 21.6971 65.5017 27.2176C66.4789 28.4124 68.7551 31.8193 68.1942 33.9292L47.9984 34.3684ZM57.8981 7.90602L57.3704 22.2721C51.0503 23.8776 47.4519 27.7441 46.3556 34.4172C44.077 34.4289 43.0316 33.8655 42.308 35.5159C43.6939 36.4058 44.0569 35.8512 46.0266 36.2255L46.3328 43.2316C43.7556 43.2324 43.8522 43.2641 43.3305 44.2269C44.2309 44.8375 45.2521 44.8271 46.4021 44.9537L39.8836 107.277C39.6968 109.141 39.2685 110.674 40.3239 111.933C42.0464 110.714 41.7266 106.081 41.9494 103.953L44.702 78.0804C47.0143 76.63 52.6806 76.1135 55.7317 76.0029C62.5295 75.7565 65.9144 77.8112 67.4437 76.8852C67.0507 75.892 67.3696 76.035 65.8066 75.4712C59.4612 73.1822 51.0711 74.9159 44.9364 75.9565L45.7951 67.4418C48.8414 66.7931 51.027 66.0627 54.3778 66.0546C56.9133 66.0482 61.2269 67.3993 62.9029 66.5034C61.5206 62.782 49.2517 65.053 46.0086 65.6845L46.8296 57.5616C50.0317 56.5551 56.9474 57.338 58.5316 56.4734C58.1133 55.277 59.0425 55.5318 56.6717 55.1896C53.9816 54.8018 49.6303 55.2978 47.0499 55.6961L48.1646 44.8944L68.7607 44.8431C69.7716 49.761 69.8077 59.2657 70.1298 64.6896L73.6742 123.532C74.1706 125.949 73.5095 124.429 74.8049 125.052C75.966 123.195 74.3878 108.194 74.1875 104.988C73.7143 97.4228 70.3005 47.9419 70.7697 44.8467C72.5891 44.8459 72.6164 45.1809 73.8741 44.2269C73.1521 42.6999 72.7699 43.2312 70.7301 43.2304C70.7737 33.8944 70.1759 36.5733 72.4081 35.3889C73.7455 34.6793 73.0143 36.1978 73.3857 34.2477L70.2296 33.8066C68.9298 27.4099 65.5842 23.4421 59.0901 22.2897L59.5145 8.08711C59.0216 2.55624 58.4683 0.466352 52.5804 0.500409C48.298 0.525651 43.869 1.54174 39.9841 2.61634C19.4048 8.30948 1.12861 26.0873 0.0648289 49.2156C-1.1472 75.5786 14.9378 84.2399 23.0165 98.2759C27.9387 106.828 17.1258 130.386 18.3939 133.531C20.1389 132.803 19.7161 132.556 20.7859 129.001L24.9922 112.392C27.145 100.7 25.3212 97.912 19.8864 90.9644C12.0477 80.9444 1.96399 71.4601 1.6134 52.8453C1.1923 30.4754 17.6579 11.0809 38.1278 4.85129C41.7202 3.75786 45.7398 2.77341 49.7397 2.30061C56.0475 1.55416 57.354 1.79819 57.8981 7.90602Z" fill="#DBDBDB"/>
<path fill-rule="evenodd" clip-rule="evenodd" d="M97.8782 29.3768C92.6198 31.3501 77.8046 33.4849 76.5925 35.6084C77.3226 36.1722 76.4527 35.8637 77.6203 36.0259C79.1368 36.2367 96.57 31.3802 98.6447 30.9486L119.339 25.6898C121.497 25.1766 121.368 25.6117 122 24.269L97.8782 29.3768Z" fill="#DBDBDB"/>
<path fill-rule="evenodd" clip-rule="evenodd" d="M101.39 45.6854C103.427 45.7615 105.427 45.9386 107.485 46.1185C109.652 46.3077 111.322 46.9155 112.245 45.5877C110.488 43.6805 104.065 44.5199 101.062 43.8896C94.4857 43.9441 82.98 42.1515 77.7032 42.0822C75.8244 42.0577 76.1638 41.8189 75.8208 43.2826C78.6467 44.457 96.3869 45.0283 101.39 45.6854Z" fill="#DBDBDB"/>
</g>
<defs>
<clipPath id="clip0_152_2">
<rect width="122" height="152" fill="white" transform="translate(0 0.5)"/>
</clipPath>
</defs>
</svg>
