<svg width="126" height="154" viewBox="0 0 126 154" fill="none" xmlns="http://www.w3.org/2000/svg">
<g clip-path="url(#clip0_152_9)">
<path fill-rule="evenodd" clip-rule="evenodd" d="M67.8835 67.7304C70.256 60.2353 74.2211 47.4552 70.7734 39.3077C68.1069 33.006 59.0837 24.6571 49.825 30.4794C36.6114 38.7891 43.8949 66.0531 67.8835 67.7304ZM81.9687 14.348C83.1695 16.6558 87.1784 19.4296 89.8282 28.3795C91.6337 34.4774 92.2252 41.0251 91.351 47.5727C90.5539 53.5444 88.056 59.8214 84.8109 62.8904C76.1411 71.0908 71.2632 67.9153 69.2306 69.5117C67.5846 70.8043 64.1717 85.4061 68.6739 95.7416C69.4517 97.5275 71.8109 101.46 71.9666 102.681C70.0848 103.279 69.2563 100.457 67.546 96.8694C62.0593 85.3623 66.2081 77.9881 67.3987 69.2135C56.7185 67.9693 48.9232 62.3556 45.0533 55.6137C39.6433 46.1879 41.1668 34.7684 48.5479 29.6188C58.1879 22.8935 68.209 30.8275 71.5951 37.6382C73.9164 42.3063 73.9452 47.7466 73.0997 53.296C72.3041 58.5212 70.3414 63.1145 69.5719 67.7909C92.1614 67.0577 93.0919 39.6489 87.3504 25.7248C85.337 20.8432 81.268 15.0934 78.089 13.0728C74.8326 9.42066 67.8488 5.95899 61.8091 4.20226C47.7481 0.112432 32.0268 1.61102 19.324 8.53927C9.83899 13.7123 5.16599 23.3191 8.63599 33.8307C9.95699 37.8325 11.569 38.9252 13.528 41.7689C16.095 45.4936 16.188 61.2153 13.802 64.2102C12.185 66.2394 1.34599 74.9909 1.90899 77.3807C2.60799 80.351 7.44899 81.4773 8.90699 83.1883C12.203 87.0586 8.35599 89.6116 8.82999 93.4981C9.62799 94.468 10.806 95.1456 11.543 96.3921C12.483 97.9829 12.004 99.63 12.157 101.628C15.206 104.198 16.517 103.024 18.42 107.911C19.828 111.525 19.514 114.949 20.636 118.097C26.1523 133.575 52.0863 103.403 50.7517 130.304C50.5609 134.151 50.2203 138.003 49.8367 141.827L48.913 150.179C48.5978 152.332 48.9886 151.882 47.8109 152.466C46.5047 150.925 47.8895 146.179 48.1314 143.968C48.6193 139.5 49.7585 128.762 49.1628 124.726C47.2379 111.689 27.6872 131.883 20.217 120.653C18.571 118.179 18.73 115.699 18.148 112.426C16.031 100.508 10.619 106.833 10.619 99.9195C10.62 94.5356 7.56599 96.4764 7.22199 93.0151C6.92699 90.0448 9.83799 88.1085 8.29599 85.0966C7.06099 82.683 -3.31301 79.492 1.58199 74.2467C14.232 60.6903 12.894 66.6034 13.771 55.9791C15.243 38.1413 10.024 44.8306 6.74799 32.6931C3.68399 21.3386 9.74999 11.6468 20.224 6.43141C37.1254 -1.98484 60.7285 -1.91264 76.4408 9.67501C78.4953 11.1902 80.288 13.2312 81.9687 14.348Z" fill="#DBDBDB"/>
<path fill-rule="evenodd" clip-rule="evenodd" d="M81.369 77.2836C75.9196 77.1612 71.6438 79.839 71.0376 84.4009C73.5223 84.4285 75.895 83.6892 77.5036 82.5346C78.9156 81.5205 80.9766 79.3454 81.369 77.2836ZM69.6339 85.7434C68.4675 78.5555 79.952 73.531 82.6158 76.3051C84.4942 78.2614 79.7097 82.8033 78.8348 83.4288C76.4877 85.1069 73.3454 86.1788 69.6339 85.7434Z" fill="#DBDBDB"/>
<path fill-rule="evenodd" clip-rule="evenodd" d="M61.7827 94.0722C57.2673 91.2958 51.2499 93.1625 49.5714 96.5815C53.8974 98.2978 59.8056 97.1877 61.7827 94.0722ZM63.6309 93.926C61.8866 98.3408 52.0602 101.187 47.863 96.9209C48.3582 91.9451 59.4779 88.7253 63.6309 93.926Z" fill="#DBDBDB"/>
<path fill-rule="evenodd" clip-rule="evenodd" d="M85.8262 92.5672C81.6581 89.909 75.4574 91.4012 73.6761 95.0186C78.2422 96.855 83.5925 95.7987 85.8262 92.5672ZM87.6025 92.6424C86.7155 94.7207 83.6529 96.4461 80.9857 97.1238C77.3895 98.038 74.2872 97.0656 71.789 95.7144C72.8525 89.3228 85.441 87.6617 87.6025 92.6424Z" fill="#DBDBDB"/>
<path fill-rule="evenodd" clip-rule="evenodd" d="M60.4379 83.3438C58.491 79.647 53.0546 78.3091 48.4319 80.4347C49.6753 83.402 56.4887 85.6002 60.4379 83.3438ZM62.2876 84.1507C59.8581 85.6417 56.4985 86.3356 53.0213 85.3042C50.1436 84.4508 46.7628 82.5849 46.6366 79.8591C52.1453 76.007 61.1927 78.5113 62.2876 84.1507Z" fill="#DBDBDB"/>
<path fill-rule="evenodd" clip-rule="evenodd" d="M63.6309 93.926C59.4779 88.7254 48.3582 91.9452 47.863 96.9209C52.0602 101.187 61.8866 98.3409 63.6309 93.926ZM87.6025 92.6425C85.441 87.6618 72.8525 89.3229 71.789 95.7145C74.2872 97.0657 77.3895 98.0382 80.9857 97.1239C83.6529 96.4462 86.7155 94.7209 87.6025 92.6425ZM62.2876 84.1507C61.1927 78.5112 52.1453 76.0069 46.6366 79.859C46.7629 82.5848 50.1436 84.4507 53.0214 85.3042C56.4985 86.3356 59.8581 85.6417 62.2876 84.1507ZM78.8348 83.4288C79.7097 82.8033 84.4942 78.2614 82.6158 76.3051C79.952 73.5309 68.4675 78.5554 69.6339 85.7433C73.3454 86.1787 76.4877 85.1069 78.8348 83.4288ZM78.0891 13.0729C81.268 15.0934 85.3371 20.8432 87.3504 25.7249C93.0919 39.649 92.1614 67.0578 69.5719 67.791C70.3414 63.1146 72.3041 58.5213 73.0997 53.2961C73.9452 47.7466 73.9165 42.3064 71.5951 37.6383C68.209 30.8276 58.188 22.8936 48.5479 29.6189C41.1669 34.7685 39.6433 46.188 45.0534 55.6137C48.9232 62.3556 56.7185 67.9694 67.3987 69.2136C66.2081 77.9881 62.0593 85.3624 67.5461 96.8695C69.2563 100.457 70.0848 103.279 71.9666 102.681C71.8109 101.461 69.4517 97.5275 68.6739 95.7417C64.1717 85.4062 67.5846 70.8044 69.2306 69.5118C71.2633 67.9153 76.1411 71.0909 84.811 62.8905C88.0561 59.8215 90.5539 53.5444 91.351 47.5728C92.2253 41.0251 91.6338 34.4775 89.8283 28.3796C87.1784 19.4296 83.1695 16.6558 81.9688 14.3481C91.4754 16.3006 99.231 23.0474 103.412 28.0719C118.265 45.9207 107.401 61.7313 109.106 70.3157C110.756 78.6258 133.86 75.9616 123.201 103.404C119.604 112.663 114.184 117.087 102.175 117.539C99.5039 117.64 96.4644 117.628 93.8357 117.162C91.8904 116.817 88.5508 115.217 86.9838 115.579C82.5973 116.59 86.4641 124.869 87.3606 128.428C92.672 149.507 94.987 149.524 85.2668 151.464C80.2752 152.46 74.7366 152.884 69.5916 153.191C49.4285 154.392 54.8473 152.347 54.7581 133.718C54.7426 130.53 55.1061 118.703 54.2784 116.543C50.9305 107.803 34.0844 122.349 27.4944 115.52C24.131 112.036 25.968 105.612 22.922 102.555C21.176 100.802 18.783 101.501 18.819 98.2948C18.887 92.2665 17.273 95.3449 16.278 92.4671C15.409 89.9572 17.825 88.55 17.267 85.5204C16.774 82.8403 14.821 82.4007 12.676 81.1289C6.089 77.2228 11.9 73.8503 14.611 70.9994C20.525 64.7787 21.681 65.9352 21.807 60.5588C21.938 55.0154 22.798 49.997 20.509 45.0681C18.649 41.0618 15.879 37.8715 15.379 32.7098C14.838 27.1157 17.009 22.2995 19.672 19.1609C29.8502 7.16624 60.5744 9.16939 78.0891 13.0729Z" fill="white"/>
<path fill-rule="evenodd" clip-rule="evenodd" d="M67.8835 67.7304C43.8948 66.053 36.6113 38.789 49.8249 30.4794C59.0836 24.657 68.1068 33.006 70.7733 39.3076C74.221 47.4551 70.2559 60.2352 67.8835 67.7304Z" fill="white"/>
<path fill-rule="evenodd" clip-rule="evenodd" d="M71.0375 84.4008C71.6438 79.8389 75.9196 77.1611 81.3689 77.2836C80.9766 79.3453 78.9156 81.5204 77.5036 82.5345C75.895 83.6891 73.5222 84.4284 71.0375 84.4008Z" fill="white"/>
<path fill-rule="evenodd" clip-rule="evenodd" d="M60.438 83.3436C56.4888 85.6 49.6754 83.4018 48.432 80.4345C53.0547 78.3089 58.4912 79.6469 60.438 83.3436Z" fill="white"/>
<path fill-rule="evenodd" clip-rule="evenodd" d="M85.8262 92.5672C83.5925 95.7987 78.2422 96.8551 73.6761 95.0186C75.4574 91.4012 81.6581 89.9091 85.8262 92.5672Z" fill="white"/>
<path fill-rule="evenodd" clip-rule="evenodd" d="M61.7827 94.0723C59.8056 97.1878 53.8975 98.2979 49.5714 96.5816C51.2499 93.1626 57.2673 91.2959 61.7827 94.0723Z" fill="white"/>
</g>
<defs>
<clipPath id="clip0_152_9">
<rect width="126" height="153" fill="white" transform="matrix(-1 0 0 1 126 0.5)"/>
</clipPath>
</defs>
</svg>
