<svg width="120" height="154" viewBox="0 0 120 154" fill="none" xmlns="http://www.w3.org/2000/svg">
<path fill-rule="evenodd" clip-rule="evenodd" d="M102.254 17.0787C106.014 25.9802 100.662 34.3745 95.4777 37.3885L96.0464 43.1944C98.9868 42.93 99.899 42.9173 102.777 43.5465C102.659 40.0729 103.915 36.4774 107.183 36.3408C107.812 40.1963 106.967 42.6915 104.408 44.1597C105.121 46.3112 106.729 48.0263 105.596 50.7222C105.216 51.6265 104.371 52.4962 103.741 52.955C103.334 53.2524 102.619 53.6379 102.219 53.698C101.175 53.8545 102.877 53.841 101.503 53.7123C100.574 53.6251 100.977 53.6924 100.402 53.3695C101.683 51.2582 102.229 53.0294 103.745 51.1272C106.389 47.8097 102.62 42.5346 96.0623 44.9294C93.8065 51.2426 95.5171 50.9611 90.872 55.3928C87.3857 58.719 83.3053 58.7951 80.1729 61.0279C78.8839 64.3481 79.1277 69.1792 80.8527 72.1873C82.9178 68.9753 83.8178 66.8879 88.8798 66.5972C99.068 66.0126 93.2848 63.2315 94.7725 59.8181C97.5046 60.6452 96.3092 64.687 95.5359 66.4738C99.0998 66.606 101.588 67.9957 102.305 70.876C98.174 71.7353 95.0309 70.2803 93.8347 67.7731C87.8632 68.3955 83.2009 67.4928 82.3484 73.6559C82.7056 75.3777 86.473 76.7137 87.1548 77.1354C88.9352 78.2373 87.9372 76.928 88.3876 78.6884C85.452 79.1177 81.0168 75.1065 79.9806 73.5026C77.3994 69.5085 77.8514 66.4328 78.4419 61.3512C68.7021 63.2698 49.8983 68.2323 56.4711 79.9173C58.1974 77.3604 57.4846 71.9256 66.692 73.1701C66.7652 69.7514 68.1008 66.6701 71.2132 66.3244C71.7751 71.539 70.5681 71.4494 68.8777 74.7024C69.8147 75.3327 71.5007 76.5955 70.8114 78.4742C68.3637 78.0788 70.4104 77.3572 68.0092 75.5486C66.8803 74.698 65.1015 74.1329 63.3402 74.3758C59.5903 74.8923 58.0504 77.4396 58.4319 81.5344C59.1674 83.0783 64.0399 83.6386 64.4142 83.7477C66.2914 84.2944 65.309 83.6246 65.7972 84.9754C57.6833 87.2081 53.6709 77.274 53.6709 77.2736L53.1994 76.8451C52.9796 76.6978 52.4807 76.5445 52.2322 76.4633C51.5433 76.2375 51.1698 76.2395 50.4781 75.9539C48.5284 75.1504 47.2526 73.63 46.6413 71.578C50.0114 70.6191 52.1047 72.2434 53.6689 73.5499C56.4707 67.4553 60.4409 64.9558 67.6421 62.8951C64.595 52.8936 49.5976 46.4442 48.8996 57.301C50.9324 55.617 52.6897 53.5089 56.9593 54.9599C57.1966 55.6779 57.1385 56.1151 56.3764 56.9231C54.412 59.0053 52.3433 58.8636 50.9786 59.1702L49.5829 59.6807C52.2286 62.9154 52.5961 60.5134 53.0812 62.8365C48.9693 64.4795 43.3437 55.0798 51.7671 50.672C51.7018 48.9999 51.3426 48.53 50.5203 47.5278C47.9646 48.1458 46.9766 51.8965 41.5554 50.2141C41.7812 47.7145 43.5862 46.7174 46.2542 45.9361C45.3081 45.289 43.2171 43.1518 44.6582 41.3388C46.5828 42.4725 44.5125 43.8965 49.0692 45.3599C52.1056 46.3355 52.9987 46.6489 53.246 50.2646C60.5177 50.015 63.5545 54.4379 66.6665 57.8465C67.1479 54.504 68.9813 50.9269 72.3621 51.3609C72.5408 55.7372 70.3654 57.4157 67.6831 59.2299L68.9849 62.3527C73.6387 61.2405 85.178 58.3587 87.8719 55.6238C86.397 53.5029 83.8556 49.5678 87.0906 46.7146C88.9212 48.1004 89.9036 50.7863 89.7845 54.2459C93.8319 51.7074 94.8414 45.2966 94.2266 38.8767C90.1166 40.579 88.787 42.6453 81.6965 44.3879C72.4206 46.6676 59.3016 45.2078 54.2543 37.471C50.9125 32.3488 52.7845 27.9084 54.5585 23.4293C51.4087 23.4874 49.9608 23.2003 48.2186 21.3626C48.9935 20.2747 48.1784 20.8644 49.7123 20.0999C52.2927 18.8133 54.3933 19.6726 56.2398 20.643C57.9875 21.5617 57.5144 21.054 59.6409 20.1329C65.6741 17.5199 77.4169 18.1574 82.6888 21.001C83.4888 21.0484 83.2806 21.2491 83.4016 20.5116C83.5506 17.2758 84.1387 15.3305 86.2417 14.2315C88.5959 18.069 87.0624 19.5416 86.2401 23.0514C93.1391 28.2867 92.4036 30.6556 95.1608 35.8005C98.6085 34.568 102.698 27.4194 102.305 22.2837C101.909 17.0958 96.9475 11.6849 93.2422 10.8192C83.8377 6.93149 66.6032 7.6395 55.8603 9.02925C20.5168 13.6003 30.4824 42.7003 21.3542 56.2187C18.5532 60.3668 14.5273 63.1487 11.5586 66.7075C5.38759 74.1042 10.9315 74.2456 16.6458 77.2676C16.8998 80.396 15.8195 80.5381 15.3321 82.7892C14.699 85.7144 16.1671 85.6894 17.5585 87.1799C17.1208 88.8093 15.667 90.086 16.6318 92.177C17.5553 94.1792 18.73 93.9299 18.1112 97.4923C17.4645 101.214 16.2635 105.361 18.337 108.981C22.1276 115.598 34.3589 110.611 41.6975 111.463C45.2854 117.936 46.1129 136.57 49.2671 147.489C50.097 150.361 50.7453 151.417 54.1054 151.802C67.2944 153.313 86.2795 149.047 97.292 142.062C102.315 138.876 102.719 136.772 100.506 130.521C97.6635 122.492 95.2938 107.951 96.6178 99.4391C97.9407 90.935 105.501 85.945 110.829 78.5013C113.21 75.1738 115.37 71.6505 117.138 67.2248C124.312 49.2628 117.174 31.3561 104.892 18.8443C103.266 17.1874 103.345 17.3196 102.254 17.0787Z" fill="white"/>
<path fill-rule="evenodd" clip-rule="evenodd" d="M75.3947 39.4167L74.3498 38.7859L75.2267 38.4439C77.7951 38.0942 79.5958 36.7053 80.1852 34.8867C78.7699 33.7916 76.7435 33.8362 74.9746 34.5342C72.8936 35.3557 73.1345 36.2426 71.2621 37.1632C69.4618 36.0446 65.7537 33.702 67.5906 30.3391C68.221 29.1851 69.8628 28.5372 71.5114 29.1612C73.5112 29.9178 72.4798 31.1734 74.6596 31.073C74.7285 28.8924 72.5985 27.3259 69.9253 27.5098C66.846 27.7221 66.8256 29.1672 65.504 31.1403C63.8713 29.7601 62.2483 28.9024 59.2975 29.6872C60.5897 35.1276 63.9486 32.7383 68.3615 36.8845C71.4393 39.7763 75.9904 39.9276 77.4133 43.7321C69.7151 44.7738 60.8505 42.6179 56.8529 38.4725C51.6208 33.0477 53.4143 23.9459 60.4288 21.3539C72.1306 17.0298 90.6413 20.9366 93.7772 37.2871C90.0986 39.6815 85.1055 42.5558 79.3784 43.4207C77.8704 42.1281 77.5693 40.6699 75.3947 39.4167ZM93.2421 10.8193C96.9474 11.685 101.909 17.0959 102.305 22.2837C102.698 27.4194 98.6083 34.5681 95.1606 35.8006C92.4034 30.6557 93.1389 28.2867 86.24 23.0515C87.0623 19.5417 88.5958 18.0691 86.2416 14.2315C84.1386 15.3306 83.5504 17.2758 83.4015 20.5117L83.2717 21.06C81.7466 20.5396 80.0797 19.81 78.3279 19.3879C72.3687 17.952 65.4156 17.6318 59.6407 20.133C57.5143 21.0541 57.9874 21.5618 56.2397 20.6431C54.3932 19.6727 52.2926 18.8133 49.7122 20.0999C48.1783 20.8645 48.9934 20.2748 48.2185 21.3627C49.9607 23.2004 51.4086 23.4875 54.5584 23.4294C52.7844 27.9084 50.9124 32.3489 54.2542 37.471C59.3015 45.2078 72.4205 46.6677 81.6964 44.3879C88.7869 42.6454 90.1165 40.5791 94.2264 38.8767C94.8413 45.2967 93.8318 51.7074 89.7844 54.246C89.9035 50.7864 88.9211 48.1004 87.0905 46.7147C83.8555 49.5679 86.3968 53.503 87.8718 55.6238C85.1779 58.3587 73.6386 61.2406 68.9847 62.3528L67.683 59.23C70.3653 57.4158 72.5407 55.7373 72.3619 51.361C68.9811 50.9269 67.1478 54.504 66.6664 57.8466C63.5544 54.4379 60.5176 50.015 53.2459 50.2647C52.9986 46.649 52.1054 46.3356 49.0691 45.36C44.5124 43.8966 46.5827 42.4726 44.6581 41.3389C43.217 43.1519 45.308 45.2891 46.2541 45.9362C43.5861 46.7175 41.781 47.7146 41.5553 50.2141C46.9765 51.8966 47.9644 48.1458 50.5201 47.5278C51.3425 48.5301 51.7017 49 51.767 50.6721C43.3436 55.0799 48.9691 64.4796 53.0811 62.8366C52.596 60.5134 52.2285 62.9154 49.5828 59.6808L50.9785 59.1703C52.3432 58.8637 54.4119 59.0054 56.3762 56.9232C57.1384 56.1152 57.1965 55.678 56.9592 54.96C52.6896 53.5089 50.9323 55.6171 48.8995 57.3011C49.5975 46.4443 64.5949 52.8937 67.642 62.8951C60.4408 64.9559 56.4706 67.4554 53.6688 73.55C52.1046 72.2435 50.0113 70.6192 46.6412 71.5781C47.2525 73.6301 48.5283 75.1504 50.478 75.954C51.1696 76.2395 51.5432 76.2375 52.2321 76.4633C52.4805 76.5446 52.9795 76.6979 53.1993 76.8452L53.6708 77.2737C53.6708 77.2741 57.6832 87.2082 65.7971 84.9754C65.3089 83.6247 66.2912 84.2945 64.4141 83.7478C64.0398 83.6386 59.1673 83.0784 58.4318 81.5345C58.0503 77.4397 59.5902 74.8924 63.3401 74.3759C65.1014 74.133 66.8802 74.6981 68.0091 75.5486C70.4103 77.3573 68.3635 78.0789 70.8113 78.4743C71.5006 76.5955 69.8146 75.3328 68.8776 74.7024C70.568 71.4495 71.775 71.539 71.2131 66.3245C68.1007 66.6701 66.7651 69.7515 66.6918 73.1701C57.4844 71.9257 58.1972 77.3605 56.471 79.9174C49.8982 68.2323 68.702 63.2698 78.4418 61.3513C77.8513 66.4328 77.3993 69.5086 79.9805 73.5026C81.0166 75.1066 85.4519 79.1178 88.3875 78.6885C87.9371 76.928 88.935 78.2373 87.1546 77.1355C86.4729 76.7138 82.7054 75.3778 82.3482 73.6559C83.2008 67.4929 87.8631 68.3956 93.8346 67.7732C95.0308 70.2803 98.1739 71.7354 102.305 70.876C101.588 67.9958 99.0997 66.606 95.5357 66.4738C96.3091 64.6871 97.5045 60.6452 94.7724 59.8182C93.2847 63.2316 99.0679 66.0127 88.8797 66.5973C83.8177 66.888 82.9177 68.9754 80.8526 72.1873C79.1275 69.1793 78.8838 64.3482 80.1728 61.0279C83.3052 58.7952 87.3856 58.7191 90.8719 55.3928C95.517 50.9612 93.8064 51.2427 96.0622 44.9295C102.62 42.5347 106.389 47.8098 103.745 51.1272C102.228 53.0295 101.683 51.2582 100.402 53.3695C100.976 53.6925 100.574 53.6252 101.503 53.7124C102.877 53.841 101.175 53.8546 102.219 53.6981C102.619 53.6379 103.334 53.2525 103.741 52.955C104.371 52.4963 105.216 51.6266 105.596 50.7222C106.729 48.0264 105.121 46.3113 104.407 44.1598C106.967 42.6916 107.812 40.1964 107.183 36.3409C103.915 36.4775 102.659 40.0729 102.777 43.5465C99.8989 42.9174 98.9866 42.9301 96.0463 43.1945L95.4776 37.3886C100.662 34.3746 106.013 25.9803 102.254 17.0787L99.4653 13.4574C88.3035 2.03757 58.6297 -2.40008 43.9489 1.24672C30.3174 4.6327 21.7619 13.8831 19.5219 28.2437C18.5153 34.6979 17.912 44.6954 15.9468 50.3694C14.2911 55.1495 7.14202 60.114 3.91493 64.0244C2.54947 65.6786 -1.07186 68.7974 0.308334 72.4394C1.49818 75.5785 5.3875 75.4439 8.35854 77.4823C8.40235 80.0305 7.10137 81.1984 6.77842 83.2181C6.30854 86.1553 7.97228 86.6627 9.30589 87.9847C5.28676 94.7176 11.2392 92.7991 9.74668 99.1453C8.60541 103.997 8.41308 108.409 10.4284 112.833C15.1249 123.143 26.3377 116.122 35.6307 117.439C37.1957 120.975 40.3917 138.937 41.6767 145.135C42.3067 148.175 42.8968 153.094 44.7617 153.837C45.2618 152.427 41.6572 138.014 41.038 134.934C39.9374 129.46 39.0808 120.195 36.2563 116.028C26.2561 114.582 14.6431 122.195 11.064 110.401C9.11592 103.98 12.1638 99.2536 11.3359 95.8103C10.7812 93.5015 8.54172 92.6935 9.84187 89.8141C11.4192 86.3202 11.1356 87.3623 8.17814 85.0782C8.11045 81.6189 10.1198 80.5398 9.77577 76.9121C8.82444 74.7502 -4.46581 74.0095 4.53811 65.5488C6.62194 63.5908 8.03359 61.7562 9.99995 59.7417C11.776 57.9231 14.3834 55.7596 15.7792 53.7905C23.9026 42.3244 11.8923 1.5609 55.9311 1.30445C64.2445 1.25587 89.8557 5.62862 93.2421 10.8193Z" fill="#38FF38"/>
<path fill-rule="evenodd" clip-rule="evenodd" d="M73.9262 38.6251L75.3948 39.4167C77.5694 40.6699 77.8705 42.1281 79.3785 43.4207C85.1055 42.5558 90.0987 39.6815 93.7773 37.2871C90.6414 20.9366 72.1307 17.0298 60.4289 21.354C53.4144 23.9459 51.6209 33.0478 56.853 38.4726C60.8506 42.6179 69.7151 44.7739 77.4133 43.7321C75.9905 39.9276 71.4394 39.7763 68.3616 36.8845C63.9486 32.7384 60.5898 35.1276 59.2976 29.6873C62.2483 28.9024 63.8714 29.7601 65.5041 31.1403C66.8257 29.1672 66.846 27.7221 69.9254 27.5099C72.5986 27.3259 74.7286 28.8924 74.6597 31.073C72.4799 31.1734 73.5113 29.9178 71.5115 29.1612C69.8629 28.5373 68.2211 29.1851 67.5907 30.3392C65.7538 33.702 69.4619 36.0447 71.2622 37.1633C73.1346 36.2426 72.8936 35.3558 74.9747 34.5343C76.7435 33.8362 78.77 33.7916 80.1852 34.8867C79.5959 36.7053 76.4946 38.2755 73.9262 38.6251Z" fill="white"/>
</svg>
