<svg width="1200" height="800" viewBox="0 0 1200 800" fill="none" xmlns="http://www.w3.org/2000/svg">
<g clip-path="url(#clip0_16_3)">
<path d="M1200 0H0V800H1200V0Z" fill="#D3EDF2"/>
<path d="M1200 273H0V800.453H1200V273Z" fill="#06B7A7"/>
<path d="M1200 241.445H0V272.547H1200V241.445Z" fill="#D5CDC3"/>
<path d="M1200 268.099H0V276.997H1200V268.099Z" fill="white"/>
<mask id="mask0_16_3" style="mask-type:luminance" maskUnits="userSpaceOnUse" x="0" y="108" width="313" height="174">
<path d="M312.469 108.316H0V281.445H312.469V108.316Z" fill="white"/>
</mask>
<g mask="url(#mask0_16_3)">
<path d="M107.101 219.752C101.424 217.058 94.828 217.058 89.15 219.752C57.745 234.654 -2.13196 241.446 -2.13196 241.446H198.383C198.383 241.446 138.505 234.654 107.101 219.752Z" fill="#568785"/>
<path d="M182.607 212.944C177.608 209.404 171.8 209.404 166.801 212.944C139.149 232.523 86.428 241.446 86.428 241.446H262.98C262.98 241.446 210.259 232.523 182.607 212.944Z" fill="#568785"/>
<path d="M243.711 231.557C246.299 230.329 249.305 230.329 251.893 231.557C266.208 238.35 293.5 241.445 293.5 241.445H202.104C202.104 241.445 229.396 238.35 243.711 231.557Z" fill="#568785"/>
<path d="M35.292 228.273C31.845 226.637 27.839 226.637 24.392 228.273C5.32303 237.322 -31.035 241.446 -31.035 241.446H90.719C90.719 241.446 54.361 237.322 35.292 228.273Z" fill="#568785"/>
</g>
<g opacity="0.2">
<path d="M314.304 350.274C316.65 350.673 318.857 350.673 321.064 350.673C317.754 346.26 312.237 345.156 308.699 340.605C308.34 340.066 308.093 339.524 307.873 338.988C306.448 335.248 305.182 331.923 305.182 331.923C305.183 331.923 305.184 331.923 305.185 331.923L304.62 330.444H173.57H173.569H173.552H173.55H171.001L175.513 336.621C175.522 336.633 175.532 336.643 175.541 336.655C175.854 337.08 176.192 337.482 176.542 337.871C176.624 337.962 176.704 338.053 176.788 338.142C177.143 338.519 177.513 338.879 177.9 339.218C177.982 339.29 178.067 339.357 178.15 339.427C178.516 339.735 178.893 340.027 179.284 340.302C179.346 340.345 179.405 340.393 179.467 340.435C179.895 340.726 180.342 340.992 180.812 341.242C206.314 350.672 233.898 335.225 257.069 351.775C258.172 352.878 250.449 357.292 250.155 362.895C250.266 363.625 250.373 364.372 250.475 365.133L182.62 370.796C182.629 371.457 183.244 371.942 183.995 371.88L185.379 371.764C185.379 371.765 185.38 371.766 185.381 371.767C186.936 374.471 188.448 377.194 189.92 379.931C190.214 380.478 190.489 381.028 190.641 381.59C187.557 390.393 195.28 394.807 199.818 399.799C200.074 400.353 200.328 400.908 200.581 401.463C201.269 402.971 201.945 404.48 202.61 405.988C203.275 407.496 203.579 409.071 202.354 410.937C200.797 413.564 199.693 414.667 198.59 416.874C197.487 422.391 205.21 421.287 208.218 424.357C210.462 425.525 211.207 426.977 211.764 428.459C212.321 429.94 212.867 431.417 213.403 432.888C213.49 434.056 213.57 435.22 213.314 436.405C210.727 441.148 211.831 447.769 216.832 449.925C218.196 450.955 219.139 452.009 220.252 453.045C220.85 454.937 221.431 456.812 221.996 458.668C222.284 459.287 222.504 459.903 222.733 460.518C225.071 465.423 225.071 470.94 226.748 474.812C226.873 475.387 227.003 475.959 227.087 476.529C228.847 483.131 230.374 489.353 231.69 495.081C231.953 496.227 232.208 497.352 232.362 498.467C229.485 504.041 230.589 508.455 235.445 513.383C235.694 514.25 235.888 515.097 236.042 515.921C237.584 524.163 238.41 529.791 238.703 531.888C238.612 528.228 238.876 522.546 239.406 515.452C238.913 514.725 238.574 513.964 237.991 513.213C236.105 509.558 230.588 508.455 231.692 506.248C231.692 502.938 237.209 500.731 239.908 496.753C240.594 495.697 240.989 494.661 241.387 493.615C241.905 488.547 242.481 483.21 243.099 477.709C243.157 477.194 243.226 476.678 243.344 476.159C251.554 468.733 253.761 464.32 245.756 455.469C245.781 454.931 245.847 454.392 245.914 453.854C246.047 452.776 246.18 451.698 246.314 450.62C246.314 450.62 246.201 451.89 246.002 454.112C245.953 454.668 245.9 455.283 245.906 455.952C253.761 464.32 252.657 469.837 244.103 476.333C243.968 476.929 243.912 477.529 243.858 478.134C243.428 482.956 242.973 488.055 242.521 493.115C242.423 493.683 242.325 494.25 242.179 494.821C233.9 502.938 229.487 508.455 240.422 516.637C240.341 517.539 240.264 518.412 240.188 519.255C239.511 526.838 239.06 531.888 239.06 531.888H240.466C240.466 531.888 241.127 524.482 241.834 516.547C241.657 515.962 241.512 515.371 241.198 514.798C239.416 511.766 233.899 509.559 233.899 507.352C233.899 502.938 240.519 499.628 244.183 495.548C244.527 495.096 244.785 494.589 245.026 494.024C246.473 490.632 248.896 484.954 251.964 477.762C252.169 477.283 252.378 476.797 252.622 476.306C259.277 468.734 269.207 467.631 261.315 456.161C261.458 455.543 261.707 454.924 261.973 454.301C262.239 453.678 262.506 453.052 262.775 452.422C262.99 451.918 263.206 451.413 263.407 450.906C264.794 447.77 261.484 445.563 261.484 443.356C261.484 437.839 270.311 435.632 272.191 430.352C272.421 429.812 272.652 429.272 272.882 428.732C274.265 425.489 275.654 422.235 277.037 418.993C277.383 418.183 277.728 417.373 278.073 416.564C276.931 410.255 268.104 411.358 268.104 409.152C268.104 400.325 282.448 402.532 287.138 395.317C287.46 394.562 287.78 393.812 288.098 393.068C289.051 390.834 289.985 388.646 290.894 386.515C290.942 386.05 291.034 385.584 291.057 385.126C291.275 380.465 292.378 377.155 295.811 374.401C296.11 373.974 296.352 373.555 296.6 373.139C298.519 368.641 300.226 364.639 301.654 361.294C301.945 360.613 302.239 359.96 302.586 359.339C306.723 356.191 310.033 352.88 313.932 350.759C314.201 350.439 314.304 350.274 314.304 350.274ZM257.384 347.406C268.101 347.363 279.135 347.363 290.169 349.57C279.135 348.467 268.101 352.88 257.376 349.283C257.39 348.343 257.384 347.406 257.384 347.406ZM247.443 404.507C237.206 410.255 248.24 414.669 252.014 420.436C252.202 421.797 252.154 423.187 252.101 424.577C252.049 425.966 251.991 427.355 251.93 428.742C251.838 430.822 251.699 432.898 248.705 435.144C244.93 436.737 241.62 440.047 240.517 442.254C238.31 448.874 249.344 446.668 250.363 453.082C250.321 453.569 250.28 454.054 250.237 454.537C250.195 455.02 250.155 455.502 250.143 455.984C255.964 464.322 254.861 468.736 247.784 476.563C247.646 477.46 247.517 478.341 247.387 479.204C246.654 484.059 245.868 488.356 245.046 491.917C244.882 492.629 244.716 493.312 244.549 493.964C244.931 496.319 243.828 497.423 241.621 497.423C242.724 496.32 243.828 495.216 243.806 494.423C243.864 493.77 243.931 493.022 244.005 492.189C244.302 488.858 244.72 484.17 245.204 478.742C245.252 478.199 245.302 477.649 245.351 477.092C252.655 469.839 255.965 464.322 247.289 455.175C247.33 454.545 247.356 453.916 247.351 453.291C247.341 452.04 247.208 450.802 246.83 449.59C242.725 445.564 243.829 440.047 247.925 435.467C249.261 433.223 249.444 431.17 249.613 429.276C249.838 426.749 250.038 424.504 250.205 422.632C250.372 420.761 250.216 419.298 249.422 418.377C244.932 415.774 238.311 411.36 244.564 406.871C245.42 406.089 246.407 405.298 247.443 404.507Z" fill="black"/>
</g>
<path d="M258.413 129H257.021V316.724H258.413V129Z" fill="#D5CDC3"/>
<path d="M314.107 310.133L313.425 311.596L304.618 330.445H171L176.087 324.268C179.358 320.303 184.124 317.87 189.255 317.558L314.107 310.133Z" fill="#ED9914"/>
<path d="M313.425 311.596L304.618 330.445C233.007 330.445 172.239 330.445 173.569 330.445L177.558 325.603C180.825 321.638 185.595 319.209 190.722 318.893L313.425 311.596Z" fill="#FFC05C"/>
<path d="M258.388 163.283L308.846 312.916L249.979 308.276C261.578 277.828 263.984 186.523 258.388 163.283Z" fill="white"/>
<path d="M310.593 313.864C309.979 313.815 249.135 308.918 248.226 308.846C248.283 308.128 248.908 307.592 249.626 307.649C257.753 308.302 301.282 311.805 309.399 312.458C310.118 312.517 310.651 313.146 310.593 313.864Z" fill="#545451"/>
<path d="M263.583 296.159L188.764 289.769C188.908 289.553 189.051 289.336 189.195 289.12C235.147 219.891 254.52 138.468 256.669 129C253.591 156.229 260.041 295.403 262.193 295.325C262.778 295.304 263.503 296.159 263.583 296.159Z" fill="#E5E5E5"/>
<path d="M262.948 295.337L187.822 289.008C187.079 288.945 186.419 289.43 186.349 290.091L263.495 296.59L263.558 295.991C263.593 295.662 263.32 295.368 262.948 295.337Z" fill="#545451"/>
<path opacity="0.35" d="M305.313 328.965L304.62 330.444H173.57C173.554 330.444 173.55 330.444 173.55 330.444H171.001L176.088 324.267C178.096 321.834 180.666 319.978 183.54 318.835C184.334 319.104 185.26 319.396 186.342 319.701C198.235 323.048 228.761 328.131 305.313 328.965Z" fill="black"/>
</g>
<defs>
<clipPath id="clip0_16_3">
<rect width="1200" height="800" fill="white"/>
</clipPath>
</defs>
</svg>
