<svg width="1512" height="418" viewBox="0 0 1512 418" fill="none" xmlns="http://www.w3.org/2000/svg">
<path d="M0 160.6L42 153.414C84 146.658 168 131.643 252 139.15C336 146.658 420 174.542 504 182.05C588 189.557 672 174.542 756 189.236C840 203.5 924 246.4 1008 232.136C1092 217.442 1176 146.657 1260 103.436C1344 60.8575 1428 45.8425 1512 81.9857C1596 117.7 1680 203.5 1764 232.136C1848 260.342 1932 232.457 2016 189.236C2100 146.657 2184 88.7425 2268 89.0642C2352 88.7425 2436 146.658 2520 174.864C2604 203.5 2688 203.5 2772 167.786C2856 131.642 2940 60.8575 3024 24.7142C3108 -11 3192 -11 3276 53.35C3360 117.7 3444 246.4 3528 296.486C3612 346.142 3696 318.258 3780 275.036C3864 232.458 3948 174.542 4032 146.336C4116 117.7 4200 117.7 4284 139.15C4368 160.6 4452 203.5 4536 232.136C4620 260.342 4704 275.357 4788 260.664C4872 246.4 4956 203.5 5040 182.05C5124 160.6 5208 160.6 5292 146.336C5376 131.642 5460 103.757 5544 103.436C5628 103.757 5712 131.643 5796 139.15C5880 146.658 5964 131.642 6006 124.886L6048 117.7V418H6006C5964 418 5880 418 5796 418C5712 418 5628 418 5544 418C5460 418 5376 418 5292 418C5208 418 5124 418 5040 418C4956 418 4872 418 4788 418C4704 418 4620 418 4536 418C4452 418 4368 418 4284 418C4200 418 4116 418 4032 418C3948 418 3864 418 3780 418C3696 418 3612 418 3528 418C3444 418 3360 418 3276 418C3192 418 3108 418 3024 418C2940 418 2856 418 2772 418C2688 418 2604 418 2520 418C2436 418 2352 418 2268 418C2184 418 2100 418 2016 418C1932 418 1848 418 1764 418C1680 418 1596 418 1512 418C1428 418 1344 418 1260 418C1176 418 1092 418 1008 418C924 418 840 418 756 418C672 418 588 418 504 418C420 418 336 418 252 418C168 418 84 418 42 418H0V160.6Z" fill="url(#paint0_linear_1_29)"/>
<defs>
<linearGradient id="paint0_linear_1_29" x1="0" y1="418" x2="0" y2="0.728943" gradientUnits="userSpaceOnUse">
<stop stop-color="#06B7A7"/>
<stop offset="1" stop-color="#06B7A7"/>
</linearGradient>
</defs>
</svg>
