<svg width="1553" height="559" viewBox="0 0 1553 559" fill="none" xmlns="http://www.w3.org/2000/svg">
<g clip-path="url(#clip0_129_10)">
<path d="M1553 233.153L1509.86 239.662C1466.72 245.782 1380.44 259.383 1294.17 252.583C1207.89 245.782 1121.61 220.524 1035.33 213.724C949.056 206.923 862.778 220.524 776.5 207.215C690.222 194.294 603.944 155.435 517.667 168.356C431.389 181.665 345.111 245.782 258.833 284.933C172.555 323.5 86.2778 337.101 -2.95043e-05 304.362C-86.2778 272.012 -172.556 194.294 -258.833 168.356C-345.111 142.806 -431.389 168.065 -517.667 207.215C-603.944 245.782 -690.222 298.242 -776.5 297.95C-862.778 298.242 -949.056 245.782 -1035.33 220.233C-1121.61 194.294 -1207.89 194.294 -1294.17 226.644C-1380.44 259.383 -1466.72 323.5 -1553 356.239C-1639.28 388.589 -1725.56 388.589 -1811.83 330.3C-1898.11 272.012 -1984.39 155.435 -2070.67 110.068C-2156.94 65.0886 -2243.22 90.3468 -2329.5 129.497C-2415.78 168.065 -2502.06 220.524 -2588.33 246.074C-2674.61 272.012 -2760.89 272.012 -2847.17 252.583C-2933.44 233.153 -3019.72 194.294 -3106 168.356C-3192.28 142.806 -3278.56 129.206 -3364.83 142.515C-3451.11 155.435 -3537.39 194.294 -3623.67 213.724C-3709.94 233.153 -3796.22 233.153 -3882.5 246.074C-3968.78 259.383 -4055.06 284.641 -4141.33 284.933C-4227.61 284.641 -4313.89 259.383 -4400.17 252.583C-4486.44 245.782 -4572.72 259.383 -4615.86 265.503L-4659 272.012V0H-4615.86C-4572.72 0 -4486.44 0 -4400.17 0C-4313.89 0 -4227.61 0 -4141.33 0C-4055.06 0 -3968.78 0 -3882.5 0C-3796.22 0 -3709.94 0 -3623.67 0C-3537.39 0 -3451.11 0 -3364.83 0C-3278.56 0 -3192.28 0 -3106 0C-3019.72 0 -2933.44 0 -2847.17 0C-2760.89 0 -2674.61 0 -2588.33 0C-2502.06 0 -2415.78 0 -2329.5 0C-2243.22 0 -2156.94 0 -2070.67 0C-1984.39 0 -1898.11 0 -1811.83 0C-1725.56 0 -1639.28 0 -1553 0C-1466.72 0 -1380.44 0 -1294.17 0C-1207.89 0 -1121.61 0 -1035.33 0C-949.056 0 -862.778 0 -776.5 0C-690.222 0 -603.944 0 -517.667 0C-431.389 0 -345.111 0 -258.833 0C-172.556 0 -86.2778 0 -2.95043e-05 0C86.2778 0 172.555 0 258.833 0C345.111 0 431.389 0 517.667 0C603.944 0 690.222 0 776.5 0C862.778 0 949.056 0 1035.33 0C1121.61 0 1207.89 0 1294.17 0C1380.44 0 1466.72 0 1509.86 0H1553L1553 233.153Z" fill="url(#paint0_linear_129_10)"/>
<path d="M1572 278.206L1528.86 285.973C1485.72 293.276 1399.44 309.504 1313.17 301.39C1226.89 293.276 1140.61 263.137 1054.33 255.022C968.056 246.908 881.778 263.137 795.5 247.256C709.222 231.839 622.944 185.471 536.667 200.888C450.389 216.769 364.111 293.276 277.833 339.991C191.555 386.011 105.278 402.24 19 363.175C-67.2778 324.574 -153.556 231.839 -239.833 200.888C-326.111 170.401 -412.389 200.54 -498.667 247.256C-584.944 293.276 -671.222 355.872 -757.5 355.524C-843.778 355.872 -930.056 293.276 -1016.33 262.789C-1102.61 231.839 -1188.89 231.839 -1275.17 270.44C-1361.44 309.504 -1447.72 386.011 -1534 425.076C-1620.28 463.677 -1706.56 463.677 -1792.83 394.125C-1879.11 324.574 -1965.39 185.471 -2051.67 131.337C-2137.94 77.6659 -2224.22 107.805 -2310.5 154.52C-2396.78 200.54 -2483.06 263.137 -2569.33 293.623C-2655.61 324.574 -2741.89 324.574 -2828.17 301.39C-2914.44 278.206 -3000.72 231.839 -3087 200.888C-3173.28 170.401 -3259.56 154.173 -3345.83 170.054C-3432.11 185.471 -3518.39 231.839 -3604.67 255.022C-3690.94 278.206 -3777.22 278.206 -3863.5 293.623C-3949.78 309.504 -4036.06 339.643 -4122.33 339.991C-4208.61 339.643 -4294.89 309.504 -4381.17 301.39C-4467.44 293.276 -4553.72 309.504 -4596.86 316.807L-4640 324.574V1.99754e-05H-4596.86C-4553.72 1.99754e-05 -4467.44 1.99754e-05 -4381.17 1.99754e-05C-4294.89 1.99754e-05 -4208.61 1.99754e-05 -4122.33 1.99754e-05C-4036.06 1.99754e-05 -3949.78 1.99754e-05 -3863.5 1.99754e-05C-3777.22 1.99754e-05 -3690.94 1.99754e-05 -3604.67 1.99754e-05C-3518.39 1.99754e-05 -3432.11 1.99754e-05 -3345.83 1.99754e-05C-3259.56 1.99754e-05 -3173.28 1.99754e-05 -3087 1.99754e-05C-3000.72 1.99754e-05 -2914.44 1.99754e-05 -2828.17 1.99754e-05C-2741.89 1.99754e-05 -2655.61 1.99754e-05 -2569.33 1.99754e-05C-2483.06 1.99754e-05 -2396.78 1.99754e-05 -2310.5 1.99754e-05C-2224.22 1.99754e-05 -2137.94 1.99754e-05 -2051.67 1.99754e-05C-1965.39 1.99754e-05 -1879.11 1.99754e-05 -1792.83 1.99754e-05C-1706.56 1.99754e-05 -1620.28 1.99754e-05 -1534 1.99754e-05C-1447.72 1.99754e-05 -1361.44 1.99754e-05 -1275.17 1.99754e-05C-1188.89 1.99754e-05 -1102.61 1.99754e-05 -1016.33 1.99754e-05C-930.056 1.99754e-05 -843.778 1.99754e-05 -757.5 1.99754e-05C-671.222 1.99754e-05 -584.944 1.99754e-05 -498.667 1.99754e-05C-412.389 1.99754e-05 -326.111 1.99754e-05 -239.833 1.99754e-05C-153.556 1.99754e-05 -67.2778 1.99754e-05 19 1.99754e-05C105.278 1.99754e-05 191.555 1.99754e-05 277.833 1.99754e-05C364.111 1.99754e-05 450.389 1.99754e-05 536.667 1.99754e-05C622.944 1.99754e-05 709.222 1.99754e-05 795.5 1.99754e-05C881.778 1.99754e-05 968.056 1.99754e-05 1054.33 1.99754e-05C1140.61 1.99754e-05 1226.89 1.99754e-05 1313.17 1.99754e-05C1399.44 1.99754e-05 1485.72 1.99754e-05 1528.86 1.99754e-05H1572L1572 278.206Z" fill="url(#paint1_linear_129_10)"/>
<path d="M1572 333.107L1528.86 342.406C1485.72 351.151 1399.44 370.582 1313.17 360.866C1226.89 351.151 1140.61 315.064 1054.33 305.348C968.056 295.633 881.778 315.064 795.5 296.049C709.222 277.589 622.945 222.071 536.667 240.531C450.389 259.546 364.111 351.151 277.833 407.085C191.555 462.186 105.278 481.618 19 434.844C-67.2778 388.625 -153.556 277.589 -239.833 240.531C-326.111 204.028 -412.389 240.115 -498.667 296.049C-584.944 351.151 -671.222 426.1 -757.5 425.683C-843.778 426.1 -930.056 351.151 -1016.33 314.648C-1102.61 277.589 -1188.89 277.589 -1275.17 323.808C-1361.44 370.582 -1447.72 462.186 -1534 508.96C-1620.28 555.179 -1706.56 555.179 -1792.83 471.902C-1879.11 388.625 -1965.39 222.071 -2051.67 157.254C-2137.94 92.9924 -2224.22 129.079 -2310.5 185.013C-2396.78 240.115 -2483.06 315.064 -2569.33 351.567C-2655.61 388.625 -2741.89 388.625 -2828.17 360.866C-2914.44 333.107 -3000.72 277.589 -3087 240.531C-3173.28 204.028 -3259.56 184.597 -3345.83 203.612C-3432.11 222.071 -3518.39 277.589 -3604.67 305.348C-3690.94 333.107 -3777.22 333.107 -3863.5 351.567C-3949.78 370.582 -4036.06 406.668 -4122.33 407.085C-4208.61 406.668 -4294.89 370.582 -4381.17 360.866C-4467.44 351.151 -4553.72 370.582 -4596.86 379.326L-4640 388.625V0H-4596.86C-4553.72 0 -4467.44 0 -4381.17 0C-4294.89 0 -4208.61 0 -4122.33 0C-4036.06 0 -3949.78 0 -3863.5 0C-3777.22 0 -3690.94 0 -3604.67 0C-3518.39 0 -3432.11 0 -3345.83 0C-3259.56 0 -3173.28 0 -3087 0C-3000.72 0 -2914.44 0 -2828.17 0C-2741.89 0 -2655.61 0 -2569.33 0C-2483.06 0 -2396.78 0 -2310.5 0C-2224.22 0 -2137.94 0 -2051.67 0C-1965.39 0 -1879.11 0 -1792.83 0C-1706.56 0 -1620.28 0 -1534 0C-1447.72 0 -1361.44 0 -1275.17 0C-1188.89 0 -1102.61 0 -1016.33 0C-930.056 0 -843.778 0 -757.5 0C-671.222 0 -584.944 0 -498.667 0C-412.389 0 -326.111 0 -239.833 0C-153.556 0 -67.2778 0 19 0C105.278 0 191.555 0 277.833 0C364.111 0 450.389 0 536.667 0C622.945 0 709.222 0 795.5 0C881.778 0 968.056 0 1054.33 0C1140.61 0 1226.89 0 1313.17 0C1399.44 0 1485.72 0 1528.86 0H1572L1572 333.107Z" fill="url(#paint2_linear_129_10)"/>
<path d="M1572 383.69L1528.86 394.402C1485.72 404.473 1399.44 426.855 1313.17 415.664C1226.89 404.473 1140.61 362.907 1054.33 351.716C968.056 340.525 881.778 362.907 795.5 341.005C709.222 319.742 622.945 255.793 536.667 277.056C450.389 298.959 364.111 404.473 277.833 468.901C191.555 532.37 105.278 554.752 19 500.876C-67.2778 447.639 -153.556 319.742 -239.833 277.056C-326.111 235.01 -412.389 276.577 -498.667 341.005C-584.944 404.473 -671.222 490.804 -757.5 490.324C-843.778 490.804 -930.056 404.473 -1016.33 362.427C-1102.61 319.742 -1188.89 319.742 -1275.17 372.979C-1361.44 426.855 -1447.72 532.37 -1534 586.247C-1620.28 639.484 -1706.56 639.484 -1792.83 543.561C-1879.11 447.639 -1965.39 255.793 -2051.67 181.134C-2137.94 107.113 -2224.22 148.68 -2310.5 213.108C-2396.78 276.577 -2483.06 362.907 -2569.33 404.953C-2655.61 447.639 -2741.89 447.639 -2828.17 415.664C-2914.44 383.69 -3000.72 319.742 -3087 277.056C-3173.28 235.01 -3259.56 212.628 -3345.83 234.531C-3432.11 255.793 -3518.39 319.742 -3604.67 351.716C-3690.94 383.69 -3777.22 383.69 -3863.5 404.953C-3949.78 426.855 -4036.06 468.422 -4122.33 468.901C-4208.61 468.422 -4294.89 426.855 -4381.17 415.664C-4467.44 404.473 -4553.72 426.855 -4596.86 436.927L-4640 447.639V-2.19345e-05H-4596.86C-4553.72 -2.19345e-05 -4467.44 -2.19345e-05 -4381.17 -2.19345e-05C-4294.89 -2.19345e-05 -4208.61 -2.19345e-05 -4122.33 -2.19345e-05C-4036.06 -2.19345e-05 -3949.78 -2.19345e-05 -3863.5 -2.19345e-05C-3777.22 -2.19345e-05 -3690.94 -2.19345e-05 -3604.67 -2.19345e-05C-3518.39 -2.19345e-05 -3432.11 -2.19345e-05 -3345.83 -2.19345e-05C-3259.56 -2.19345e-05 -3173.28 -2.19345e-05 -3087 -2.19345e-05C-3000.72 -2.19345e-05 -2914.44 -2.19345e-05 -2828.17 -2.19345e-05C-2741.89 -2.19345e-05 -2655.61 -2.19345e-05 -2569.33 -2.19345e-05C-2483.06 -2.19345e-05 -2396.78 -2.19345e-05 -2310.5 -2.19345e-05C-2224.22 -2.19345e-05 -2137.94 -2.19345e-05 -2051.67 -2.19345e-05C-1965.39 -2.19345e-05 -1879.11 -2.19345e-05 -1792.83 -2.19345e-05C-1706.56 -2.19345e-05 -1620.28 -2.19345e-05 -1534 -2.19345e-05C-1447.72 -2.19345e-05 -1361.44 -2.19345e-05 -1275.17 -2.19345e-05C-1188.89 -2.19345e-05 -1102.61 -2.19345e-05 -1016.33 -2.19345e-05C-930.056 -2.19345e-05 -843.778 -2.19345e-05 -757.5 -2.19345e-05C-671.222 -2.19345e-05 -584.944 -2.19345e-05 -498.667 -2.19345e-05C-412.389 -2.19345e-05 -326.111 -2.19345e-05 -239.833 -2.19345e-05C-153.556 -2.19345e-05 -67.2778 -2.19345e-05 19 -2.19345e-05C105.278 -2.19345e-05 191.555 -2.19345e-05 277.833 -2.19345e-05C364.111 -2.19345e-05 450.389 -2.19345e-05 536.667 -2.19345e-05C622.945 -2.19345e-05 709.222 -2.19345e-05 795.5 -2.19345e-05C881.778 -2.19345e-05 968.056 -2.19345e-05 1054.33 -2.19345e-05C1140.61 -2.19345e-05 1226.89 -2.19345e-05 1313.17 -2.19345e-05C1399.44 -2.19345e-05 1485.72 -2.19345e-05 1528.86 -2.19345e-05H1572L1572 383.69Z" fill="url(#paint3_linear_129_10)"/>
</g>
<defs>
<linearGradient id="paint0_linear_129_10" x1="1553" y1="0" x2="1553" y2="377.964" gradientUnits="userSpaceOnUse">
<stop stop-color="#06B7A7" stop-opacity="0.5"/>
<stop offset="1" stop-color="#06B7A7" stop-opacity="0.5"/>
</linearGradient>
<linearGradient id="paint1_linear_129_10" x1="1572" y1="0" x2="1572" y2="451" gradientUnits="userSpaceOnUse">
<stop stop-color="#06B7A7" stop-opacity="0.5"/>
<stop offset="1" stop-color="#06B7A7" stop-opacity="0.5"/>
</linearGradient>
<linearGradient id="paint2_linear_129_10" x1="1572" y1="0" x2="1572" y2="540" gradientUnits="userSpaceOnUse">
<stop stop-color="#06B7A7" stop-opacity="0.5"/>
<stop offset="1" stop-color="#06B7A7" stop-opacity="0.5"/>
</linearGradient>
<linearGradient id="paint3_linear_129_10" x1="1572" y1="0" x2="1572" y2="622" gradientUnits="userSpaceOnUse">
<stop stop-color="#06B7A7" stop-opacity="0.5"/>
<stop offset="1" stop-color="#06B7A7" stop-opacity="0.5"/>
</linearGradient>
<clipPath id="clip0_129_10">
<rect width="1553" height="559" fill="white" transform="matrix(-1 0 0 -1 1553 559)"/>
</clipPath>
</defs>
</svg>
